<svg fill="none" height="55" viewBox="0 0 257 55" width="257" xmlns="http://www.w3.org/2000/svg">
  <path
    d="M16.5537 43.9374C14.4472 43.9374 12.4037 43.5248 10.48 42.7112C8.62199 41.9253 6.95329 40.8002 5.5203 39.3672C4.08731 37.9342 2.96226 36.2655 2.17638 34.4075C1.36274 32.4838 0.950195 30.4404 0.950195 28.3339C0.950195 26.2275 1.36274 24.184 2.17638 22.2603C2.96225 20.4023 4.08731 18.7336 5.5203 17.3006C6.95329 15.8676 8.62199 14.7425 10.48 13.9566C12.4037 13.143 14.4472 12.7305 16.5537 12.7305C18.6601 12.7305 20.7035 13.143 22.6272 13.9566C24.4853 14.7425 26.154 15.8676 27.587 17.3006C29.02 18.7336 30.145 20.4023 30.9309 22.2603C31.7446 24.184 32.1572 26.2275 32.1572 28.3339C32.1572 30.4404 31.7446 32.4838 30.9309 34.4075C30.145 36.2655 29.02 37.9342 27.587 39.3672C26.154 40.8002 24.4852 41.9253 22.6272 42.7112C20.7035 43.5248 18.6601 43.9374 16.5537 43.9374ZM16.5537 20.0906C12.0083 20.0906 8.31037 23.7886 8.31037 28.3339C8.31037 32.8793 12.0083 36.5772 16.5537 36.5772C21.0991 36.5772 24.797 32.8793 24.797 28.3339C24.797 23.7886 21.0991 20.0906 16.5537 20.0906Z"
    fill="#2670A1" />
  <path
    d="M181.42 43.9379C179.313 43.9379 177.27 43.5253 175.346 42.7117C173.488 41.9258 171.82 40.8007 170.387 39.3677C168.954 37.9347 167.828 36.266 167.043 34.4079C166.229 32.4843 165.816 30.4409 165.816 28.3344C165.816 26.2279 166.229 24.1845 167.043 22.2608C167.828 20.4027 168.954 18.734 170.387 17.3011C171.82 15.8681 173.488 14.743 175.346 13.9571C177.27 13.1435 179.313 12.731 181.42 12.731C183.526 12.731 185.57 13.1435 187.493 13.9571C189.351 14.743 191.02 15.8681 192.453 17.3011C193.886 18.734 195.011 20.4027 195.797 22.2608C196.611 24.1845 197.023 26.2279 197.023 28.3344C197.023 30.4408 196.611 32.4843 195.797 34.4079C195.011 36.266 193.886 37.9347 192.453 39.3677C191.02 40.8007 189.351 41.9258 187.493 42.7117C185.57 43.5253 183.526 43.9379 181.42 43.9379ZM181.42 20.0911C176.875 20.0911 173.177 23.7891 173.177 28.3344C173.177 32.8798 176.875 36.5777 181.42 36.5777C185.965 36.5777 189.663 32.8798 189.663 28.3344C189.663 23.7891 185.965 20.0911 181.42 20.0911Z"
    fill="#102D4A" />
  <path
    d="M104.1 42.7111C102.242 41.9253 100.573 40.8002 99.1404 39.3673C97.7072 37.9338 96.5822 36.2651 95.7966 34.4074C94.9829 32.4838 94.5703 30.4404 94.5703 28.3339C94.5703 26.2275 94.9829 24.1841 95.7966 22.2604C96.5825 20.4022 97.7075 18.7335 99.1404 17.3006C100.573 15.8676 102.242 14.7426 104.1 13.9567C106.024 13.143 108.067 12.7305 110.174 12.7305C112.28 12.7305 114.324 13.143 116.247 13.9567C118.105 14.7423 119.774 15.8674 121.207 17.3006C122.64 18.7335 123.765 20.4022 124.551 22.2604C125.365 24.1841 125.777 26.2275 125.777 28.3339C125.777 29.3265 125.684 30.3169 125.501 31.278H125.189H102.474C103.661 34.3737 106.665 36.5772 110.174 36.5772C112.784 36.5772 115.269 35.3165 116.82 33.2048C118.786 34.4342 121.454 36.1284 123.005 37.2169C122.476 37.9802 121.871 38.7036 121.207 39.3673C119.774 40.8002 118.105 41.9253 116.247 42.7111C114.324 43.5249 112.28 43.9374 110.174 43.9374C108.067 43.9374 106.024 43.5249 104.1 42.7111ZM117.474 24.5065C116.093 21.8831 113.339 20.0906 110.174 20.0906C107.009 20.0906 104.255 21.8831 102.874 24.5065H117.474Z"
    fill="#102D4A" />
  <path
    d="M139.723 42.7111C137.865 41.9253 136.196 40.8002 134.763 39.3673C133.33 37.9338 132.205 36.2651 131.42 34.4074C130.606 32.4838 130.193 30.4404 130.193 28.3339C130.193 26.2275 130.606 24.1841 131.42 22.2604C132.205 20.4022 133.331 18.7335 134.763 17.3006C136.196 15.8676 137.865 14.7426 139.723 13.9567C141.647 13.143 143.69 12.7305 145.797 12.7305C147.903 12.7305 149.947 13.143 151.87 13.9567C153.728 14.7423 155.397 15.8674 156.83 17.3006C158.263 18.7335 159.388 20.4022 160.174 22.2604C160.988 24.1841 161.4 26.2275 161.4 28.3339C161.4 29.3265 161.307 30.3169 161.124 31.278H160.812H138.097C139.284 34.3737 142.288 36.5772 145.797 36.5772C148.407 36.5772 150.892 35.3165 152.443 33.2048C154.409 34.4342 157.077 36.1284 158.628 37.2169C158.099 37.9802 157.494 38.7036 156.83 39.3673C155.397 40.8002 153.728 41.9253 151.87 42.7111C149.947 43.5249 147.903 43.9374 145.797 43.9374C143.69 43.9374 141.647 43.5249 139.723 42.7111ZM153.097 24.5065C151.716 21.8831 148.962 20.0906 145.797 20.0906C142.632 20.0906 139.878 21.8831 138.497 24.5065H153.097Z"
    fill="#102D4A" />
  <path
    d="M36.5732 54.2416V28.3339C36.5732 26.2275 36.9858 24.1841 37.7995 22.2604C38.5854 20.4022 39.7104 18.7335 41.1433 17.3006C42.5763 15.8676 44.245 14.7426 46.1032 13.9567C48.0269 13.143 50.0703 12.7305 52.1767 12.7305C54.2832 12.7305 56.3266 13.143 58.2502 13.9567C60.1084 14.7426 61.7769 15.8676 63.2101 17.3006C64.643 18.7335 65.7681 20.4022 66.554 22.2604C67.3677 24.1841 67.7802 26.2275 67.7802 28.3339C67.7802 30.4404 67.3677 32.4838 66.554 34.4074C65.7681 36.2654 64.643 37.9341 63.2101 39.3673C61.7769 40.8002 60.1082 41.9253 58.2502 42.7111C56.3266 43.5249 54.2832 43.9374 52.1767 43.9374C50.0703 43.9374 48.0269 43.5249 46.1032 42.7111C45.3475 42.3916 44.6233 42.0159 43.9334 41.5863V54.2416H36.5732ZM43.9334 28.3339C43.9334 32.8794 47.6313 36.5772 52.1767 36.5772C56.7222 36.5772 60.42 32.8794 60.42 28.3339C60.42 23.7885 56.7222 20.0906 52.1767 20.0906C47.6313 20.0906 43.9334 23.7885 43.9334 28.3339Z"
    fill="#2670A1" />
  <path
    d="M75.7291 43.9375V20.9739H74.8457C72.7321 20.9739 71.0186 19.2604 71.0186 17.1468C71.0186 15.0329 72.7321 13.3194 74.8457 13.3194H75.7291V3.30982L83.3836 0.852539V13.3194H89.2717L87.5216 20.9739H83.3836V43.9375H75.7291Z"
    fill="#102D4A" />
  <path
    d="M244.717 43.9375L237.062 43.9373V25.6842C237.062 22.7622 234.685 20.385 231.763 20.385C228.841 20.385 226.464 22.7622 226.464 25.6842V43.9373H219.104V25.537C219.104 25.1998 219.117 24.8645 219.142 24.5315C218.606 22.1606 216.482 20.385 213.952 20.385C211.017 20.385 208.63 22.7721 208.63 25.7063V43.9373H201.439V25.2427C201.439 23.5536 201.77 21.915 202.423 20.3724C202.736 19.631 203.124 18.9159 203.576 18.247C204.024 17.5845 204.538 16.9615 205.104 16.3952C205.67 15.829 206.293 15.315 206.956 14.8674C207.625 14.4154 208.34 14.0273 209.081 13.7137C210.624 13.0613 212.263 12.7305 213.952 12.7305C215.641 12.7305 217.279 13.0613 218.822 13.7137C219.563 14.0273 220.278 14.4154 220.947 14.8674C221.61 15.3149 222.233 15.829 222.799 16.3952C222.823 16.4189 222.846 16.4426 222.87 16.4664C223.445 15.8929 224.078 15.3718 224.75 14.9177C225.435 14.4551 226.167 14.0578 226.925 13.7368C228.504 13.069 230.181 12.7305 231.91 12.7305C233.639 12.7305 235.316 13.069 236.895 13.7368C237.654 14.0578 238.386 14.4551 239.071 14.9177C239.749 15.3758 240.386 15.902 240.966 16.4814C241.546 17.061 242.072 17.6986 242.53 18.3768C242.992 19.0614 243.39 19.7933 243.711 20.5521C244.378 22.131 244.717 23.8082 244.717 25.537L244.717 43.9375Z"
    fill="#102D4A" />
  <path
    d="M252.96 36.2827C255.074 36.2827 256.787 37.9962 256.787 40.11C256.787 42.2237 255.074 43.9372 252.96 43.9372C250.846 43.9372 249.133 42.2237 249.133 40.11C249.133 37.9962 250.846 36.2827 252.96 36.2827Z"
    fill="#102D4A" />
  <path d="M189.664 12.731H197.024V43.9378H189.664V12.731Z" fill="#102D4A" />
</svg>