<svg width="25" height="24" viewBox="0 0 25 24" fill="none" xmlns="http://www.w3.org/2000/svg">
<g clip-path="url(#clip0_631_1517)">
<path d="M8.41506 12C11.7241 12 14.4151 9.309 14.4151 6C14.4151 2.691 11.7241 0 8.41506 0C5.10606 0 2.41506 2.691 2.41506 6C2.41506 9.309 5.10606 12 8.41506 12ZM8.41506 2C10.6211 2 12.4151 3.794 12.4151 6C12.4151 8.206 10.6211 10 8.41506 10C6.20906 10 4.41506 8.206 4.41506 6C4.41506 3.794 6.20906 2 8.41506 2ZM9.40706 14.938C9.47506 15.486 9.08706 15.985 8.53806 16.054C5.04706 16.49 2.41406 19.475 2.41406 23C2.41406 23.552 1.96606 24 1.41406 24C0.862063 24 0.414062 23.552 0.414062 23C0.414062 18.469 3.80006 14.63 8.29006 14.07C8.83206 14.001 9.33706 14.39 9.40606 14.939L9.40706 14.938ZM23.1111 19.133L22.1371 18.571C22.3031 18.074 22.4151 17.552 22.4151 16.999C22.4151 16.446 22.3041 15.924 22.1371 15.427L23.1111 14.865C23.5891 14.589 23.7531 13.977 23.4771 13.499C23.2001 13.02 22.5891 12.856 22.1111 13.133L21.1381 13.695C20.4331 12.901 19.4941 12.32 18.4151 12.101V11C18.4151 10.448 17.9671 10 17.4151 10C16.8631 10 16.4151 10.448 16.4151 11V12.101C15.3361 12.321 14.3971 12.902 13.6921 13.695L12.7191 13.133C12.2381 12.856 11.6291 13.02 11.3531 13.499C11.0771 13.978 11.2411 14.589 11.7191 14.865L12.6931 15.427C12.5271 15.924 12.4151 16.446 12.4151 16.999C12.4151 17.552 12.5261 18.074 12.6931 18.571L11.7191 19.133C11.2411 19.409 11.0771 20.021 11.3531 20.499C11.5391 20.82 11.8741 20.999 12.2201 20.999C12.3891 20.999 12.5611 20.956 12.7191 20.865L13.6921 20.303C14.3971 21.097 15.3361 21.678 16.4151 21.897V22.998C16.4151 23.55 16.8631 23.998 17.4151 23.998C17.9671 23.998 18.4151 23.55 18.4151 22.998V21.897C19.4941 21.677 20.4331 21.096 21.1381 20.303L22.1111 20.865C22.2691 20.956 22.4411 20.999 22.6101 20.999C22.9561 20.999 23.2921 20.82 23.4771 20.499C23.7531 20.02 23.5891 19.409 23.1111 19.133ZM17.4151 19.999C15.7611 19.999 14.4151 18.653 14.4151 16.999C14.4151 15.345 15.7611 13.999 17.4151 13.999C19.0691 13.999 20.4151 15.345 20.4151 16.999C20.4151 18.653 19.0691 19.999 17.4151 19.999Z" fill="black"/>
</g>
<defs>
<clipPath id="clip0_631_1517">
<rect width="24" height="24" fill="white" transform="translate(0.414062)"/>
</clipPath>
</defs>
</svg>
