<svg width="17" height="17" viewBox="0 0 17 17" fill="none" xmlns="http://www.w3.org/2000/svg">
<g clip-path="url(#clip0_85_5008)">
<path d="M16.5 2.86816C16.5 2.33773 16.2893 1.82902 15.9142 1.45395C15.5391 1.07888 15.0304 0.868164 14.5 0.868164H2.5C1.96957 0.868164 1.46086 1.07888 1.08579 1.45395C0.710714 1.82902 0.5 2.33773 0.5 2.86816V6.86816H1.16667V16.8682H15.8333V6.86816H16.5V2.86816ZM1.83333 2.86816C1.83333 2.69135 1.90357 2.52178 2.0286 2.39676C2.15362 2.27174 2.32319 2.2015 2.5 2.2015H14.5C14.6768 2.2015 14.8464 2.27174 14.9714 2.39676C15.0964 2.52178 15.1667 2.69135 15.1667 2.86816V5.53483H1.83333V2.86816ZM14.5 15.5348H2.5V6.86816H14.5V15.5348Z" fill="black"/>
<path d="M11.1667 8.86816C10.7471 8.86816 7.16667 8.86816 5.83333 8.86816C5.5 8.86816 5.16667 9.2015 5.16667 9.53483C5.16667 9.86816 5.54225 10.2015 5.83333 10.2015C7.16667 10.2015 9.5 10.2015 11.1667 10.2015C11.5708 10.2015 11.8333 9.86816 11.8333 9.53483C11.8333 9.27448 11.5862 8.86816 11.1667 8.86816Z" fill="black"/>
</g>
<defs>
<clipPath id="clip0_85_5008">
<rect width="16" height="16" fill="white" transform="translate(0.5 0.868164)"/>
</clipPath>
</defs>
</svg>
