<svg width="87" height="87" viewBox="0 0 87 87" fill="none" xmlns="http://www.w3.org/2000/svg">
<path d="M84.8478 86.1439H1.92998C1.14083 86.1439 0.500366 85.5035 0.500366 84.7143V30.3888C0.500366 29.5997 1.14083 28.9592 1.92998 28.9592H84.8478C85.637 28.9592 86.2774 29.5997 86.2774 30.3888V84.7143C86.2774 85.5035 85.6384 86.1439 84.8478 86.1439ZM3.3596 83.2847H83.4182V31.8185H3.3596V83.2847Z" fill="#AAAFC6"/>
<path d="M74.8405 31.8184H11.9373C11.1482 31.8184 10.5077 31.178 10.5077 30.3888V24.6703C10.5077 23.8812 11.1482 23.2407 11.9373 23.2407H74.8405C75.6296 23.2407 76.2701 23.8812 76.2701 24.6703V30.3888C76.2701 31.178 75.6311 31.8184 74.8405 31.8184ZM13.3669 28.9592H73.4109V26.1H13.3669V28.9592Z" fill="#AAAFC6"/>
<path d="M69.1219 26.0999H17.6557C16.8665 26.0999 16.2261 25.4595 16.2261 24.6703V18.9518C16.2261 18.1627 16.8665 17.5222 17.6557 17.5222H69.1219C69.9111 17.5222 70.5516 18.1627 70.5516 18.9518V24.6703C70.5516 25.4595 69.9125 26.0999 69.1219 26.0999ZM19.0853 23.2407H67.6923V20.3815H19.0853V23.2407Z" fill="#AAAFC6"/>
<path d="M66.2627 20.3814H20.5149C19.7258 20.3814 19.0853 19.7409 19.0853 18.9518V13.2333C19.0853 12.4442 19.7258 11.8037 20.5149 11.8037H66.2627C67.0519 11.8037 67.6923 12.4442 67.6923 13.2333V18.9518C67.6923 19.7409 67.0533 20.3814 66.2627 20.3814ZM21.9446 17.5222H64.8331V14.6629H21.9446V17.5222Z" fill="#AAAFC6"/>
<path d="M53.3962 51.8329H33.3816C30.2278 51.8329 27.6631 49.2682 27.6631 46.1145C27.6631 42.9607 30.2278 40.396 33.3816 40.396H53.3962C56.5499 40.396 59.1147 42.9607 59.1147 46.1145C59.1147 49.2682 56.5499 51.8329 53.3962 51.8329ZM33.3816 43.2552C31.8047 43.2552 30.5223 44.5376 30.5223 46.1145C30.5223 47.6913 31.8047 48.9737 33.3816 48.9737H53.3962C54.9731 48.9737 56.2554 47.6913 56.2554 46.1145C56.2554 44.5376 54.9731 43.2552 53.3962 43.2552H33.3816Z" fill="#AAAFC6"/>
<path d="M84.8478 31.8183H1.92993C1.4553 31.8183 1.01212 31.5824 0.746207 31.1907C0.480298 30.799 0.425972 30.2986 0.601815 29.8583L12.0388 1.26596C12.2546 0.724139 12.7822 0.368164 13.3669 0.368164H73.4108C73.9955 0.368164 74.5202 0.724139 74.7375 1.26596L86.1744 29.8583C86.3517 30.2986 86.2974 30.7976 86.0315 31.1907C85.7656 31.5839 85.3224 31.8183 84.8478 31.8183ZM4.04148 28.9591H82.7362L72.443 3.22597H14.3347L4.04148 28.9591Z" fill="#AAAFC6"/>
</svg>
