<svg width="86" height="82" viewBox="0 0 86 82" fill="none" xmlns="http://www.w3.org/2000/svg">
<path d="M5.5 0.5H80.5C82.9853 0.5 85 2.51472 85 5V76.8428C85 79.3281 82.9853 81.3428 80.5 81.3428H5.5C3.01472 81.3428 1 79.3281 1 76.8428V5C1 2.51472 3.01472 0.5 5.5 0.5Z" stroke="#AAAFC6"/>
<path d="M22.2569 45.0334V33.3971H24.0126V43.5221H29.2853V45.0334H22.2569ZM40.943 39.2153C40.943 40.4577 40.7157 41.5259 40.2612 42.4198C39.8066 43.31 39.1835 43.9956 38.3918 44.4766C37.604 44.9539 36.7081 45.1925 35.7043 45.1925C34.6968 45.1925 33.7971 44.9539 33.0055 44.4766C32.2176 43.9956 31.5964 43.3081 31.1418 42.4141C30.6873 41.5202 30.46 40.4539 30.46 39.2153C30.46 37.9728 30.6873 36.9066 31.1418 36.0164C31.5964 35.1225 32.2176 34.4369 33.0055 33.9596C33.7971 33.4785 34.6968 33.238 35.7043 33.238C36.7081 33.238 37.604 33.4785 38.3918 33.9596C39.1835 34.4369 39.8066 35.1225 40.2612 36.0164C40.7157 36.9066 40.943 37.9728 40.943 39.2153ZM39.2043 39.2153C39.2043 38.2683 39.0509 37.4709 38.7441 36.8232C38.4411 36.1717 38.0244 35.6793 37.4941 35.3459C36.9676 35.0088 36.371 34.8403 35.7043 34.8403C35.0339 34.8403 34.4354 35.0088 33.9089 35.3459C33.3824 35.6793 32.9657 36.1717 32.6589 36.8232C32.3559 37.4709 32.2043 38.2683 32.2043 39.2153C32.2043 40.1622 32.3559 40.9615 32.6589 41.613C32.9657 42.2607 33.3824 42.7531 33.9089 43.0903C34.4354 43.4236 35.0339 43.5903 35.7043 43.5903C36.371 43.5903 36.9676 43.4236 37.4941 43.0903C38.0244 42.7531 38.4411 42.2607 38.7441 41.613C39.0509 40.9615 39.2043 40.1622 39.2043 39.2153ZM51.0069 37.0732C50.897 36.7285 50.7493 36.4198 50.5637 36.1471C50.3819 35.8706 50.1641 35.6357 49.9103 35.4425C49.6565 35.2456 49.3667 35.0959 49.041 34.9937C48.719 34.8914 48.3649 34.8403 47.9785 34.8403C47.3232 34.8403 46.7323 35.0088 46.2058 35.3459C45.6792 35.6831 45.2626 36.1774 44.9558 36.8289C44.6527 37.4766 44.5012 38.2702 44.5012 39.2096C44.5012 40.1528 44.6546 40.9501 44.9614 41.6016C45.2683 42.2531 45.6887 42.7475 46.2228 43.0846C46.7569 43.4217 47.3649 43.5903 48.0467 43.5903C48.6792 43.5903 49.2304 43.4615 49.7001 43.2039C50.1736 42.9463 50.5391 42.5827 50.7967 42.113C51.058 41.6395 51.1887 41.0827 51.1887 40.4425L51.6433 40.5278H48.3137V39.0789H52.8876V40.4028C52.8876 41.38 52.6792 42.2285 52.2626 42.9482C51.8497 43.6641 51.2777 44.2172 50.5467 44.6073C49.8194 44.9975 48.9861 45.1925 48.0467 45.1925C46.9936 45.1925 46.0694 44.9501 45.2739 44.4653C44.4823 43.9804 43.8649 43.2929 43.4217 42.4028C42.9785 41.5088 42.7569 40.4482 42.7569 39.2209C42.7569 38.2929 42.8857 37.4596 43.1433 36.7209C43.4008 35.9823 43.7626 35.3554 44.2285 34.8403C44.6982 34.3213 45.2493 33.9255 45.8819 33.6528C46.5183 33.3762 47.2133 33.238 47.9671 33.238C48.5959 33.238 49.1811 33.3308 49.7228 33.5164C50.2683 33.702 50.7531 33.9653 51.1774 34.3062C51.6054 34.6471 51.9595 35.0524 52.2399 35.5221C52.5202 35.988 52.7096 36.505 52.808 37.0732H51.0069ZM65.2242 39.2153C65.2242 40.4577 64.997 41.5259 64.5424 42.4198C64.0879 43.31 63.4648 43.9956 62.6731 44.4766C61.8852 44.9539 60.9894 45.1925 59.9856 45.1925C58.978 45.1925 58.0784 44.9539 57.2867 44.4766C56.4988 43.9956 55.8776 43.3081 55.4231 42.4141C54.9685 41.5202 54.7413 40.4539 54.7413 39.2153C54.7413 37.9728 54.9685 36.9066 55.4231 36.0164C55.8776 35.1225 56.4988 34.4369 57.2867 33.9596C58.0784 33.4785 58.978 33.238 59.9856 33.238C60.9894 33.238 61.8852 33.4785 62.6731 33.9596C63.4648 34.4369 64.0879 35.1225 64.5424 36.0164C64.997 36.9066 65.2242 37.9728 65.2242 39.2153ZM63.4856 39.2153C63.4856 38.2683 63.3322 37.4709 63.0254 36.8232C62.7223 36.1717 62.3057 35.6793 61.7754 35.3459C61.2488 35.0088 60.6523 34.8403 59.9856 34.8403C59.3151 34.8403 58.7167 35.0088 58.1901 35.3459C57.6636 35.6793 57.247 36.1717 56.9401 36.8232C56.6371 37.4709 56.4856 38.2683 56.4856 39.2153C56.4856 40.1622 56.6371 40.9615 56.9401 41.613C57.247 42.2607 57.6636 42.7531 58.1901 43.0903C58.7167 43.4236 59.3151 43.5903 59.9856 43.5903C60.6523 43.5903 61.2488 43.4236 61.7754 43.0903C62.3057 42.7531 62.7223 42.2607 63.0254 41.613C63.3322 40.9615 63.4856 40.1622 63.4856 39.2153Z" fill="#AAAFC6"/>
</svg>
