<svg width="24" height="24" viewBox="0 0 24 24" fill="none" xmlns="http://www.w3.org/2000/svg">
<path d="M22.8949 16.0392L20.3943 7.02643C19.8603 5.09849 18.6968 3.40455 17.089 2.21421C15.4811 1.02387 13.5213 0.405542 11.5215 0.457631C9.52165 0.50972 7.59669 1.22923 6.05298 2.50166C4.50928 3.77408 3.43554 5.5263 3.00265 7.47942L1.06854 16.1834C0.974952 16.6051 0.977234 17.0424 1.07522 17.4631C1.1732 17.8838 1.36439 18.2771 1.63467 18.614C1.90495 18.9509 2.24743 19.2229 2.63684 19.4098C3.02625 19.5967 3.45266 19.6938 3.8846 19.6939H7.3537C7.57444 20.781 8.16421 21.7583 9.02308 22.4603C9.88195 23.1623 10.9571 23.5458 12.0664 23.5458C13.1756 23.5458 14.2508 23.1623 15.1096 22.4603C15.9685 21.7583 16.5583 20.781 16.779 19.6939H20.1164C20.5608 19.6937 20.9992 19.5908 21.3973 19.3933C21.7955 19.1958 22.1426 18.909 22.4116 18.5552C22.6807 18.2014 22.8644 17.7903 22.9484 17.3539C23.0324 16.9174 23.0134 16.4675 22.8949 16.0392ZM12.0664 21.6174C11.4717 21.615 10.8924 21.4288 10.4076 21.0845C9.9228 20.7402 9.55622 20.2545 9.35802 19.6939H14.7747C14.5765 20.2545 14.2099 20.7402 13.7251 21.0845C13.2403 21.4288 12.661 21.615 12.0664 21.6174ZM20.881 17.3904C20.7912 17.5094 20.6749 17.6057 20.5413 17.6717C20.4077 17.7376 20.2605 17.7714 20.1116 17.7703H3.8846C3.74058 17.7703 3.59841 17.738 3.46858 17.6756C3.33875 17.6133 3.22457 17.5226 3.13447 17.4103C3.04437 17.2979 2.98065 17.1668 2.94801 17.0265C2.91538 16.8863 2.91466 16.7405 2.94591 16.5999L4.88003 7.89587C5.22083 6.36301 6.06426 4.98806 7.27623 3.9896C8.4882 2.99113 9.99916 2.42646 11.5689 2.38533C13.1387 2.34421 14.6771 2.829 15.9397 3.76264C17.2023 4.69628 18.1165 6.02518 18.5371 7.53809L21.0377 16.5508C21.0786 16.6933 21.0857 16.8434 21.0584 16.9891C21.0312 17.1349 20.9705 17.2723 20.881 17.3904Z" fill="black"/>
</svg>
