<svg width="25" height="24" viewBox="0 0 25 24" fill="none" xmlns="http://www.w3.org/2000/svg">
<g clip-path="url(#clip0_631_1501)">
<path fill-rule="evenodd" clip-rule="evenodd" d="M22.4141 4H2.41406L2.41406 22H22.4141V4ZM2.41406 2C1.30949 2 0.414062 2.89543 0.414062 4V22C0.414062 23.1046 1.30949 24 2.41406 24H22.4141C23.5186 24 24.4141 23.1046 24.4141 22V4C24.4141 2.89543 23.5186 2 22.4141 2H2.41406Z" fill="black"/>
<path fill-rule="evenodd" clip-rule="evenodd" d="M7.41406 0C7.96635 -1.6094e-08 8.41406 0.447715 8.41406 1V5C8.41406 5.55228 7.96635 6 7.41406 6C6.86178 6 6.41406 5.55228 6.41406 5L6.41406 1C6.41406 0.447715 6.86178 1.60942e-08 7.41406 0Z" fill="black"/>
<path fill-rule="evenodd" clip-rule="evenodd" d="M24.4141 8C24.4141 8.55229 23.9663 9 23.4141 9H1.41406C0.861778 9 0.414063 8.55229 0.414062 8C0.414062 7.44772 0.861778 7 1.41406 7H23.4141C23.9663 7 24.4141 7.44772 24.4141 8Z" fill="black"/>
<path fill-rule="evenodd" clip-rule="evenodd" d="M17.4141 0C17.9663 -1.6094e-08 18.4141 0.447715 18.4141 1V5C18.4141 5.55228 17.9663 6 17.4141 6C16.8618 6 16.4141 5.55228 16.4141 5V1C16.4141 0.447715 16.8618 1.60942e-08 17.4141 0Z" fill="black"/>
</g>
<defs>
<clipPath id="clip0_631_1501">
<rect width="24" height="24" fill="white" transform="translate(0.414062)"/>
</clipPath>
</defs>
</svg>
