<svg width="24" height="24" viewBox="0 0 24 24" fill="none" xmlns="http://www.w3.org/2000/svg">
<path d="M12.5 20C7.80558 20 4 16.1944 4 11.5C4 6.80558 7.80558 3 12.5 3C17.1944 3 21 6.80558 21 11.5C20.9949 16.1923 17.1923 19.9949 12.5 20ZM15.3333 9.66755C15.6212 9.40263 15.6398 8.95452 15.3748 8.66668C15.1099 8.37884 14.6618 8.36025 14.374 8.62517C14.3595 8.63842 14.3457 8.65227 14.3324 8.66668L12.5 10.4984L10.6683 8.66668C10.3869 8.39491 9.93845 8.40271 9.66668 8.68411C9.40158 8.9586 9.40158 9.39376 9.66668 9.66825L11.4984 11.5L9.66668 13.3317C9.39491 13.6131 9.40271 14.0616 9.68411 14.3333C9.9586 14.5984 10.3938 14.5984 10.6683 14.3333L12.5 12.5016L14.3324 14.3333C14.5974 14.6212 15.0455 14.6398 15.3333 14.3748C15.6212 14.1099 15.6398 13.6618 15.3748 13.374C15.3616 13.3595 15.3477 13.3457 15.3333 13.3324L13.5016 11.5L15.3333 9.66755Z" fill="black"/>
</svg>
