<svg width="17" height="18" viewBox="0 0 17 18" fill="none" xmlns="http://www.w3.org/2000/svg">
  <circle cx="8.5" cy="8.95703" r="6.5" fill="white"/>
  <path
    d="M8.5 17.457C3.80558 17.457 0 13.6515 0 8.95703C0 4.26261 3.80558 0.457031 8.5 0.457031C13.1944 0.457031 17 4.26261 17 8.95703C16.9949 13.6494 13.1923 17.452 8.5 17.457ZM11.3333 7.12458C11.6212 6.85966 11.6398 6.41155 11.3748 6.12371C11.1099 5.83587 10.6618 5.81728 10.374 6.0822C10.3595 6.09545 10.3457 6.1093 10.3324 6.12371L8.5 7.95546L6.66825 6.12371C6.38685 5.85194 5.93845 5.85974 5.66668 6.14114C5.40158 6.41563 5.40158 6.85079 5.66668 7.12528L7.49843 8.95703L5.66668 10.7888C5.39491 11.0702 5.40271 11.5186 5.68411 11.7904C5.9586 12.0554 6.39376 12.0554 6.66825 11.7904L8.5 9.9586L10.3324 11.7904C10.5974 12.0782 11.0455 12.0968 11.3333 11.8319C11.6212 11.5669 11.6398 11.1188 11.3748 10.831C11.3616 10.8166 11.3477 10.8028 11.3333 10.7895L9.50157 8.95703L11.3333 7.12458Z"
    fill="#D92339"/>
</svg>
