<svg width="24" height="24" viewBox="0 0 24 24" fill="none" xmlns="http://www.w3.org/2000/svg">
<path d="M6.03692 7.30769C6.03692 4.932 7.86404 3 10.1108 3C12.3575 3 14.1846 4.932 14.1846 7.30769C14.1846 9.68338 12.3575 11.6154 10.1108 11.6154C7.86404 11.6154 6.03692 9.68338 6.03692 7.30769ZM18.75 16.3302L20 17.0912L19.3224 18.3354L18.0731 17.5744C17.5937 18.1458 16.9555 18.5637 16.2222 18.7216V20.2301H14.8642V18.7216C14.131 18.5637 13.492 18.1458 13.0134 17.5744L11.7641 18.3354L11.0864 17.0912L12.3364 16.3302C12.2244 15.9741 12.149 15.6007 12.149 15.2051C12.149 14.8095 12.2244 14.4362 12.3364 14.0801L11.0864 13.3191L11.7641 12.0749L13.0134 12.8359C13.4927 12.2644 14.131 11.8466 14.8642 11.6886V10.1802H16.2222V11.6886C16.9555 11.8466 17.5944 12.2644 18.0731 12.8359L19.3224 12.0749L20 13.3191L18.75 14.0801C18.862 14.4362 18.9374 14.8095 18.9374 15.2051C18.9374 15.6007 18.862 15.9741 18.75 16.3302ZM16.561 15.2051C16.561 14.6114 16.1041 14.1282 15.5425 14.1282C14.981 14.1282 14.5241 14.6114 14.5241 15.2051C14.5241 15.7989 14.981 16.2821 15.5425 16.2821C16.1041 16.2821 16.561 15.7989 16.561 15.2051ZM9.43178 15.2051C9.43178 14.4484 9.56079 13.7262 9.78689 13.0513H7.39487C5.52294 13.0513 4 14.6616 4 16.641V20.2308H11.7057C10.3199 19.0462 9.43178 17.2362 9.43178 15.2051Z" fill="black"/>
</svg>
