<svg width="24" height="24" viewBox="0 0 24 24" fill="none" xmlns="http://www.w3.org/2000/svg">
<path d="M1.08544 3.10543V6.42171H4.34063V3.10543H1.08544ZM1.08544 2H4.34063C4.94003 2 5.42607 2.49521 5.42607 3.10543V6.42171C5.42607 7.03194 4.94003 7.52714 4.34063 7.52714H1.08544C0.486034 7.52554 0 7.03194 0 6.42171V3.10543C0 2.49521 0.486034 2 1.08544 2Z" fill="black"/>
<path d="M22.8349 3.10526H7.79925C7.15576 3.10526 6.63412 3.84764 6.63412 4.7634C6.63412 5.67917 7.15576 6.42154 7.79925 6.42154H22.8349C23.4784 6.42154 24 5.67917 24 4.7634C24 3.84764 23.4784 3.10526 22.8349 3.10526Z" fill="black"/>
<path d="M1.08544 10.8415V14.1578H4.34063V10.8415H1.08544ZM1.08544 9.73604H4.34063C4.94003 9.73604 5.42607 10.2312 5.42607 10.8415V14.1578C5.42607 14.768 4.94003 15.2632 4.34063 15.2632H1.08544C0.486034 15.2616 0 14.768 0 14.1578V10.8415C0 10.2312 0.486034 9.73604 1.08544 9.73604Z" fill="black"/>
<path d="M22.8349 10.8421H7.79925C7.15576 10.8421 6.63412 11.5845 6.63412 12.5002C6.63412 13.416 7.15576 14.1584 7.79925 14.1584H22.8349C23.4784 14.1584 24 13.416 24 12.5002C24 11.5845 23.4784 10.8421 22.8349 10.8421Z" fill="black"/>
<path d="M1.08544 18.5783V21.8946H4.34063V18.5783H1.08544ZM1.08544 17.4729H4.34063C4.94003 17.4729 5.42607 17.9681 5.42607 18.5783V21.8946C5.42607 22.5048 4.94003 23 4.34063 23H1.08544C0.486034 22.9984 0 22.5048 0 21.8946V18.5783C0 17.9681 0.486034 17.4729 1.08544 17.4729Z" fill="black"/>
<path d="M22.8349 18.5781H7.79925C7.15576 18.5781 6.63412 19.3205 6.63412 20.2363C6.63412 21.152 7.15576 21.8944 7.79925 21.8944H22.8349C23.4784 21.8944 24 21.152 24 20.2363C24 19.3205 23.4784 18.5781 22.8349 18.5781Z" fill="black"/>
<path d="M2.23837 5.8277L1.36508 4.93953C1.3532 4.92969 1.34334 4.91558 1.33649 4.89862C1.32964 4.88166 1.32603 4.86244 1.32603 4.84288C1.32603 4.82332 1.32964 4.8041 1.33649 4.78714C1.34334 4.77018 1.3532 4.75608 1.36508 4.74624L1.55029 4.55135C1.57852 4.52522 1.61147 4.51132 1.64514 4.51132C1.67881 4.51132 1.71176 4.52522 1.73999 4.55135L2.33603 5.15039L3.5932 3.86445C3.62143 3.83833 3.65438 3.82442 3.68805 3.82442C3.72173 3.82442 3.75468 3.83833 3.7829 3.86445L3.9726 4.05774C3.98448 4.06758 3.99434 4.08168 4.0012 4.09864C4.00805 4.1156 4.01165 4.13482 4.01165 4.15438C4.01165 4.17395 4.00805 4.19317 4.0012 4.21013C3.99434 4.22709 3.98448 4.24119 3.9726 4.25103L2.42807 5.8277C2.39984 5.85383 2.36689 5.86773 2.33322 5.86773C2.29955 5.86773 2.2666 5.85383 2.23837 5.8277Z" fill="black"/>
<path d="M2.23837 13.5653L1.36508 12.6771C1.3532 12.6673 1.34334 12.6532 1.33649 12.6362C1.32964 12.6193 1.32603 12.6 1.32603 12.5805C1.32603 12.5609 1.32964 12.5417 1.33649 12.5247C1.34334 12.5078 1.3532 12.4937 1.36508 12.4838L1.55029 12.2889C1.57852 12.2628 1.61147 12.2489 1.64514 12.2489C1.67881 12.2489 1.71176 12.2628 1.73999 12.2889L2.33603 12.888L3.5932 11.602C3.62143 11.5759 3.65438 11.562 3.68805 11.562C3.72173 11.562 3.75468 11.5759 3.7829 11.602L3.9726 11.7953C3.98448 11.8052 3.99434 11.8193 4.0012 11.8362C4.00805 11.8532 4.01165 11.8724 4.01165 11.892C4.01165 11.9115 4.00805 11.9308 4.0012 11.9477C3.99434 11.9647 3.98448 11.9788 3.9726 11.9886L2.42807 13.5653C2.39984 13.5914 2.36689 13.6053 2.33322 13.6053C2.29955 13.6053 2.2666 13.5914 2.23837 13.5653Z" fill="black"/>
</svg>
