<svg width="24" height="24" viewBox="0 0 24 24" fill="none" xmlns="http://www.w3.org/2000/svg">
<path d="M0 8.74967V7.20373H3.01551V15.9401H1.21371V8.74967H0Z" fill="black"/>
<path d="M8.27808 14.0466C9.07887 13.4075 9.71701 12.8762 10.1925 12.4527C10.668 12.0213 11.0642 11.5739 11.3812 11.1105C11.6982 10.6471 11.8566 10.1917 11.8566 9.74434C11.8566 9.33688 11.7565 9.01731 11.5563 8.78562C11.3561 8.55393 11.0475 8.43808 10.6304 8.43808C10.2133 8.43808 9.89219 8.5739 9.66696 8.84554C9.44174 9.10919 9.32495 9.4727 9.31661 9.93608H7.61492C7.64828 8.97736 7.94441 8.25033 8.5033 7.75499C9.07053 7.25965 9.78792 7.01198 10.6554 7.01198C11.6064 7.01198 12.3363 7.25566 12.8451 7.74301C13.354 8.22237 13.6084 8.85752 13.6084 9.64847C13.6084 10.2716 13.4332 10.8668 13.0829 11.4341C12.7325 12.0013 12.3321 12.4967 11.8817 12.9201C11.4312 13.3356 10.8431 13.8389 10.1174 14.4301H13.8086V15.8202H7.62743V14.5739L8.27808 14.0466Z" fill="black"/>
<path d="M17.9189 9.50466C17.9606 8.70573 18.2526 8.09055 18.7948 7.65912C19.3454 7.21971 20.0669 7 20.9595 7C21.5684 7 22.0898 7.10386 22.5235 7.31158C22.9573 7.51132 23.2826 7.78695 23.4995 8.13848C23.7247 8.48202 23.8373 8.8735 23.8373 9.31292C23.8373 9.81625 23.6997 10.2437 23.4244 10.5952C23.1575 10.9387 22.8363 11.1704 22.461 11.2903V11.3382C22.9448 11.482 23.3202 11.7377 23.5871 12.1052C23.8624 12.4727 24 12.9441 24 13.5193C24 13.9987 23.8832 14.4261 23.6497 14.8016C23.4244 15.1771 23.0866 15.4727 22.6361 15.6884C22.194 15.8961 21.6602 16 21.0345 16C20.0919 16 19.3245 15.7723 18.7322 15.3169C18.14 14.8615 17.8272 14.1904 17.7938 13.3036H19.4955C19.5122 13.6951 19.6498 14.0107 19.9084 14.2503C20.1754 14.482 20.5382 14.5979 20.997 14.5979C21.4224 14.5979 21.7478 14.486 21.973 14.2623C22.2065 14.0306 22.3233 13.735 22.3233 13.3755C22.3233 12.8961 22.1648 12.5526 21.8479 12.3449C21.5309 12.1372 21.0387 12.0333 20.3714 12.0333H20.0085V10.6551H20.3714C21.5559 10.6551 22.1482 10.2756 22.1482 9.51664C22.1482 9.1731 22.0397 8.90546 21.8228 8.71371C21.6143 8.52197 21.3098 8.4261 20.9094 8.4261C20.5174 8.4261 20.2129 8.52996 19.996 8.73768C19.7875 8.93742 19.6665 9.19308 19.6331 9.50466H17.9189Z" fill="black"/>
</svg>
