<svg width="24" height="24" viewBox="0 0 24 24" fill="none" xmlns="http://www.w3.org/2000/svg">
<path d="M6.03692 7.25C6.03692 4.90612 7.86404 3 10.1108 3C12.3575 3 14.1846 4.90612 14.1846 7.25C14.1846 9.59387 12.3575 11.5 10.1108 11.5C7.86404 11.5 6.03692 9.59387 6.03692 7.25ZM9.43178 15.0417C9.43178 14.2951 9.56079 13.5825 9.78689 12.9167H7.39487C5.52294 12.9167 4 14.5055 4 16.4583V20H11.7057C10.3199 18.8313 9.43178 17.0455 9.43178 15.0417Z" fill="black"/>
<path d="M15.6887 11.5C14.8368 11.5007 14.0043 11.7506 13.2964 12.218C12.5885 12.6854 12.037 13.3494 11.7115 14.1261C11.386 14.9027 11.3012 15.7572 11.4678 16.5813C11.6345 17.4055 12.045 18.1625 12.6476 18.7565C13.2502 19.3505 14.0178 19.7549 14.8533 19.9186C15.6888 20.0823 16.5547 19.9979 17.3416 19.6761C18.1286 19.3544 18.8011 18.8096 19.2743 18.1108C19.7475 17.412 20 16.5904 20 15.75C19.999 14.6225 19.5444 13.5415 18.7359 12.7446C17.9275 11.9477 16.8315 11.5 15.6887 11.5ZM18.0333 15.3717L17.1532 16.2184L17.3613 17.4147C17.3741 17.4873 17.3659 17.562 17.3378 17.6303C17.3097 17.6986 17.2628 17.7578 17.2023 17.8011C17.1419 17.8445 17.0703 17.8702 16.9958 17.8755C16.9213 17.8807 16.8467 17.8653 16.7806 17.8309L15.685 17.2652L14.5894 17.8309C14.5233 17.8653 14.4488 17.8807 14.3742 17.8755C14.2997 17.8702 14.2282 17.8445 14.1677 17.8011C14.1073 17.7578 14.0603 17.6986 14.0322 17.6303C14.0041 17.562 13.9959 17.4873 14.0087 17.4147L14.2168 16.2184L13.3349 15.3699C13.2815 15.3178 13.2441 15.2519 13.2269 15.1798C13.2097 15.1077 13.2134 15.0323 13.2376 14.9622C13.2618 14.8921 13.3055 14.8301 13.3637 14.7834C13.4219 14.7366 13.4923 14.707 13.5668 14.6979L14.7848 14.5177L15.3326 13.4367C15.3693 13.3751 15.4218 13.324 15.4847 13.2885C15.5477 13.253 15.6189 13.2343 15.6914 13.2343C15.7639 13.2343 15.8351 13.253 15.8981 13.2885C15.961 13.324 16.0135 13.3751 16.0502 13.4367L16.598 14.5177L17.816 14.6979C17.8901 14.7082 17.9598 14.7388 18.0172 14.7862C18.0745 14.8336 18.1172 14.896 18.1405 14.9662C18.1637 15.0364 18.1664 15.1116 18.1485 15.1833C18.1305 15.255 18.0925 15.3202 18.0388 15.3717H18.0333Z" fill="black"/>
</svg>
