<svg width="17" height="17" viewBox="0 0 17 17" fill="none" xmlns="http://www.w3.org/2000/svg">
<g clip-path="url(#clip0_85_4648)">
<path d="M11.8543 5.86666C11.6632 5.91744 11.4914 6.02375 11.3607 6.17216C11.23 6.32056 11.1462 6.50439 11.1199 6.7004C11.0937 6.89642 11.1262 7.09581 11.2132 7.27337C11.3003 7.45093 11.4381 7.59869 11.6091 7.69796C11.7802 7.79722 11.9768 7.84355 12.1742 7.83107C12.3715 7.81859 12.5608 7.74787 12.7179 7.62785C12.8751 7.50783 12.9932 7.3439 13.0572 7.15679C13.1212 6.96968 13.1283 6.76778 13.0776 6.57663C13.0439 6.44968 12.9855 6.33061 12.9058 6.22622C12.8261 6.12183 12.7266 6.03417 12.613 5.96824C12.4994 5.90231 12.3739 5.8594 12.2438 5.84197C12.1136 5.82454 11.9812 5.83293 11.8543 5.86666Z" fill="black"/>
<path d="M8.52107 3.86672C8.32994 3.9175 8.15816 4.02382 8.02745 4.17222C7.89674 4.32063 7.81296 4.50446 7.78672 4.70047C7.76048 4.89648 7.79295 5.09587 7.88002 5.27343C7.96709 5.451 8.10486 5.59875 8.2759 5.69802C8.44694 5.79729 8.64357 5.84361 8.84094 5.83114C9.03831 5.81866 9.22754 5.74794 9.38472 5.62792C9.5419 5.5079 9.65996 5.34397 9.72397 5.15685C9.78799 4.96974 9.79509 4.76785 9.74437 4.5767C9.71068 4.44975 9.65231 4.33068 9.5726 4.22629C9.49289 4.1219 9.39339 4.03423 9.27979 3.9683C9.1662 3.90237 9.04072 3.85947 8.91054 3.84204C8.78036 3.82461 8.64801 3.833 8.52107 3.86672Z" fill="black"/>
<path d="M5.18785 5.86666C4.99672 5.91744 4.82494 6.02375 4.69422 6.17216C4.56351 6.32056 4.47974 6.50439 4.4535 6.7004C4.42725 6.89642 4.45972 7.09581 4.54679 7.27337C4.63386 7.45093 4.77163 7.59869 4.94267 7.69796C5.11371 7.79722 5.31035 7.84355 5.50772 7.83107C5.70508 7.81859 5.89432 7.74787 6.0515 7.62785C6.20867 7.50783 6.32673 7.3439 6.39075 7.15679C6.45476 6.96968 6.46186 6.76778 6.41114 6.57663C6.37746 6.44968 6.31909 6.33061 6.23938 6.22622C6.15966 6.12183 6.06017 6.03417 5.94657 5.96824C5.83297 5.90231 5.7075 5.8594 5.57731 5.84197C5.44713 5.82454 5.31479 5.83293 5.18785 5.86666Z" fill="black"/>
<path d="M5.18785 9.86653C4.99672 9.91731 4.82494 10.0236 4.69422 10.172C4.56351 10.3204 4.47974 10.5043 4.4535 10.7003C4.42725 10.8963 4.45972 11.0957 4.54679 11.2732C4.63386 11.4508 4.77163 11.5986 4.94267 11.6978C5.11371 11.7971 5.31035 11.8434 5.50772 11.8309C5.70508 11.8185 5.89432 11.7477 6.0515 11.6277C6.20867 11.5077 6.32673 11.3438 6.39075 11.1567C6.45476 10.9695 6.46186 10.7677 6.41114 10.5765C6.37746 10.4496 6.31909 10.3305 6.23938 10.2261C6.15966 10.1217 6.06017 10.034 5.94657 9.96811C5.83297 9.90218 5.7075 9.85927 5.57731 9.84184C5.44713 9.82441 5.31479 9.8328 5.18785 9.86653Z" fill="black"/>
<path d="M8.77773 0.504832C7.70442 0.467512 6.63459 0.646687 5.63201 1.03168C4.62944 1.41666 3.71464 1.99958 2.94216 2.74568C2.16969 3.49178 1.55535 4.38578 1.13578 5.37438C0.7162 6.36299 0.499978 7.42595 0.5 8.49991C0.50247 10.6208 1.34609 12.6541 2.8458 14.1538C4.34551 15.6536 6.37884 16.4972 8.49974 16.4996C8.72507 16.4996 8.94639 16.485 9.16639 16.4663C9.33331 16.4522 9.48882 16.3758 9.60198 16.2523C9.71513 16.1288 9.77762 15.9672 9.77703 15.7997L9.7557 13.4077C9.7503 12.9351 9.8859 12.4715 10.1452 12.0763C10.4045 11.681 10.7757 11.372 11.2114 11.1887C11.6471 11.0054 12.1275 10.9561 12.5914 11.0472C13.0553 11.1382 13.4814 11.3654 13.8156 11.6998L13.8822 11.7665C14.0336 11.9191 14.2211 12.031 14.4272 12.0917C14.6334 12.1524 14.8516 12.16 15.0615 12.1138C15.268 12.0704 15.4604 11.9759 15.6208 11.8388C15.7812 11.7016 15.9045 11.5264 15.9795 11.3291C16.3476 10.3627 16.5235 9.33374 16.4975 8.29991C16.4225 6.26932 15.5873 4.34103 14.1574 2.89724C12.7276 1.45346 10.8075 0.59957 8.77773 0.504832ZM14.7655 10.7712L14.7562 10.7618C14.2351 10.2416 13.5711 9.88816 12.8485 9.74643C12.126 9.6047 11.3776 9.6811 10.6986 9.96593C10.0196 10.2507 9.44067 10.7311 9.03547 11.3459C8.63026 11.9607 8.41709 12.6821 8.42308 13.4184L8.43908 15.1664C6.67102 15.1584 4.97855 14.4484 3.73397 13.1926C2.48939 11.9368 1.79467 10.238 1.80262 8.46991C1.81058 6.70185 2.52057 5.00938 3.7764 3.7648C5.03222 2.52022 6.73102 1.8255 8.49907 1.83346C8.57707 1.83346 8.65574 1.83346 8.7344 1.83746C10.4253 1.91687 12.0246 2.62859 13.2155 3.83157C14.4064 5.03454 15.1019 6.64099 15.1642 8.33258C15.1862 9.16161 15.0516 9.98735 14.7675 10.7665L14.7655 10.7712Z" fill="black"/>
</g>
<defs>
<clipPath id="clip0_85_4648">
<rect width="16" height="16" fill="white" transform="translate(0.5 0.5)"/>
</clipPath>
</defs>
</svg>
