<svg width="12" height="12" viewBox="0 0 12 12" fill="none" xmlns="http://www.w3.org/2000/svg">
<g clip-path="url(#clip0_1028_7573)">
<path d="M10 0H2C1.46957 0 0.960859 0.210714 0.585786 0.585786C0.210714 0.960859 0 1.46957 0 2V8C0 8.53043 0.210714 9.03914 0.585786 9.41421C0.960859 9.78929 1.46957 10 2 10H3.45L5.6755 11.8815C5.76578 11.9579 5.88023 11.9998 5.9985 11.9998C6.11677 11.9998 6.23122 11.9579 6.3215 11.8815L8.55 10H10C10.5304 10 11.0391 9.78929 11.4142 9.41421C11.7893 9.03914 12 8.53043 12 8V2C12 1.46957 11.7893 0.960859 11.4142 0.585786C11.0391 0.210714 10.5304 0 10 0ZM11 8C11 8.26522 10.8946 8.51957 10.7071 8.70711C10.5196 8.89464 10.2652 9 10 9H8.55C8.31365 9.00007 8.08496 9.08386 7.9045 9.2365L6 10.845L4.0965 9.2365C3.91578 9.08364 3.6867 8.99984 3.45 9H2C1.73478 9 1.48043 8.89464 1.29289 8.70711C1.10536 8.51957 1 8.26522 1 8V2C1 1.73478 1.10536 1.48043 1.29289 1.29289C1.48043 1.10536 1.73478 1 2 1H10C10.2652 1 10.5196 1.10536 10.7071 1.29289C10.8946 1.48043 11 1.73478 11 2V8Z" fill="#314158"/>
<path d="M3.5 3.50006H6C6.13261 3.50006 6.25979 3.44738 6.35355 3.35361C6.44732 3.25984 6.5 3.13267 6.5 3.00006C6.5 2.86745 6.44732 2.74028 6.35355 2.64651C6.25979 2.55274 6.13261 2.50006 6 2.50006H3.5C3.36739 2.50006 3.24021 2.55274 3.14645 2.64651C3.05268 2.74028 3 2.86745 3 3.00006C3 3.13267 3.05268 3.25984 3.14645 3.35361C3.24021 3.44738 3.36739 3.50006 3.5 3.50006Z" fill="#314158"/>
<path d="M8.5 4.5H3.5C3.36739 4.5 3.24021 4.55268 3.14645 4.64645C3.05268 4.74021 3 4.86739 3 5C3 5.13261 3.05268 5.25978 3.14645 5.35355C3.24021 5.44732 3.36739 5.5 3.5 5.5H8.5C8.63261 5.5 8.75979 5.44732 8.85355 5.35355C8.94732 5.25978 9 5.13261 9 5C9 4.86739 8.94732 4.74021 8.85355 4.64645C8.75979 4.55268 8.63261 4.5 8.5 4.5Z" fill="#314158"/>
<path d="M8.5 6.49994H3.5C3.36739 6.49994 3.24021 6.55262 3.14645 6.64639C3.05268 6.74016 3 6.86733 3 6.99994C3 7.13255 3.05268 7.25973 3.14645 7.3535C3.24021 7.44727 3.36739 7.49994 3.5 7.49994H8.5C8.63261 7.49994 8.75979 7.44727 8.85355 7.3535C8.94732 7.25973 9 7.13255 9 6.99994C9 6.86733 8.94732 6.74016 8.85355 6.64639C8.75979 6.55262 8.63261 6.49994 8.5 6.49994Z" fill="#314158"/>
</g>
<defs>
<clipPath id="clip0_1028_7573">
<rect width="12" height="12" fill="white"/>
</clipPath>
</defs>
</svg>
