<svg width="24" height="24" viewBox="0 0 24 24" fill="none" xmlns="http://www.w3.org/2000/svg">
<g clip-path="url(#clip0_3062_13386)">
<path fill-rule="evenodd" clip-rule="evenodd" d="M1.3259 2.65929L22.6448 2.73109C23.3792 2.73375 23.9769 2.13984 23.9796 1.40588C23.9823 0.67192 23.388 0.0744685 22.6537 0.0718093L1.33477 8.89567e-06C0.601312 -0.00265038 0.00266462 0.591255 3.96671e-06 1.32522C-0.0017698 2.05918 0.591556 2.65663 1.3259 2.65929Z" fill="black"/>
<path fill-rule="evenodd" clip-rule="evenodd" d="M1.3259 23.9282L22.6448 24C23.3792 24.0026 23.9769 23.4087 23.9796 22.6748C23.9823 21.9408 23.388 21.3434 22.6537 21.3407L1.33477 21.2689C0.601312 21.2671 0.00266466 21.8602 4.009e-06 22.5941C-0.00176976 23.3281 0.591556 23.9264 1.3259 23.9282Z" fill="black"/>
<path fill-rule="evenodd" clip-rule="evenodd" d="M1.34629 13.3416L22.6652 13.4134C23.3996 13.4161 23.9973 12.8222 24 12.0882C24.0026 11.3542 23.4084 10.7568 22.6741 10.7541L1.35605 10.6823C0.62171 10.6797 0.023063 11.2736 0.0204024 12.0075C0.0186286 12.7415 0.612841 13.3389 1.34629 13.3416Z" fill="black"/>
<path fill-rule="evenodd" clip-rule="evenodd" d="M1.37024 18.6947H12.0129C12.7472 18.6947 13.3432 18.0991 13.3432 17.3651C13.3432 16.6311 12.7472 16.0355 12.0129 16.0355H1.37024C0.6359 16.0355 0.0399139 16.6311 0.0399139 17.3651C0.0399139 18.0991 0.6359 18.6947 1.37024 18.6947Z" fill="black"/>
<path fill-rule="evenodd" clip-rule="evenodd" d="M1.37024 8.05762H12.0129C12.7472 8.05762 13.3432 7.46194 13.3432 6.72798C13.3432 5.99402 12.7472 5.39834 12.0129 5.39834H1.37024C0.6359 5.39834 0.0399139 5.99402 0.0399139 6.72798C0.0399139 7.46194 0.6359 8.05762 1.37024 8.05762Z" fill="black"/>
</g>
<defs>
<clipPath id="clip0_3062_13386">
<rect width="24" height="24" fill="white"/>
</clipPath>
</defs>
</svg>
