<svg width="16" height="16" viewBox="0 0 16 16" fill="none" xmlns="http://www.w3.org/2000/svg">
<path fill-rule="evenodd" clip-rule="evenodd" d="M5.33325 4H13.3333V14.6667H5.33325V4ZM13.3333 2.66667C14.0696 2.66667 14.6666 3.26362 14.6666 4V14.6667C14.6666 15.403 14.0696 16 13.3333 16H5.33325C4.59687 16 3.99992 15.403 3.99992 14.6667V4C3.99992 3.26362 4.59687 2.66667 5.33325 2.66667H13.3333Z" fill="#052F4A"/>
<path fill-rule="evenodd" clip-rule="evenodd" d="M1.33325 0.666667C1.33325 0.298477 1.63173 0 1.99992 0H7.33325C7.70144 0 7.99992 0.298477 7.99992 0.666667C7.99992 1.03486 7.70144 1.33333 7.33325 1.33333H2.66659V7.33333C2.66659 7.70152 2.36811 8 1.99992 8C1.63173 8 1.33325 7.70152 1.33325 7.33333V0.666667Z" fill="#052F4A"/>
</svg>
