<svg width="12" height="12" viewBox="0 0 12 12" fill="none" xmlns="http://www.w3.org/2000/svg">
<g clip-path="url(#clip0_1028_7569)">
<path d="M11.5845 8.0555L9.7355 6.1995C9.407 5.8705 8.936 5.708 8.4765 5.7715L6.94 5.974C6.39 6.047 5.959 6.5015 5.915 7.054L5.796 8.5435C5.7615 8.981 5.919 9.41 6.2285 9.721L8.0825 11.5825C8.35 11.8485 8.7045 11.995 9.0815 11.995C9.0835 11.995 9.0855 11.995 9.0875 11.995C9.467 11.9935 9.8225 11.844 10.089 11.574L11.5915 10.052C12.1375 9.4995 12.1335 8.603 11.5845 8.0555ZM10.88 9.35L9.3775 10.8715C9.299 10.951 9.1945 10.995 9.0835 10.9955H9.082C8.971 10.9955 8.867 10.952 8.79 10.8755L6.9375 9.0155C6.834 8.912 6.7815 8.769 6.7935 8.623L6.9125 7.1335C6.9195 7.0475 6.9865 6.977 7.072 6.9655C7.072 6.9655 8.651 6.7585 8.6725 6.7585C8.8045 6.7585 8.9335 6.8115 9.0275 6.906L10.8775 8.763C11.0395 8.924 11.0405 9.1875 10.88 9.35ZM9 8.25C9 8.664 8.664 9 8.25 9C7.836 9 7.5 8.664 7.5 8.25C7.5 7.836 7.836 7.5 8.25 7.5C8.664 7.5 9 7.836 9 8.25ZM4 6C5.6545 6 7 4.6545 7 3C7 1.3455 5.6545 0 4 0C2.3455 0 1 1.3455 1 3C1 4.6545 2.3455 6 4 6ZM4 1C5.103 1 6 1.897 6 3C6 4.103 5.103 5 4 5C2.897 5 2 4.103 2 3C2 1.897 2.897 1 4 1ZM5 7.5C5 7.7765 4.776 8 4.5 8C2.57 8 1 9.5705 1 11.5C1 11.7765 0.776 12 0.5 12C0.224 12 0 11.7765 0 11.5C0 9.0185 2.019 7 4.5 7C4.776 7 5 7.2235 5 7.5Z" fill="#314158"/>
</g>
<defs>
<clipPath id="clip0_1028_7569">
<rect width="12" height="12" fill="white"/>
</clipPath>
</defs>
</svg>
