<svg width="24" height="24" viewBox="0 0 24 24" fill="none" xmlns="http://www.w3.org/2000/svg">
<g clip-path="url(#clip0_3062_13378)">
<path d="M13.8565 20.5714H4.36866C2.51058 20.5714 1 19.1871 1 17.4867V8.22602H22.7143V13.4599C21.9263 13.182 21.115 13.043 20.3007 13.0463C16.6424 13.0463 13.6674 15.7719 13.6674 19.1233C13.6679 19.6166 13.7319 20.1077 13.8565 20.5714ZM10.7348 15.0853V17.1434H12.9806V15.0853H10.7348ZM5.49273 15.0853V17.1434H7.73733V15.0853H5.49273ZM15.9758 10.9707V13.0288H18.2216V10.9707H15.9758ZM10.7337 10.9707V13.0288H12.9794V10.9707H10.7337ZM5.49155 10.9707V13.0288H7.73733V10.9707H5.49155ZM22.7131 6.17111H1V5.14286C1 3.44241 2.51176 2.0581 4.36866 2.0581H5.49155V0H7.73733V2.0581H10.7348V0H12.9806V2.0581H15.9758V0H18.2216V2.0581H19.3433C21.2013 2.0581 22.7131 3.44241 22.7131 5.14286V6.17111Z" fill="black"/>
<path d="M20.4286 24C22.9495 24 25 21.9493 25 19.4278C25 16.9064 22.9495 14.8571 20.4286 14.8571C17.9076 14.8571 15.8571 16.9079 15.8571 19.4278C15.8571 21.9478 17.9076 24 20.4286 24ZM20.2812 15.6015C20.4917 15.5927 20.6444 15.7486 20.6507 15.9458L20.7559 19.1057L21.9369 18.1671C22.0154 18.107 22.1048 18.0803 22.194 18.0902C22.2832 18.1001 22.3684 18.1463 22.439 18.223C22.4675 18.2555 22.4894 18.2977 22.5025 18.3456C22.5157 18.3936 22.5196 18.4455 22.514 18.4962C22.5083 18.5469 22.4933 18.5946 22.4704 18.6347C22.4474 18.6748 22.4174 18.7058 22.3832 18.7247L20.6517 20.109C20.5834 20.1613 20.5065 20.1882 20.4286 20.1869C20.3778 20.1867 20.3273 20.1753 20.2791 20.1531C20.2255 20.1372 20.1766 20.0988 20.139 20.0431C20.1014 19.9874 20.0768 19.917 20.0686 19.8412L19.937 15.9708C19.9296 15.7736 20.0844 15.6074 20.2812 15.6015Z" fill="black"/>
</g>
<defs>
<clipPath id="clip0_3062_13378">
<rect width="24" height="24" fill="white"/>
</clipPath>
</defs>
</svg>
