<svg width="24" height="24" viewBox="0 0 24 24" fill="none" xmlns="http://www.w3.org/2000/svg">
<g clip-path="url(#clip0_3062_13384)">
<path d="M0 7.19851V5.99907C0 4.01366 1.67035 2.39888 3.72414 2.39888H4.96552V0H7.44827V2.39888H10.7586V0H13.2414V2.39888H16.5517V0H19.0345V2.39888H20.2759C22.3297 2.39888 24 4.01366 24 5.99907V7.19851H0ZM24 9.59739V20.3998C24 22.3852 22.3297 24 20.2759 24H3.72414C1.67035 24 0 22.3852 0 20.3998V9.59739H24ZM7.44827 17.5949H4.96552V19.9938H7.44827V17.5949ZM7.44827 12.7953H4.96552V15.1979H7.44827V12.7953ZM13.2414 17.5949H10.7586V19.9938H13.2414V17.5949ZM13.2414 12.7953H10.7586V15.1979H13.2414V12.7953ZM19.0345 17.5949H16.5517V19.9938H19.0345V17.5949ZM19.0345 12.7953H16.5517V15.1979H19.0345V12.7953Z" fill="black"/>
</g>
<defs>
<clipPath id="clip0_3062_13384">
<rect width="24" height="24" fill="white"/>
</clipPath>
</defs>
</svg>
