<svg width="24" height="24" viewBox="0 0 24 24" fill="none" xmlns="http://www.w3.org/2000/svg">
<path fill-rule="evenodd" clip-rule="evenodd" d="M17 8H7V20H17V8ZM7 6C5.89543 6 5 6.89543 5 8V20C5 21.1046 5.89543 22 7 22H17C18.1046 22 19 21.1046 19 20V8C19 6.89543 18.1046 6 17 6H7Z" fill="black"/>
<path fill-rule="evenodd" clip-rule="evenodd" d="M15 4H9V6H15V4ZM9 2C7.89543 2 7 2.89543 7 4V6C7 7.10457 7.89543 8 9 8H15C16.1046 8 17 7.10457 17 6V4C17 2.89543 16.1046 2 15 2H9Z" fill="black"/>
<path fill-rule="evenodd" clip-rule="evenodd" d="M10 10C10.5523 10 11 10.4477 11 11V16C11 16.5523 10.5523 17 10 17C9.44771 17 9 16.5523 9 16V11C9 10.4477 9.44772 10 10 10Z" fill="black"/>
<path fill-rule="evenodd" clip-rule="evenodd" d="M14 10C14.5523 10 15 10.4477 15 11V16C15 16.5523 14.5523 17 14 17C13.4477 17 13 16.5523 13 16V11C13 10.4477 13.4477 10 14 10Z" fill="black"/>
<path fill-rule="evenodd" clip-rule="evenodd" d="M2 7C2 6.44772 2.44772 6 3 6H21C21.5523 6 22 6.44772 22 7C22 7.55228 21.5523 8 21 8H3C2.44772 8 2 7.55228 2 7Z" fill="black"/>
</svg>
