<svg width="28" height="28" viewBox="0 0 28 28" fill="none" xmlns="http://www.w3.org/2000/svg">
<path d="M27.83 17.6704L12.6631 2.50365C12.4963 2.338 12.2455 2.2878 12.0273 2.37765C11.8091 2.4675 11.6668 2.68101 11.6668 2.91665V23.9167C11.6668 24.1372 11.7916 24.339 11.9888 24.4382C12.1859 24.5362 12.4228 24.5152 12.5989 24.3833L16.7068 21.3022L19.8942 27.6769C19.998 27.8822 20.2033 28 20.4168 28C20.5043 28 20.593 27.9801 20.6782 27.9381L25.3449 25.6048C25.633 25.4601 25.7497 25.1101 25.6062 24.8219L22.5274 18.6666H27.4169C27.6525 18.6666 27.8661 18.5242 27.9559 18.3061C28.0458 18.088 27.9956 17.8384 27.83 17.6704Z" fill="black"/>
<path d="M6.41676 18.6667H4.08339C3.76139 18.6667 3.50003 18.928 3.50003 19.25C3.50003 19.572 3.76139 19.8334 4.08339 19.8334H6.41676C6.73876 19.8334 7.00012 19.572 7.00012 19.25C7.00006 18.928 6.73876 18.6667 6.41676 18.6667Z" fill="black"/>
<path d="M11.0835 18.6667H8.75008C8.42808 18.6667 8.16672 18.928 8.16672 19.25C8.16672 19.572 8.42808 19.8334 8.75008 19.8334H11.0835C11.4055 19.8334 11.6668 19.572 11.6668 19.25C11.6668 18.928 11.4055 18.6667 11.0835 18.6667Z" fill="black"/>
<path d="M1.75002 18.6667H1.16671V18.0833C1.16671 17.7613 0.90536 17.5 0.583357 17.5C0.261354 17.5 0 17.7613 0 18.0833V19.25C0 19.572 0.261354 19.8334 0.583357 19.8334H1.75002C2.07202 19.8334 2.33337 19.572 2.33337 19.25C2.33337 18.928 2.07202 18.6667 1.75002 18.6667Z" fill="black"/>
<path d="M0.583357 12.8334C0.261354 12.8334 0 13.0947 0 13.4167V15.75C0 16.072 0.261354 16.3334 0.583357 16.3334C0.90536 16.3334 1.16671 16.072 1.16671 15.75V13.4167C1.16671 13.0947 0.90536 12.8334 0.583357 12.8334Z" fill="black"/>
<path d="M0.583357 3.50001C0.261354 3.50001 0 3.76136 0 4.08336V6.41672C0 6.73872 0.261354 7.00007 0.583357 7.00007C0.90536 7.00007 1.16671 6.73872 1.16671 6.41672V4.08336C1.16671 3.76136 0.90536 3.50001 0.583357 3.50001Z" fill="black"/>
<path d="M0.583357 8.16666C0.261354 8.16666 0 8.42802 0 8.75002V11.0834C0 11.4054 0.261354 11.6667 0.583357 11.6667C0.90536 11.6667 1.16671 11.4054 1.16671 11.0834V8.75002C1.16671 8.42802 0.90536 8.16666 0.583357 8.16666Z" fill="black"/>
<path d="M1.75002 0H0.583357C0.261354 0 0 0.261352 0 0.583353V1.75C0 2.072 0.261354 2.33336 0.583357 2.33336C0.90536 2.33336 1.16671 2.072 1.16671 1.75V1.16665H1.75007C2.07207 1.16665 2.33343 0.905299 2.33343 0.583298C2.33343 0.261297 2.07202 0 1.75002 0Z" fill="black"/>
<path d="M6.41676 0H4.08339C3.76139 0 3.50003 0.261352 3.50003 0.583353C3.50003 0.905353 3.76139 1.16671 4.08339 1.16671H6.41676C6.73876 1.16671 7.00012 0.905353 7.00012 0.583353C7.00012 0.261352 6.73876 0 6.41676 0Z" fill="black"/>
<path d="M11.0835 0H8.75008C8.42808 0 8.16672 0.261352 8.16672 0.583353C8.16672 0.905353 8.42808 1.16671 8.75008 1.16671H11.0835C11.4055 1.16671 11.6668 0.905353 11.6668 0.583353C11.6668 0.261352 11.4055 0 11.0835 0Z" fill="black"/>
<path d="M15.7501 0H13.4168C13.0948 0 12.8334 0.261352 12.8334 0.583353C12.8334 0.905353 13.0948 1.16671 13.4168 1.16671H15.7501C16.0721 1.16671 16.3335 0.905353 16.3335 0.583353C16.3335 0.261352 16.0721 0 15.7501 0Z" fill="black"/>
<path d="M19.2502 0H18.0835C17.7615 0 17.5002 0.261352 17.5002 0.583353C17.5002 0.905353 17.7615 1.16671 18.0835 1.16671H18.6669V1.75C18.6669 2.072 18.9282 2.33336 19.2502 2.33336C19.5722 2.33336 19.8336 2.072 19.8336 1.75V0.583353C19.8335 0.261352 19.5722 0 19.2502 0Z" fill="black"/>
<path d="M19.2502 3.50001C18.9282 3.50001 18.6668 3.76136 18.6668 4.08336V6.41672C18.6668 6.73872 18.9282 7.00007 19.2502 7.00007C19.5722 7.00007 19.8335 6.73872 19.8335 6.41672V4.08336C19.8335 3.76136 19.5722 3.50001 19.2502 3.50001Z" fill="black"/>
<path d="M19.2502 8.16666C18.9282 8.16666 18.6668 8.42802 18.6668 8.75002V9.91667C18.6668 10.2387 18.9282 10.5 19.2502 10.5C19.5722 10.5 19.8335 10.2387 19.8335 9.91667V8.75002C19.8335 8.42802 19.5722 8.16666 19.2502 8.16666Z" fill="black"/>
</svg>
