<svg width="24" height="24" viewBox="0 0 24 24" fill="none" xmlns="http://www.w3.org/2000/svg">
<path fill-rule="evenodd" clip-rule="evenodd" d="M0.742994 19.4201C0.49101 19.3308 0.353133 19.038 0.436335 18.7666C0.500807 18.6208 0.594814 18.5102 0.704427 18.451C0.81404 18.3918 0.933427 18.3873 1.0449 18.438L4.24223 19.5736C5.95396 20.1766 7.74272 20.0674 9.41621 19.2576L11.4713 18.2362C13.1248 17.4348 14.9048 17.4404 16.5561 18.2523L18.5316 19.2487C19.1886 19.5921 19.8929 19.6802 20.5787 19.5047C21.2645 19.3292 21.9096 18.8959 22.454 18.2452C22.7157 17.9311 22.9033 17.4989 22.9889 17.0124C23.0745 16.5259 23.0537 16.0109 22.9294 15.5436C22.753 15.032 22.5004 14.5885 22.1911 14.2478C21.8818 13.9071 21.5243 13.6783 21.1465 13.5794L18.7574 12.7241C18.5054 12.6331 18.3687 12.3402 18.4531 12.0688C18.5179 11.9236 18.612 11.8135 18.7216 11.7547C18.8311 11.6959 18.9503 11.6914 19.0617 11.7421L21.4508 12.5973C21.9599 12.7325 22.4413 13.0426 22.8574 13.5035C23.2735 13.9644 23.613 14.5636 23.8494 15.2543C24.0171 15.8834 24.0456 16.577 23.9306 17.2323C23.8157 17.8877 23.5634 18.47 23.2111 18.8933C22.5048 19.7379 21.6677 20.3002 20.7778 20.5278C19.8879 20.7554 18.9741 20.6409 18.1215 20.195L16.1461 19.1987C14.7589 18.5163 13.2634 18.5113 11.8742 19.1844L9.81915 20.2057C7.91679 21.1255 5.88352 21.249 3.93795 20.5629L0.742994 19.4201ZM0.889192 13.7598L3.57067 16.6417L1.55005 17.5345C1.34709 17.6315 1.1324 17.6601 0.921235 17.6185C0.710066 17.5768 0.507588 17.4659 0.328172 17.2934C0.180689 17.1693 0.071751 16.9628 0.0250167 16.7188C-0.0217176 16.4747 -0.00247476 16.2128 0.0785663 15.99L0.889192 13.7598ZM1.47755 12.9402L11.3726 2.30344C11.5753 2.10541 11.8119 2 12.0537 2C12.2955 2 12.5321 2.10541 12.7348 2.30344L14.2265 3.91047C14.3121 3.9845 14.3833 4.09116 14.4328 4.21969C14.4823 4.34822 14.5083 4.49408 14.5083 4.64256C14.5083 4.79104 14.4823 4.93689 14.4328 5.06542C14.3833 5.19395 14.3121 5.30061 14.2265 5.37465L4.33257 16.0078L1.47755 12.9402Z" fill="black"/>
</svg>
