<svg width="24" height="24" viewBox="0 0 24 24" fill="none" xmlns="http://www.w3.org/2000/svg">
<path d="M21 5.71598V6H14.6667V0H14.9665C15.2814 0 15.5834 0.118517 15.8061 0.32948L20.6522 4.92047C20.8749 5.13145 21 5.41761 21 5.71598ZM14.2708 7.5C13.6177 7.5 13.0833 6.99375 13.0833 6.375V0H3.1875C2.53165 0 2 0.503672 2 1.125V22.875C2 23.4963 2.53165 24 3.1875 24H19.8125C20.4683 24 21 23.4963 21 22.875V7.5H14.2708ZM7.56863 8.25C8.88033 8.25 9.94363 9.25734 9.94363 10.5C9.94363 11.7427 8.88033 12.75 7.56863 12.75C6.25694 12.75 5.19363 11.7427 5.19363 10.5C5.19363 9.25734 6.25699 8.25 7.56863 8.25ZM17.8603 19.5H5.19363L5.21763 17.2273L7.1728 15.375C7.40466 15.1553 7.7566 15.1781 7.98846 15.3977L9.94363 17.25L15.0655 12.3977C15.2973 12.1781 15.6733 12.1781 15.9052 12.3977L17.8603 14.25V19.5Z" fill="black"/>
</svg>
