<svg width="23" height="24" viewBox="0 0 23 24" fill="none" xmlns="http://www.w3.org/2000/svg">
<g id="Vector">
<path d="M0.958333 5.05223H3.58033C3.78603 5.80904 4.23504 6.47714 4.8581 6.95346C5.48117 7.42978 6.24366 7.68784 7.02794 7.68784C7.81222 7.68784 8.57471 7.42978 9.19777 6.95346C9.82083 6.47714 10.2698 5.80904 10.4755 5.05223H22.0417C22.2958 5.05223 22.5396 4.95127 22.7193 4.77155C22.899 4.59183 23 4.34808 23 4.09392C23 3.83976 22.899 3.59601 22.7193 3.41629C22.5396 3.23657 22.2958 3.13561 22.0417 3.13561H10.4755C10.2698 2.3788 9.82083 1.7107 9.19777 1.23438C8.57471 0.758065 7.81222 0.5 7.02794 0.5C6.24366 0.5 5.48117 0.758065 4.8581 1.23438C4.23504 1.7107 3.78603 2.3788 3.58033 3.13561H0.958333C0.704168 3.13561 0.460412 3.23657 0.280689 3.41629C0.100967 3.59601 0 3.83976 0 4.09392C0 4.34808 0.100967 4.59183 0.280689 4.77155C0.460412 4.95127 0.704168 5.05223 0.958333 5.05223ZM7.02746 2.41687C7.35915 2.41687 7.6834 2.51523 7.9592 2.69951C8.23499 2.88378 8.44995 3.1457 8.57688 3.45214C8.70382 3.75858 8.73703 4.09578 8.67232 4.4211C8.60761 4.74641 8.44788 5.04523 8.21334 5.27977C7.97879 5.51431 7.67996 5.67403 7.35464 5.73874C7.02932 5.80345 6.69211 5.77024 6.38567 5.64331C6.07922 5.51638 5.8173 5.30143 5.63301 5.02564C5.44873 4.74985 5.35038 4.42561 5.35038 4.09392C5.35088 3.6493 5.52774 3.22303 5.84214 2.90863C6.15655 2.59423 6.58282 2.41738 7.02746 2.41687Z" fill="white"/>
<path d="M22.0417 11.0417H19.4197C19.2143 10.2847 18.7655 9.61636 18.1425 9.13985C17.5195 8.66333 16.7569 8.40514 15.9725 8.40514C15.1882 8.40514 14.4256 8.66333 13.8026 9.13985C13.1796 9.61636 12.7308 10.2847 12.5254 11.0417H0.958333C0.704168 11.0417 0.460412 11.1427 0.280689 11.3224C0.100967 11.5021 0 11.7458 0 12C0 12.2542 0.100967 12.4979 0.280689 12.6776C0.460412 12.8573 0.704168 12.9583 0.958333 12.9583H12.5254C12.7308 13.7153 13.1796 14.3836 13.8026 14.8602C14.4256 15.3367 15.1882 15.5949 15.9725 15.5949C16.7569 15.5949 17.5195 15.3367 18.1425 14.8602C18.7655 14.3836 19.2143 13.7153 19.4197 12.9583H22.0417C22.2958 12.9583 22.5396 12.8573 22.7193 12.6776C22.899 12.4979 23 12.2542 23 12C23 11.7458 22.899 11.5021 22.7193 11.3224C22.5396 11.1427 22.2958 11.0417 22.0417 11.0417ZM15.9725 13.677C15.6408 13.677 15.3166 13.5787 15.0408 13.3944C14.765 13.2101 14.5501 12.9482 14.4231 12.6418C14.2962 12.3353 14.263 11.9981 14.3277 11.6728C14.3924 11.3475 14.5521 11.0487 14.7867 10.8141C15.0212 10.5796 15.32 10.4199 15.6454 10.3552C15.9707 10.2905 16.3079 10.3237 16.6143 10.4506C16.9208 10.5775 17.1827 10.7925 17.367 11.0683C17.5513 11.3441 17.6496 11.6683 17.6496 12C17.6491 12.4446 17.4723 12.8709 17.1579 13.1853C16.8435 13.4997 16.4172 13.6765 15.9725 13.677Z" fill="white"/>
<path d="M22.0417 18.9478H10.4755C10.2698 18.191 9.82083 17.5229 9.19777 17.0465C8.57471 16.5702 7.81222 16.3122 7.02794 16.3122C6.24366 16.3122 5.48117 16.5702 4.8581 17.0465C4.23504 17.5229 3.78603 18.191 3.58033 18.9478H0.958333C0.704168 18.9478 0.460412 19.0487 0.280689 19.2284C0.100967 19.4082 0 19.6519 0 19.9061C0 20.1602 0.100967 20.404 0.280689 20.5837C0.460412 20.7634 0.704168 20.8644 0.958333 20.8644H3.58033C3.78603 21.6212 4.23504 22.2893 4.8581 22.7656C5.48117 23.2419 6.24366 23.5 7.02794 23.5C7.81222 23.5 8.57471 23.2419 9.19777 22.7656C9.82083 22.2893 10.2698 21.6212 10.4755 20.8644H22.0417C22.2958 20.8644 22.5396 20.7634 22.7193 20.5837C22.899 20.404 23 20.1602 23 19.9061C23 19.6519 22.899 19.4082 22.7193 19.2284C22.5396 19.0487 22.2958 18.9478 22.0417 18.9478ZM7.02746 21.5831C6.69576 21.5831 6.37152 21.4848 6.09572 21.3005C5.81993 21.1162 5.60497 20.8543 5.47804 20.5479C5.3511 20.2414 5.31789 19.9042 5.3826 19.5789C5.44731 19.2536 5.60704 18.9548 5.84158 18.7202C6.07613 18.4857 6.37495 18.326 6.70028 18.2613C7.0256 18.1965 7.3628 18.2298 7.66925 18.3567C7.9757 18.4836 8.23762 18.6986 8.4219 18.9744C8.60618 19.2501 8.70454 19.5744 8.70454 19.9061C8.70378 20.3506 8.52685 20.7767 8.2125 21.0911C7.89815 21.4054 7.47202 21.5824 7.02746 21.5831Z" fill="white"/>
</g>
</svg>
