<svg width="16" height="17" viewBox="0 0 16 17" fill="none" xmlns="http://www.w3.org/2000/svg">
<g id="Group">
<path id="Vector" d="M5.74002 8.39741C5.99143 8.76122 5.91627 8.45807 5.91627 15.7098C5.91627 16.3588 6.65665 16.7302 7.17846 16.342C9.40824 14.6609 9.85374 14.5153 9.85374 13.7289C9.85374 8.44441 9.79215 8.7416 10.03 8.39741L13.6509 3.46872H2.11914L5.74002 8.39741Z" fill="#1A1918"/>
<path id="Vector_2" d="M15.019 0.901875C14.8896 0.654063 14.6358 0.5 14.3565 0.5H1.41411C0.810828 0.5 0.455859 1.18053 0.801922 1.675C0.804766 1.67975 0.762641 1.62209 1.43067 2.53125H14.3399C14.9092 1.75647 15.2897 1.42172 15.019 0.901875Z" fill="#1A1918"/>
</g>
</svg>
