<svg width="24" height="24" viewBox="0 0 24 24" fill="none" xmlns="http://www.w3.org/2000/svg">
<g clip-path="url(#clip0_4052_239)">
<path fill-rule="evenodd" clip-rule="evenodd" d="M12.0535 24C18.7105 24 24.107 18.6274 24.107 12C24.107 5.37258 18.7105 0 12.0535 0C5.39655 0 0 5.37258 0 12C0 18.6274 5.39655 24 12.0535 24ZM17.962 6.72151C17.8581 6.52326 17.6542 6.40001 17.4297 6.40001H7.02966C6.54489 6.40001 6.25965 6.94444 6.53773 7.34001L6.53788 7.34034C6.53797 7.34085 6.53832 7.34132 6.71646 7.58265C6.79042 7.68285 6.89502 7.82455 7.04297 8.02501H17.4164C17.4882 7.92764 17.5563 7.83896 17.6193 7.75703C17.957 7.3174 18.1454 7.07206 17.962 6.72151ZM10.5215 12.74C10.5358 12.7604 10.5486 12.7786 10.5601 12.7976C10.6612 12.9646 10.6605 13.1933 10.6534 15.4282C10.6509 16.2051 10.6477 17.2245 10.6477 18.568C10.6477 19.0871 11.2426 19.3842 11.6619 19.0737C11.9985 18.8211 12.2845 18.6118 12.5271 18.4343C13.5756 17.667 13.8117 17.4942 13.8117 16.9833C13.8117 16.1065 13.8096 15.4218 13.8079 14.8847C13.8025 13.1623 13.8019 12.9586 13.8914 12.8087C13.9034 12.7886 13.917 12.7694 13.9324 12.7477C13.9391 12.7384 13.946 12.7286 13.9533 12.7181L16.863 8.77514H7.59645L10.5061 12.7181C10.5114 12.7257 10.5165 12.733 10.5215 12.74Z" fill="black"/>
</g>
<defs>
<clipPath id="clip0_4052_239">
<rect width="24" height="24" fill="white"/>
</clipPath>
</defs>
</svg>
