<svg width="25" height="24" viewBox="0 0 25 24" fill="none" xmlns="http://www.w3.org/2000/svg">
<g clip-path="url(#clip0_631_1509)">
<path d="M23.4141 14.9985H22.7471C22.4971 14.9985 22.2492 15.0175 22.0022 15.0555L14.9565 9.77252L16.6444 8.15683C17.0434 7.7749 17.0574 7.14102 16.6754 6.7431C16.2924 6.34417 15.6584 6.33117 15.2614 6.7121L11.0886 10.7063C10.8806 10.9143 10.5976 11.0213 10.3007 10.9963C10.0027 10.9723 9.74067 10.8213 9.56168 10.5714C9.28769 10.1914 9.37169 9.59655 9.72968 9.23762L14.4325 4.80946C15.3234 3.97262 16.7164 3.76766 17.8063 4.31456L20.1222 5.47234C20.8122 5.81727 21.5862 5.99924 22.3571 5.99924H23.4131C23.9661 5.99924 24.4131 5.55232 24.4131 4.99943C24.4131 4.44653 23.9661 3.99962 23.4131 3.99962H22.3571C21.8942 3.99962 21.4292 3.89064 21.0152 3.68368L18.7013 2.5259C16.8774 1.61307 14.5485 1.95201 13.0605 3.35374L12.4426 3.93563L11.7426 3.29775C10.8236 2.46091 9.63368 2 8.35273 2C7.58176 2 6.8128 2.18197 6.12582 2.5249L3.81192 3.68268C3.39694 3.88964 2.93196 3.99862 2.46898 3.99862H1.41502C0.862044 3.99862 0.415062 4.44553 0.415062 4.99843C0.415062 5.55132 0.862044 5.99824 1.41502 5.99824H2.47098C3.24194 5.99824 4.01591 5.81527 4.70688 5.47134L7.02279 4.31356C8.04474 3.79966 9.48069 3.93863 10.3966 4.77547L10.9836 5.31037L8.33773 7.8019C7.26478 8.87369 7.09378 10.5684 7.93975 11.7391C8.45973 12.462 9.49269 12.9979 10.3836 12.9979C11.1766 12.9979 11.9376 12.686 12.4876 12.1351L13.4935 11.1723L19.8393 15.9303C19.8083 15.9523 13.6415 20.5755 13.6415 20.5755C12.9185 21.1374 11.9096 21.1374 11.1716 20.5645L5.08087 15.9973C4.2219 15.3525 3.15595 14.9975 2.08099 14.9975H1.41402C0.861044 14.9975 0.414062 15.4444 0.414062 15.9973C0.414062 16.5502 0.861044 16.9971 1.41402 16.9971H2.08099C2.72597 16.9971 3.36494 17.2101 3.88092 17.597L9.95767 22.1542C10.6826 22.7181 11.5516 23 12.4186 23C13.2805 23 14.1415 22.7211 14.8555 22.1652L20.9482 17.598C21.4632 17.2111 22.1022 16.9981 22.7471 16.9981H23.4141C23.9671 16.9981 24.4141 16.5512 24.4141 15.9983C24.4141 15.4454 23.9671 14.9985 23.4141 14.9985Z" fill="black"/>
</g>
<defs>
<clipPath id="clip0_631_1509">
<rect width="24" height="24" fill="white" transform="translate(0.414062)"/>
</clipPath>
</defs>
</svg>
