<svg width="24" height="24" viewBox="0 0 24 24" fill="none" xmlns="http://www.w3.org/2000/svg">
<g clip-path="url(#clip0_3062_13385)">
<path d="M12.0007 24C18.6184 24 24 18.616 24 12C24 5.38402 18.6184 0 12.0007 0C5.38298 0 0 5.38402 0 12C0 18.616 5.38432 24 12.0007 24ZM11.6141 1.95171C12.1679 1.92927 12.5665 2.33868 12.5839 2.85652L12.8729 11.1531L15.959 8.68733C16.1651 8.52925 16.3999 8.459 16.6343 8.48524C16.8687 8.51149 17.0925 8.63308 17.278 8.83502C17.3525 8.92046 17.4098 9.03163 17.4442 9.15752C17.4786 9.2834 17.4888 9.41965 17.474 9.55278C17.4591 9.68592 17.4196 9.81132 17.3594 9.91659C17.2993 10.0219 17.2205 10.1033 17.1308 10.153L12.5826 13.7835C12.4032 13.9213 12.2014 13.9921 11.9967 13.9891C11.8636 13.9893 11.7313 13.9603 11.6047 13.9031C11.4662 13.8585 11.3405 13.7568 11.2439 13.6111C11.1473 13.4654 11.0842 13.2825 11.0629 13.0862L10.7098 2.92195C10.691 2.40411 11.0964 1.96853 11.6141 1.95171Z" fill="black"/>
</g>
<defs>
<clipPath id="clip0_3062_13385">
<rect width="24" height="24" fill="white"/>
</clipPath>
</defs>
</svg>
