<svg width="24" height="24" viewBox="0 0 24 24" fill="none" xmlns="http://www.w3.org/2000/svg">
<path d="M23.8215 11.6968C22.8553 9.64206 21.4402 7.82077 19.6764 6.36201L22.7085 3.38862L21.2934 2L18.0003 5.22639C16.1777 4.1925 14.1057 3.65644 12.0002 3.674C4.49999 3.674 1.0569 9.81395 0.178876 11.6968C0.0610111 11.9492 0 12.2234 0 12.501C0 12.7785 0.0610111 13.0528 0.178876 13.3051C1.14504 15.3599 2.56016 17.1812 4.32398 18.64L1.2929 21.6133L2.70694 23L6.00003 19.7736C7.82271 20.8075 9.89461 21.3436 12.0002 21.326C19.5004 21.326 22.9435 15.186 23.8215 13.3032C23.9391 13.0511 24 12.7772 24 12.5C24 12.2228 23.9391 11.9489 23.8215 11.6968ZM1.99992 12.5108C2.74994 10.8976 5.69302 5.63533 12.0002 5.63533C13.5698 5.62633 15.1189 5.98543 16.5183 6.68268L14.7533 8.41356C13.7932 7.78849 12.6421 7.5084 11.4954 7.62083C10.3487 7.73327 9.27697 8.23129 8.46209 9.0304C7.64721 9.82951 7.13935 10.8805 7.0247 12.005C6.91005 13.1295 7.19566 14.2583 7.83307 15.1998L5.75402 17.2386C4.15435 15.9612 2.87082 14.3447 1.99992 12.5108ZM15.0003 12.5C15.0003 13.2803 14.6842 14.0286 14.1216 14.5803C13.5589 15.132 12.7958 15.442 12.0002 15.442C11.5547 15.4403 11.1154 15.3397 10.7151 15.1478L14.7002 11.2398C14.896 11.6323 14.9985 12.0631 15.0003 12.5ZM9.0001 12.5C9.0001 11.7197 9.31618 10.9714 9.8788 10.4197C10.4414 9.86796 11.2045 9.558 12.0002 9.558C12.4457 9.55969 12.885 9.66027 13.2852 9.8522L9.30011 13.7602C9.10439 13.3677 9.00183 12.9369 9.0001 12.5ZM12.0002 19.3647C10.4305 19.3737 8.88145 19.0146 7.48206 18.3173L9.24711 16.5864C10.2072 17.2115 11.3583 17.4916 12.505 17.3792C13.6517 17.2667 14.7234 16.7687 15.5383 15.9696C16.3532 15.1705 16.861 14.1195 16.9757 12.995C17.0903 11.8705 16.8047 10.7417 16.1673 9.80022L18.2453 7.7624C19.8482 9.041 21.1324 10.6613 22.0004 12.5C21.2364 14.125 18.2923 19.3647 12.0002 19.3647Z" fill="black"/>
</svg>
