<svg width="24" height="24" viewBox="0 0 24 24" fill="none" xmlns="http://www.w3.org/2000/svg">
<path fill-rule="evenodd" clip-rule="evenodd" d="M21 11.5C21 16.1944 17.1944 20 12.5 20C7.80558 20 4 16.1944 4 11.5C4 6.80558 7.80558 3 12.5 3C17.1944 3 21 6.80558 21 11.5ZM16.3098 13.8936C16.7619 13.1742 17.0011 12.3415 17 11.4917C16.9979 10.6112 16.7378 9.75058 16.2518 9.01642C15.7658 8.28227 15.0753 7.70679 14.2658 7.36121C13.4562 7.01564 12.5631 6.91514 11.697 7.07216C10.8309 7.22918 10.0299 7.63681 9.39301 8.24462L8.49681 7.34806C8.4559 7.30794 8.40411 7.28073 8.34787 7.26982C8.29164 7.25891 8.23343 7.26477 8.1805 7.28668C8.12757 7.30859 8.08224 7.34558 8.05014 7.39305C8.01805 7.44052 8.00062 7.49638 8 7.55368V10.1907C8 10.2683 8.03079 10.3426 8.0856 10.3975C8.1404 10.4523 8.21473 10.4831 8.29224 10.4831H10.9292C10.9863 10.4823 11.0419 10.4648 11.0891 10.4327C11.1364 10.4007 11.1732 10.3555 11.1951 10.3027C11.217 10.25 11.2229 10.192 11.2122 10.1359C11.2014 10.0798 11.1745 10.028 11.1348 9.98706L10.2142 9.06614C10.6802 8.62776 11.2624 8.33253 11.8913 8.21555C12.5202 8.09858 13.1695 8.16479 13.7619 8.40631C14.3543 8.64783 14.8649 9.05449 15.2329 9.57793C15.601 10.1014 15.811 10.7195 15.838 11.3589C15.865 11.9983 15.7079 12.632 15.3852 13.1846C15.0626 13.7373 14.5882 14.1856 14.0182 14.4762C13.4483 14.7668 12.8069 14.8876 12.1704 14.8241C11.5338 14.7606 10.9289 14.5156 10.4275 14.1181C10.3434 14.0522 10.238 14.0194 10.1314 14.0261C10.0247 14.0327 9.92421 14.0783 9.8489 14.1541L9.64433 14.3588C9.60122 14.4019 9.56763 14.4536 9.54574 14.5105C9.52385 14.5674 9.51416 14.6283 9.51728 14.6892C9.5204 14.7501 9.53627 14.8097 9.56386 14.864C9.59146 14.9184 9.63015 14.9664 9.67745 15.0049C10.3391 15.5377 11.138 15.8723 11.9818 15.9701C12.8255 16.0679 13.6797 15.9247 14.4456 15.5573C15.2115 15.1898 15.8578 14.6131 16.3098 13.8936ZM13.8974 12.6923L13.7191 12.9213L13.7143 12.9223C13.6433 13.0134 13.5391 13.0725 13.4246 13.0868C13.3101 13.101 13.1946 13.0692 13.1035 12.9983L11.9189 12.0745V9.61382C11.9189 9.49829 11.9648 9.38749 12.0465 9.3058C12.1281 9.2241 12.2389 9.17821 12.3544 9.17821H12.6466C12.7619 9.17795 12.8726 9.22346 12.9544 9.30476C13.0363 9.38606 13.0825 9.49651 13.083 9.61187V11.5063L13.8214 12.0813C13.9124 12.1523 13.9716 12.2565 13.9858 12.3711C14.0001 12.4857 13.9683 12.6012 13.8974 12.6923Z" fill="black"/>
</svg>
