<svg width="58" height="76" viewBox="0 0 58 76" fill="none" xmlns="http://www.w3.org/2000/svg">
<path d="M26.071 73.6511C4.50336 43.0077 0.5 39.8627 0.5 28.6008C0.5 13.1744 13.2598 0.668945 29 0.668945C44.7402 0.668945 57.5 13.1744 57.5 28.6008C57.5 39.8627 53.4967 43.0077 31.929 73.6511C30.5136 75.6549 27.4862 75.6548 26.071 73.6511Z" fill="#AAAFC6"/>
<path d="M28.5525 22.0592L17.7345 30.7914V40.2159C17.7345 40.7241 18.1549 41.136 18.6733 41.136L25.2485 41.1194C25.7651 41.1168 26.1826 40.7056 26.1826 40.1993V34.6954C26.1826 34.1873 26.6029 33.7753 27.1214 33.7753H30.8766C31.3951 33.7753 31.8154 34.1873 31.8154 34.6954V40.1952C31.8146 40.4398 31.9132 40.6745 32.0893 40.8477C32.2655 41.0209 32.5047 41.1182 32.7542 41.1182L39.327 41.136C39.8455 41.136 40.2658 40.7241 40.2658 40.2159V30.785L29.4502 22.0592C29.1882 21.8522 28.8145 21.8522 28.5525 22.0592ZM45.6404 27.9943L40.7352 24.0316V16.0665C40.7352 15.6854 40.42 15.3765 40.0311 15.3765H36.7453C36.3564 15.3765 36.0412 15.6854 36.0412 16.0665V20.242L30.788 16.0061C29.7483 15.1677 28.2485 15.1677 27.2088 16.0061L12.3564 27.9943C12.0565 28.2372 12.0145 28.6724 12.2625 28.9662L13.7587 30.7488C13.8775 30.8904 14.0488 30.9798 14.235 30.9974C14.4211 31.015 14.6067 30.9593 14.7509 30.8426L28.5525 19.7014C28.8145 19.4945 29.1882 19.4945 29.4502 19.7014L43.2523 30.8426C43.5521 31.0856 43.9961 31.0444 44.244 30.7505L45.7402 28.9679C45.8591 28.826 45.9155 28.6435 45.8968 28.4608C45.8781 28.278 45.7858 28.1102 45.6404 27.9943Z" fill="white"/>
</svg>
