<svg width="17" height="17" viewBox="0 0 17 17" fill="none" xmlns="http://www.w3.org/2000/svg">
<g clip-path="url(#clip0_85_5132)">
<path fill-rule="evenodd" clip-rule="evenodd" d="M8.94604 8.11117C9.31423 8.11117 9.61271 8.40964 9.61271 8.77783V11.4445C9.61271 11.8127 9.31423 12.1112 8.94604 12.1112C8.57786 12.1112 8.27938 11.8127 8.27938 11.4445V8.77783C8.27938 8.40964 8.57786 8.11117 8.94604 8.11117Z" fill="black"/>
<path fill-rule="evenodd" clip-rule="evenodd" d="M8.27938 6.11117C8.27938 5.74298 8.57786 5.4445 8.94604 5.4445H8.95271C9.3209 5.4445 9.61938 5.74298 9.61938 6.11117C9.61938 6.47936 9.3209 6.77783 8.95271 6.77783H8.94604C8.57786 6.77783 8.27938 6.47936 8.27938 6.11117Z" fill="black"/>
<path fill-rule="evenodd" clip-rule="evenodd" d="M8.94604 15.4445C12.6279 15.4445 15.6127 12.4597 15.6127 8.77783C15.6127 5.09593 12.6279 2.11117 8.94604 2.11117C5.26415 2.11117 2.27938 5.09593 2.27938 8.77783C2.27938 12.4597 5.26415 15.4445 8.94604 15.4445ZM8.94604 16.7778C13.3643 16.7778 16.946 13.1961 16.946 8.77783C16.946 4.35955 13.3643 0.777832 8.94604 0.777832C4.52777 0.777832 0.946045 4.35955 0.946045 8.77783C0.946045 13.1961 4.52777 16.7778 8.94604 16.7778Z" fill="black"/>
</g>
<defs>
<clipPath id="clip0_85_5132">
<rect width="16" height="16" fill="white" transform="translate(0.946045 0.777832)"/>
</clipPath>
</defs>
</svg>
