<svg width="24" height="24" viewBox="0 0 24 24" fill="none" xmlns="http://www.w3.org/2000/svg">
<path d="M18.5407 1.7146H17.6772C17.6757 1.26032 17.4933 0.825054 17.1698 0.503822C16.8463 0.18259 16.4079 0.00147163 15.9504 0H9.04402C8.58649 0.00147163 8.14811 0.18259 7.82458 0.503822C7.50106 0.825054 7.31864 1.26032 7.31716 1.7146H6.45373C5.53774 1.7146 4.65927 2.0759 4.01157 2.719C3.36387 3.3621 3 4.23433 3 5.14381V20.5741C3.00089 21.483 3.36516 22.3544 4.01277 22.9968C4.66037 23.6392 5.53833 24 6.45373 24H18.5407C18.9944 24.0007 19.4438 23.9127 19.8633 23.7409C20.2827 23.5691 20.664 23.3169 20.9852 22.9988C21.3065 22.6806 21.5615 22.3027 21.7356 21.8867C21.9097 21.4707 21.9996 21.0247 22 20.5741V5.14381C22 4.69301 21.9105 4.24664 21.7366 3.83022C21.5626 3.41381 21.3077 3.03553 20.9864 2.71702C20.6651 2.39852 20.2837 2.14604 19.8641 1.97403C19.4444 1.80203 18.9947 1.71387 18.5407 1.7146ZM17.6772 12.0022H7.31716C7.08816 12.0022 6.86855 11.9119 6.70662 11.7511C6.5447 11.5904 6.45373 11.3723 6.45373 11.1449C6.45373 10.9176 6.5447 10.6995 6.70662 10.5387C6.86855 10.3779 7.08816 10.2876 7.31716 10.2876H17.6783C17.9073 10.2876 18.127 10.3779 18.2889 10.5387C18.4508 10.6995 18.5418 10.9176 18.5418 11.1449C18.5418 11.3723 18.4508 11.5904 18.2889 11.7511C18.127 11.9119 17.9062 12.0022 17.6772 12.0022ZM18.5407 14.5697C18.5407 14.797 18.4497 15.0151 18.2878 15.1759C18.1258 15.3367 17.9062 15.427 17.6772 15.427H7.31716C7.08816 15.427 6.86855 15.3367 6.70662 15.1759C6.5447 15.0151 6.45373 14.797 6.45373 14.5697C6.45373 14.3423 6.5447 14.1242 6.70662 13.9635C6.86855 13.8027 7.08816 13.7124 7.31716 13.7124H17.6783C17.7919 13.7125 17.9044 13.7349 18.0092 13.7783C18.114 13.8216 18.2092 13.8851 18.2894 13.965C18.3695 14.045 18.4329 14.1398 18.476 14.2442C18.5191 14.3485 18.5411 14.4603 18.5407 14.573V14.5697ZM12.4978 8.57302H7.31716C7.08816 8.57302 6.86855 8.4827 6.70662 8.32192C6.5447 8.16115 6.45373 7.94309 6.45373 7.71572C6.45373 7.48835 6.5447 7.27029 6.70662 7.10952C6.86855 6.94874 7.08816 6.85842 7.31716 6.85842H12.4978C12.7267 6.85842 12.9464 6.94874 13.1083 7.10952C13.2702 7.27029 13.3612 7.48835 13.3612 7.71572C13.3612 7.94309 13.2702 8.16115 13.1083 8.32192C12.9464 8.4827 12.7267 8.57302 12.4978 8.57302ZM7.31716 17.1449H17.6783C17.9073 17.1449 18.127 17.2353 18.2889 17.396C18.4508 17.5568 18.5418 17.7749 18.5418 18.0022C18.5418 18.2296 18.4508 18.4477 18.2889 18.6084C18.127 18.7692 17.9073 18.8595 17.6783 18.8595H7.31716C7.08816 18.8595 6.86855 18.7692 6.70662 18.6084C6.5447 18.4477 6.45373 18.2296 6.45373 18.0022C6.45373 17.7749 6.5447 17.5568 6.70662 17.396C6.86855 17.2353 7.08816 17.1449 7.31716 17.1449ZM9.04402 1.7146H15.9515V3.42921H9.04402V1.7146Z" fill="black"/>
</svg>
