<svg width="24" height="24" viewBox="0 0 24 24" fill="none" xmlns="http://www.w3.org/2000/svg">
<path d="M19.2 1.00003H4.8C3.53183 0.995688 2.31379 1.48115 1.41368 2.34969C0.513576 3.21823 0.00508268 4.39874 0 5.63168V17.3683C0.00508268 18.6013 0.513576 19.7818 1.41368 20.6503C2.31379 21.5188 3.53183 22.0043 4.8 22H19.2C20.4682 22.0043 21.6862 21.5188 22.5863 20.6503C23.4864 19.7818 23.9949 18.6013 24 17.3683V5.63168C23.9949 4.39874 23.4864 3.21823 22.5863 2.34969C21.6862 1.48115 20.4682 0.995688 19.2 1.00003ZM7.8 5.86502C8.34825 5.86502 8.88419 6.02307 9.34004 6.3192C9.79589 6.61533 10.1512 7.03623 10.361 7.52868C10.5708 8.02112 10.6257 8.563 10.5187 9.08577C10.4118 9.60855 10.1478 10.0888 9.7601 10.4657C9.37243 10.8426 8.87851 11.0992 8.34079 11.2032C7.80308 11.3072 7.24572 11.2538 6.7392 11.0499C6.23268 10.8459 5.79976 10.5005 5.49517 10.0573C5.19057 9.61408 5.028 9.09303 5.028 8.56001C5.03022 7.84591 5.32298 7.16168 5.84235 6.65674C6.36172 6.1518 7.0655 5.86717 7.8 5.86502ZM12.444 16.9367C12.3871 16.9957 12.3183 17.0427 12.2419 17.0748C12.1656 17.1069 12.0832 17.1234 12 17.1233H3.6C3.51679 17.1234 3.43443 17.1069 3.35805 17.0748C3.28168 17.0427 3.2129 16.9957 3.156 16.9367C3.10106 16.8765 3.05898 16.8063 3.0322 16.7302C3.00542 16.6541 2.99447 16.5736 3 16.4933C3.1003 15.5418 3.53646 14.6534 4.23432 13.9792C4.93218 13.305 5.84868 12.8865 6.828 12.795C7.4706 12.7367 8.1174 12.7367 8.76 12.795C9.74006 12.8846 10.6577 13.3024 11.3559 13.977C12.0542 14.6516 12.4897 15.5411 12.588 16.4933C12.5985 16.5729 12.591 16.6538 12.5661 16.7304C12.5413 16.8069 12.4996 16.8773 12.444 16.9367ZM20.4 17.0417H18C17.7613 17.0417 17.5324 16.9495 17.3636 16.7854C17.1948 16.6213 17.1 16.3987 17.1 16.1667C17.1 15.9346 17.1948 15.712 17.3636 15.5479C17.5324 15.3838 17.7613 15.2917 18 15.2917H20.4C20.6387 15.2917 20.8676 15.3838 21.0364 15.5479C21.2052 15.712 21.3 15.9346 21.3 16.1667C21.3 16.3987 21.2052 16.6213 21.0364 16.7854C20.8676 16.9495 20.6387 17.0417 20.4 17.0417ZM20.4 12.375H15.6C15.3613 12.375 15.1324 12.2828 14.9636 12.1187C14.7948 11.9546 14.7 11.7321 14.7 11.5C14.7 11.2679 14.7948 11.0454 14.9636 10.8813C15.1324 10.7172 15.3613 10.625 15.6 10.625H20.4C20.6387 10.625 20.8676 10.7172 21.0364 10.8813C21.2052 11.0454 21.3 11.2679 21.3 11.5C21.3 11.7321 21.2052 11.9546 21.0364 12.1187C20.8676 12.2828 20.6387 12.375 20.4 12.375ZM20.4 7.70834H14.4C14.1613 7.70834 13.9324 7.61616 13.7636 7.45206C13.5948 7.28797 13.5 7.06541 13.5 6.83335C13.5 6.60128 13.5948 6.37872 13.7636 6.21463C13.9324 6.05054 14.1613 5.95835 14.4 5.95835H20.4C20.6387 5.95835 20.8676 6.05054 21.0364 6.21463C21.2052 6.37872 21.3 6.60128 21.3 6.83335C21.3 7.06541 21.2052 7.28797 21.0364 7.45206C20.8676 7.61616 20.6387 7.70834 20.4 7.70834Z" fill="black"/>
</svg>
