<svg width="24" height="24" viewBox="0 0 24 24" fill="none" xmlns="http://www.w3.org/2000/svg">
<path d="M19.615 13.6291C19.3729 13.5187 19.0976 13.5107 18.8496 13.6069C18.6017 13.7031 18.4014 13.8956 18.2928 14.1422C17.8008 15.2563 17.0088 16.2056 16.0086 16.88C15.0085 17.5545 13.8411 17.9265 12.6419 17.9528C11.4427 17.9792 10.2607 17.6588 9.23294 17.029C8.20517 16.3991 7.37369 15.4855 6.83489 14.394L7.4021 14.6512C7.52228 14.7064 7.65198 14.7369 7.78375 14.7409C7.91553 14.7449 8.04678 14.7224 8.16998 14.6746C8.29318 14.6268 8.40589 14.5546 8.50164 14.4623C8.59739 14.37 8.67429 14.2594 8.72793 14.1367C8.78157 14.0141 8.81089 13.8818 8.81421 13.7476C8.81753 13.6134 8.79477 13.4798 8.74725 13.3546C8.69974 13.2293 8.62839 13.1148 8.53732 13.0177C8.44625 12.9207 8.33724 12.8428 8.21656 12.7888L5.58147 11.5943C5.46133 11.5398 5.33181 11.5099 5.20032 11.5064C5.06883 11.5028 4.93794 11.5257 4.81515 11.5738C4.69235 11.6218 4.58005 11.694 4.48468 11.7863C4.3893 11.8785 4.31272 11.989 4.2593 12.1115L3.08653 14.7953C2.97853 15.0424 2.97135 15.3232 3.06656 15.5757C3.16178 15.8283 3.35159 16.0319 3.59425 16.1419C3.83691 16.2519 4.11253 16.2592 4.36048 16.1623C4.60844 16.0653 4.80842 15.872 4.91642 15.6248L5.04864 15.3191C5.74339 16.7264 6.80848 17.9094 8.12503 18.736C9.44158 19.5625 10.9578 20.0002 12.5044 20H12.6498C14.2342 19.9721 15.778 19.4852 17.1007 18.5965C18.4233 17.7077 19.4702 16.4537 20.1187 14.9811C20.2272 14.7345 20.235 14.4541 20.1405 14.2016C20.0461 13.9491 19.8571 13.7451 19.615 13.6345V13.6291Z" fill="black"/>
<path d="M21.4132 6.86091C21.293 6.80636 21.1635 6.77647 21.032 6.77294C20.9005 6.76941 20.7696 6.79231 20.6468 6.84033C20.524 6.88836 20.4117 6.96057 20.3164 7.05282C20.221 7.14508 20.1444 7.25559 20.091 7.37802L19.9588 7.6837C19.2532 6.25308 18.1652 5.05455 16.82 4.22615C15.4749 3.39775 13.9274 2.97317 12.3558 3.00131C10.7841 3.02946 9.25221 3.50918 7.93652 4.38523C6.62083 5.26128 5.57485 6.49802 4.91906 7.95302C4.86411 8.07469 4.83322 8.20619 4.82817 8.34002C4.82311 8.47384 4.84399 8.60737 4.8896 8.73298C4.93521 8.85859 5.00467 8.97382 5.094 9.07209C5.18333 9.17036 5.2908 9.24974 5.41026 9.30571C5.52972 9.36168 5.65883 9.39314 5.79022 9.39829C5.92161 9.40344 6.05271 9.38218 6.17604 9.33573C6.29937 9.28927 6.41251 9.21853 6.50899 9.12755C6.60548 9.03656 6.68343 8.92711 6.73838 8.80544C7.23822 7.70036 8.03414 6.76139 9.03463 6.09654C10.0351 5.43168 11.1995 5.06793 12.394 5.04711C13.5884 5.02629 14.7644 5.34925 15.7866 5.97885C16.8088 6.60845 17.6358 7.51912 18.1725 8.60614L17.6053 8.34893C17.3626 8.23893 17.087 8.23162 16.8391 8.32859C16.5911 8.42557 16.3911 8.61889 16.2831 8.86604C16.1751 9.11318 16.1679 9.39391 16.2632 9.64645C16.3584 9.89899 16.5482 10.1027 16.7908 10.2127L19.418 11.4044C19.5381 11.459 19.6675 11.489 19.7989 11.4926C19.9304 11.4962 20.0612 11.4734 20.184 11.4256C20.3068 11.3777 20.4191 11.3056 20.5145 11.2135C20.61 11.1213 20.6866 11.011 20.7402 10.8887L21.9129 8.20484C22.0208 7.95902 22.0287 7.67972 21.9351 7.42792C21.8415 7.17613 21.6538 6.97229 21.4132 6.86091Z" fill="black"/>
</svg>
