<svg width="24" height="24" viewBox="0 0 24 24" fill="none" xmlns="http://www.w3.org/2000/svg">
<g clip-path="url(#clip0_2178_196)">
<path d="M22.8424 9.55819C22.6548 9.37072 22.4005 9.26541 22.1354 9.26541C21.8702 9.26541 21.6159 9.37072 21.4284 9.55819L10.5364 20.4972C10.0721 20.9615 9.52087 21.3299 8.91422 21.5812C8.30757 21.8326 7.65736 21.962 7.00071 21.962C5.67455 21.9621 4.40266 21.4354 3.46486 20.4977C2.52705 19.56 2.00015 18.2882 2.00005 16.962C1.99996 15.6359 2.52668 14.364 3.46436 13.4262L14.0134 2.83419C14.5774 2.27909 15.338 1.96936 16.1294 1.97249C16.9209 1.97562 17.679 2.29135 18.2387 2.8509C18.7983 3.41045 19.1142 4.16849 19.1176 4.9599C19.1209 5.75131 18.8113 6.51197 18.2564 7.07619L7.70736 17.6682C7.51711 17.8505 7.26382 17.9522 7.00036 17.9522C6.73689 17.9522 6.48361 17.8505 6.29336 17.6682C6.10589 17.4807 6.00057 17.2264 6.00057 16.9612C6.00057 16.696 6.10589 16.4417 6.29336 16.2542L15.6854 6.81919C15.8675 6.63059 15.9683 6.37799 15.966 6.11579C15.9638 5.8536 15.8586 5.60278 15.6732 5.41737C15.4878 5.23197 15.237 5.1268 14.9748 5.12452C14.7126 5.12224 14.46 5.22304 14.2714 5.40519L4.87936 14.8402C4.60073 15.1188 4.3797 15.4495 4.22891 15.8135C4.07811 16.1775 4.0005 16.5677 4.0005 16.9617C4.0005 17.3557 4.07811 17.7459 4.22891 18.1099C4.3797 18.4739 4.60073 18.8046 4.87936 19.0832C5.45098 19.6287 6.21074 19.933 7.00086 19.933C7.79098 19.933 8.55074 19.6287 9.12236 19.0832L19.6704 8.49019C20.5884 7.5485 21.0984 6.28305 21.09 4.96797C21.0815 3.65288 20.5553 2.39407 19.6253 1.46422C18.6954 0.534361 17.4365 0.00833824 16.1214 9.82774e-05C14.8063 -0.00814168 13.5409 0.502064 12.5994 1.42019L2.05036 12.0122C0.737535 13.325 -1.95626e-08 15.1056 0 16.9622C1.95626e-08 18.8188 0.737535 20.5994 2.05036 21.9122C3.36318 23.225 5.14375 23.9625 7.00036 23.9625C8.85697 23.9625 10.6375 23.225 11.9504 21.9122L22.8424 10.9762C22.9358 10.8833 23.0099 10.7728 23.0605 10.6511C23.1111 10.5294 23.1371 10.399 23.1371 10.2672C23.1371 10.1354 23.1111 10.0049 23.0605 9.88327C23.0099 9.7616 22.9358 9.65112 22.8424 9.55819Z" fill="black"/>
</g>
<defs>
<clipPath id="clip0_2178_196">
<rect width="24" height="24" fill="white"/>
</clipPath>
</defs>
</svg>
