<svg width="14" height="14" viewBox="0 0 14 14" fill="none" xmlns="http://www.w3.org/2000/svg">
<path d="M11.0832 4.914V4.08333C11.0832 3.00037 10.653 1.96175 9.88719 1.19598C9.12142 0.430207 8.08281 0 6.99984 0C5.91687 0 4.87826 0.430207 4.11248 1.19598C3.34671 1.96175 2.9165 3.00037 2.9165 4.08333V4.914C2.39696 5.14074 1.95476 5.51397 1.64396 5.98804C1.33317 6.46211 1.16725 7.01647 1.1665 7.58333V11.0833C1.16743 11.8566 1.47502 12.5979 2.0218 13.1447C2.56858 13.6915 3.30991 13.9991 4.08317 14H9.9165C10.6898 13.9991 11.4311 13.6915 11.9779 13.1447C12.5247 12.5979 12.8322 11.8566 12.8332 11.0833V7.58333C12.8324 7.01647 12.6665 6.46211 12.3557 5.98804C12.0449 5.51397 11.6027 5.14074 11.0832 4.914ZM4.08317 4.08333C4.08317 3.30979 4.39046 2.56792 4.93744 2.02094C5.48442 1.47396 6.22629 1.16667 6.99984 1.16667C7.77339 1.16667 8.51525 1.47396 9.06223 2.02094C9.60921 2.56792 9.9165 3.30979 9.9165 4.08333V4.66667H4.08317V4.08333ZM11.6665 11.0833C11.6665 11.5475 11.4821 11.9926 11.1539 12.3208C10.8258 12.649 10.3806 12.8333 9.9165 12.8333H4.08317C3.61904 12.8333 3.17392 12.649 2.84573 12.3208C2.51755 11.9926 2.33317 11.5475 2.33317 11.0833V7.58333C2.33317 7.1192 2.51755 6.67408 2.84573 6.3459C3.17392 6.01771 3.61904 5.83333 4.08317 5.83333H9.9165C10.3806 5.83333 10.8258 6.01771 11.1539 6.3459C11.4821 6.67408 11.6665 7.1192 11.6665 7.58333V11.0833Z" fill="#E17100"/>
<path d="M6.99985 8.16648C6.84514 8.16648 6.69676 8.22794 6.58737 8.33734C6.47797 8.44673 6.41651 8.59511 6.41651 8.74981V9.91648C6.41651 10.0712 6.47797 10.2196 6.58737 10.329C6.69676 10.4384 6.84514 10.4998 6.99985 10.4998C7.15456 10.4998 7.30293 10.4384 7.41233 10.329C7.52173 10.2196 7.58318 10.0712 7.58318 9.91648V8.74981C7.58318 8.59511 7.52173 8.44673 7.41233 8.33734C7.30293 8.22794 7.15456 8.16648 6.99985 8.16648Z" fill="#E17100"/>
</svg>
