<svg width="24" height="24" viewBox="0 0 24 24" fill="none" xmlns="http://www.w3.org/2000/svg">
  <g clip-path="url(#clip0_2178_10)">
    <path
      d="M0.999992 6H23C23.2652 6 23.5196 5.89464 23.7071 5.7071C23.8946 5.51957 24 5.26521 24 5C24 4.73478 23.8946 4.48043 23.7071 4.29289C23.5196 4.10536 23.2652 4 23 4H0.999992C0.734776 4 0.480422 4.10536 0.292886 4.29289C0.105349 4.48043 -7.62939e-06 4.73478 -7.62939e-06 5C-7.62939e-06 5.26521 0.105349 5.51957 0.292886 5.7071C0.480422 5.89464 0.734776 6 0.999992 6Z"
      fill="black" />
    <path
      d="M23 8.99999H0.999992C0.734776 8.99999 0.480422 9.10534 0.292886 9.29288C0.105349 9.48041 -7.62939e-06 9.73477 -7.62939e-06 9.99998C-7.62939e-06 10.2652 0.105349 10.5196 0.292886 10.7071C0.480422 10.8946 0.734776 11 0.999992 11H23C23.2652 11 23.5196 10.8946 23.7071 10.7071C23.8946 10.5196 24 10.2652 24 9.99998C24 9.73477 23.8946 9.48041 23.7071 9.29288C23.5196 9.10534 23.2652 8.99999 23 8.99999Z"
      fill="black" />
    <path
      d="M23 19H0.999992C0.734776 19 0.480422 19.1053 0.292886 19.2929C0.105349 19.4804 -7.62939e-06 19.7347 -7.62939e-06 20C-7.62939e-06 20.2652 0.105349 20.5195 0.292886 20.7071C0.480422 20.8946 0.734776 21 0.999992 21H23C23.2652 21 23.5196 20.8946 23.7071 20.7071C23.8946 20.5195 24 20.2652 24 20C24 19.7347 23.8946 19.4804 23.7071 19.2929C23.5196 19.1053 23.2652 19 23 19Z"
      fill="black" />
    <path
      d="M23 14H0.999992C0.734776 14 0.480422 14.1054 0.292886 14.2929C0.105349 14.4804 -7.62939e-06 14.7348 -7.62939e-06 15C-7.62939e-06 15.2652 0.105349 15.5196 0.292886 15.7071C0.480422 15.8947 0.734776 16 0.999992 16H23C23.2652 16 23.5196 15.8947 23.7071 15.7071C23.8946 15.5196 24 15.2652 24 15C24 14.7348 23.8946 14.4804 23.7071 14.2929C23.5196 14.1054 23.2652 14 23 14Z"
      fill="black" />
  </g>
  <defs>
    <clipPath id="clip0_2178_10">
      <rect width="24" height="24" fill="white" />
    </clipPath>
  </defs>
</svg>
