<svg width="24" height="24" viewBox="0 0 24 24" fill="none" xmlns="http://www.w3.org/2000/svg">
<path d="M11.5 3C6.81296 3 3 6.81296 3 11.5C3 16.187 6.81296 20 11.5 20H20V11.5C20 6.81296 16.187 3 11.5 3ZM7.95833 12.5625C7.37183 12.5625 6.89583 12.0865 6.89583 11.5C6.89583 10.9135 7.37183 10.4375 7.95833 10.4375C8.54483 10.4375 9.02083 10.9135 9.02083 11.5C9.02083 12.0865 8.54483 12.5625 7.95833 12.5625ZM11.5 12.5625C10.9135 12.5625 10.4375 12.0865 10.4375 11.5C10.4375 10.9135 10.9135 10.4375 11.5 10.4375C12.0865 10.4375 12.5625 10.9135 12.5625 11.5C12.5625 12.0865 12.0865 12.5625 11.5 12.5625ZM15.0417 12.5625C14.4552 12.5625 13.9792 12.0865 13.9792 11.5C13.9792 10.9135 14.4552 10.4375 15.0417 10.4375C15.6282 10.4375 16.1042 10.9135 16.1042 11.5C16.1042 12.0865 15.6282 12.5625 15.0417 12.5625Z" fill="black"/>
</svg>
