<svg width="25" height="24" viewBox="0 0 25 24" fill="none" xmlns="http://www.w3.org/2000/svg">
<path d="M16.4141 18H12.4141C11.8621 18 11.4141 17.553 11.4141 17C11.4141 16.447 11.8621 16 12.4141 16H16.4141C16.9661 16 17.4141 16.447 17.4141 17C17.4141 17.553 16.9661 18 16.4141 18ZM21.4141 19V7C21.4141 4.243 19.1711 2 16.4141 2H16.2431C15.8301 0.836 14.7181 0 13.4141 0H11.4141C10.1101 0 8.99806 0.836 8.58506 2H8.41406C5.65706 2 3.41406 4.243 3.41406 7V19C3.41406 21.757 5.65706 24 8.41406 24H16.4141C19.1711 24 21.4141 21.757 21.4141 19ZM9.41406 4C9.96606 4 10.4141 3.553 10.4141 3C10.4141 2.447 10.8631 2 11.4141 2H13.4141C13.9651 2 14.4141 2.448 14.4141 3C14.4141 3.552 14.8621 4 15.4141 4H16.4141C18.0681 4 19.4141 5.346 19.4141 7V19C19.4141 20.654 18.0681 22 16.4141 22H8.41406C6.76006 22 5.41406 20.654 5.41406 19V7C5.41406 5.346 6.76006 4 8.41406 4H9.41406ZM8.41406 16C7.86206 16 7.41406 16.448 7.41406 17C7.41406 17.552 7.86206 18 8.41406 18C8.96606 18 9.41406 17.552 9.41406 17C9.41406 16.448 8.96606 16 8.41406 16ZM17.4141 13C17.4141 12.447 16.9661 12 16.4141 12H12.4141C11.8621 12 11.4141 12.447 11.4141 13C11.4141 13.553 11.8621 14 12.4141 14H16.4141C16.9661 14 17.4141 13.553 17.4141 13ZM8.41406 12C7.86206 12 7.41406 12.448 7.41406 13C7.41406 13.552 7.86206 14 8.41406 14C8.96606 14 9.41406 13.552 9.41406 13C9.41406 12.448 8.96606 12 8.41406 12ZM17.4141 9C17.4141 8.447 16.9661 8 16.4141 8H12.4141C11.8621 8 11.4141 8.447 11.4141 9C11.4141 9.553 11.8621 10 12.4141 10H16.4141C16.9661 10 17.4141 9.553 17.4141 9ZM8.41406 8C7.86206 8 7.41406 8.448 7.41406 9C7.41406 9.552 7.86206 10 8.41406 10C8.96606 10 9.41406 9.552 9.41406 9C9.41406 8.448 8.96606 8 8.41406 8Z" fill="black"/>
</svg>
