<svg width="24" height="24" viewBox="0 0 24 24" fill="none" xmlns="http://www.w3.org/2000/svg">
<path d="M21.1381 12.8104L19.7945 10.6856C19.6873 10.5161 19.6512 10.3112 19.6941 10.1153L20.2256 7.65623C20.2655 7.4713 20.2352 7.27813 20.1405 7.11432C20.0459 6.95051 19.8937 6.82778 19.7135 6.77001L17.3183 6.00242C17.1283 5.94143 16.9699 5.80833 16.8769 5.63174L15.7067 3.4065C15.6185 3.23921 15.4712 3.11071 15.2935 3.046C15.1158 2.98128 14.9204 2.98497 14.7452 3.05635L12.4162 4.00758C12.2333 4.08128 12.0289 4.08128 11.8459 4.00758L9.51235 3.05749C9.33721 2.98611 9.14178 2.98242 8.96407 3.04714C8.78636 3.11185 8.63908 3.24035 8.55086 3.40764L7.37722 5.63174C7.28431 5.80833 7.12582 5.94143 6.93582 6.00242L4.54065 6.77001C4.3607 6.82801 4.20875 6.95083 4.11431 7.11462C4.01988 7.2784 3.98971 7.47144 4.02968 7.65623L4.56118 10.1153C4.60408 10.3112 4.56801 10.5161 4.46081 10.6856L3.11723 12.8104C3.01636 12.9706 2.9787 13.1625 3.0116 13.3489C3.04449 13.5353 3.14557 13.7027 3.29516 13.8187L5.28429 15.3619C5.44199 15.4838 5.54559 15.6628 5.57285 15.8603L5.91502 18.3524C5.94065 18.5398 6.03506 18.7109 6.17988 18.8326C6.32471 18.9542 6.50959 19.0176 6.69859 19.0105L9.20782 18.9136C9.40726 18.9059 9.60175 18.9768 9.74958 19.1109L11.6121 20.8012C11.7525 20.9291 11.9355 21 12.1254 21C12.3153 21 12.4983 20.9291 12.6386 20.8012L14.5012 19.1109C14.6489 18.9766 14.8434 18.9057 15.0429 18.9136L17.5522 19.0105C17.7411 19.0176 17.926 18.9542 18.0709 18.8326C18.2157 18.7109 18.3101 18.5398 18.3357 18.3524L18.6779 15.8603C18.7063 15.6621 18.8116 15.483 18.971 15.3619L20.959 13.821C21.1094 13.7051 21.2111 13.5373 21.2442 13.3504C21.2773 13.1634 21.2395 12.9709 21.1381 12.8104ZM10.0176 15.0368L7.79352 13.4868L8.70597 15.6002L8.09805 15.8626L6.70315 12.6245L7.33958 12.3496L9.60131 13.9464L8.66719 11.7794L9.27511 11.517L10.6746 14.7585L10.0176 15.0368ZM11.3669 14.4494L9.96743 11.2125L12.3717 10.1746L12.6078 10.7232L10.8582 11.4839L11.1684 12.2025L12.796 11.4999L13.0321 12.0462L11.4045 12.7386L11.7855 13.6214L13.5967 12.8401L13.8328 13.3864L11.3669 14.4494ZM16.8416 12.0839L15.1547 9.94419L15.5573 12.6462L14.8479 12.953L12.6751 10.0446L13.3446 9.75486L14.7943 11.7714L14.4259 9.28837L15.2072 8.95191L16.7526 10.9707L16.2724 8.49112L16.9317 8.20712L17.543 11.7885L16.8416 12.0839Z" fill="black"/>
</svg>
