<svg width="24" height="24" viewBox="0 0 24 24" fill="none" xmlns="http://www.w3.org/2000/svg">
<path d="M21.7472 18.5485H2.1076C1.62034 18.5485 1.17747 18.2349 1.04374 17.7663C0.91083 17.3006 1.08638 16.8128 1.49486 16.5543C1.5681 16.4989 2.22259 15.9809 2.87221 14.7278C3.5189 13.4803 4.28978 11.2376 4.28978 7.63764C4.28978 3.42623 7.71601 0 11.9274 0C16.1388 0 19.5651 3.42623 19.5651 7.63764C19.5651 11.2376 20.3359 13.4803 20.9826 14.7278C21.6323 15.9809 22.2868 16.4989 22.36 16.5543C22.7685 16.8128 22.944 17.3006 22.8111 17.7663C22.6774 18.2349 22.2345 18.5485 21.7472 18.5485ZM4.45263 16.3664H19.4022C19.3192 16.2303 19.2358 16.0864 19.1527 15.9341C17.9783 13.7811 17.3829 10.9897 17.3829 7.63764C17.3829 4.62949 14.9356 2.18218 11.9274 2.18218C8.91928 2.18218 6.47197 4.62949 6.47197 7.63764C6.47197 10.9897 5.8765 13.7811 4.7021 15.9341C4.61906 16.0864 4.53569 16.2303 4.45263 16.3664Z" fill="black"/>
<path d="M11.9274 24C10.7645 24 9.67955 23.3751 9.09602 22.3692C8.79366 21.8479 8.9711 21.1802 9.49234 20.8779C10.0136 20.5755 10.6813 20.753 10.9836 21.2742C11.1781 21.6095 11.5398 21.8178 11.9274 21.8178C12.315 21.8178 12.6767 21.6095 12.8712 21.2742C13.1736 20.753 13.8412 20.5755 14.3625 20.8779C14.8837 21.1802 15.0612 21.8479 14.7588 22.3692C14.1753 23.3751 13.0903 24 11.9274 24Z" fill="black"/>
</svg>
