<svg width="24" height="24" viewBox="0 0 24 24" fill="none" xmlns="http://www.w3.org/2000/svg">
<path d="M20.1495 19.2275H2.96892C2.54267 19.2275 2.15525 18.9531 2.03826 18.5432C1.92199 18.1358 2.07556 17.709 2.4329 17.4829C2.49697 17.4344 3.06951 16.9813 3.6378 15.8851C4.20351 14.7938 4.87788 12.8319 4.87788 9.68269C4.87788 5.99858 7.87512 3.00134 11.5592 3.00134C15.2433 3.00134 18.2406 5.99858 18.2406 9.68269C18.2406 12.8319 18.9149 14.7938 19.4807 15.8851C20.0489 16.9813 20.6215 17.4344 20.6856 17.4829C21.0429 17.709 21.1965 18.1358 21.0802 18.5432C20.9632 18.9531 20.5758 19.2275 20.1495 19.2275ZM5.02033 17.3185H18.0981C18.0255 17.1995 17.9525 17.0736 17.8799 16.9404C16.8525 15.0569 16.3316 12.6151 16.3316 9.68269C16.3316 7.05119 14.1907 4.9103 11.5592 4.9103C8.92772 4.9103 6.78684 7.05119 6.78684 9.68269C6.78684 12.6151 6.26593 15.0569 5.23857 16.9404C5.16592 17.0736 5.09299 17.1995 5.02033 17.3185Z" fill="#24272C"/>
<path d="M11.5592 23.9964C10.5419 23.9964 9.59282 23.4497 9.08236 22.5697C8.81786 22.1137 8.97307 21.5297 9.42905 21.2652C9.88503 21.0007 10.4691 21.1559 10.7336 21.6119C10.9038 21.9052 11.2201 22.0874 11.5592 22.0874C11.8983 22.0874 12.2147 21.9052 12.3849 21.6119C12.6494 21.1559 13.2334 21.0007 13.6894 21.2652C14.1454 21.5297 14.3006 22.1137 14.0361 22.5697C13.5256 23.4497 12.5766 23.9964 11.5592 23.9964Z" fill="#24272C"/>
<path d="M21 4.5C21 6.98528 18.9853 9 16.5 9C14.0147 9 12 6.98528 12 4.5C12 2.01472 14.0147 0 16.5 0C18.9853 0 21 2.01472 21 4.5Z" fill="#D29E48"/>
</svg>
