<svg width="24" height="24" viewBox="0 0 24 24" fill="none" xmlns="http://www.w3.org/2000/svg">
<path d="M0 11.0978C0 8.88017 0.345633 7.15245 1.0369 5.91468C1.72817 4.66401 2.93788 4.03868 4.66605 4.03868C6.38187 4.03868 7.58541 4.66401 8.27668 5.91468C8.96795 7.15245 9.31358 8.88017 9.31358 11.0978C9.31358 13.3542 8.96795 15.1077 8.27668 16.3584C7.58541 17.609 6.38187 18.2344 4.66605 18.2344C2.93788 18.2344 1.72817 17.609 1.0369 16.3584C0.345633 15.1077 0 13.3542 0 11.0978ZM7.64713 11.0978C7.64713 9.97611 7.57307 9.02844 7.42494 8.25484C7.28916 7.46834 6.99907 6.83656 6.55469 6.3595C6.12264 5.88244 5.4931 5.64391 4.66605 5.64391C3.82665 5.64391 3.18476 5.88244 2.74038 6.3595C2.30834 6.83656 2.01825 7.46834 1.87012 8.25484C1.73434 9.02844 1.66645 9.97611 1.66645 11.0978C1.66645 12.2582 1.73434 13.2317 1.87012 14.0182C2.01825 14.8047 2.30834 15.4365 2.74038 15.9135C3.18476 16.3906 3.82665 16.6291 4.66605 16.6291C5.4931 16.6291 6.12264 16.3906 6.55469 15.9135C6.99907 15.4365 7.28916 14.8047 7.42494 14.0182C7.57307 13.2317 7.64713 12.2582 7.64713 11.0978Z" fill="black"/>
<path d="M13.645 15.7975L11.5712 21H10.4418L11.7934 15.7975H13.645Z" fill="black"/>
<path d="M15.0938 16.8225C16.6615 15.5074 17.8897 14.4308 18.7785 13.5927C19.6672 12.7418 20.4141 11.8586 21.0189 10.9431C21.6361 10.0148 21.9447 9.1058 21.9447 8.21616C21.9447 7.37808 21.7472 6.72052 21.3522 6.24346C20.9695 5.75351 20.3462 5.50853 19.4821 5.50853C18.6427 5.50853 17.9885 5.78574 17.5194 6.34016C17.0626 6.88168 16.8158 7.61016 16.7787 8.5256H15.1493C15.1987 7.08153 15.6184 5.96625 16.4084 5.17975C17.1984 4.39325 18.2168 4 19.4636 4C20.735 4 21.741 4.36746 22.4817 5.10239C23.2347 5.83732 23.6112 6.84945 23.6112 8.13879C23.6112 9.20895 23.3026 10.2533 22.6854 11.2719C22.0805 12.2776 21.3892 13.1672 20.6116 13.9408C19.8339 14.7016 18.8402 15.5912 17.6305 16.6098H24V18.0796H15.0938V16.8225Z" fill="black"/>
</svg>
