<svg width="86" height="78" viewBox="0 0 86 78" fill="none" xmlns="http://www.w3.org/2000/svg">
<circle cx="19.0938" cy="19.5085" r="18.5938" fill="#AAAFC6"/>
<path d="M15.7018 22.0128C15.1601 22.0128 14.6723 21.9051 14.2384 21.6897C13.8044 21.4742 13.4566 21.1788 13.195 20.8033C12.9334 20.4278 12.7903 20 12.7657 19.5199H13.8737C13.9168 19.9477 14.1106 20.3016 14.4553 20.5817C14.8031 20.8587 15.2186 20.9972 15.7018 20.9972C16.0896 20.9972 16.4343 20.9064 16.7359 20.7248C17.0406 20.5432 17.2791 20.2939 17.4514 19.9769C17.6269 19.6569 17.7146 19.2952 17.7146 18.8921C17.7146 18.4797 17.6238 18.1119 17.4422 17.7887C17.2637 17.4625 17.0175 17.2055 16.7036 17.0178C16.3896 16.83 16.0311 16.7346 15.6279 16.7316C15.3386 16.7285 15.0416 16.7731 14.7369 16.8654C14.4323 16.9547 14.1814 17.0701 13.9845 17.2117L12.9134 17.0824L13.4859 12.429H18.3978V13.4446H14.4461L14.1137 16.233H14.1691C14.363 16.0791 14.6061 15.9514 14.8985 15.8498C15.1909 15.7482 15.4956 15.6975 15.8126 15.6975C16.3912 15.6975 16.9067 15.836 17.3591 16.1129C17.8146 16.3869 18.1716 16.7623 18.4301 17.2394C18.6917 17.7164 18.8225 18.2611 18.8225 18.8736C18.8225 19.4768 18.6871 20.0154 18.4163 20.4894C18.1485 20.9602 17.7792 21.3326 17.3083 21.6066C16.8374 21.8774 16.3019 22.0128 15.7018 22.0128ZM24.3311 14.7926H25.4206V22.4006C25.4206 22.8376 25.3452 23.2162 25.1944 23.5362C25.0467 23.8563 24.822 24.1041 24.5204 24.2795C24.2219 24.4549 23.8449 24.5426 23.3894 24.5426C23.3525 24.5426 23.3155 24.5426 23.2786 24.5426C23.2417 24.5426 23.2047 24.5426 23.1678 24.5426V23.527C23.2047 23.527 23.2386 23.527 23.2694 23.527C23.3001 23.527 23.334 23.527 23.3709 23.527C23.7033 23.527 23.9464 23.4285 24.1003 23.2316C24.2542 23.0377 24.3311 22.7607 24.3311 22.4006V14.7926ZM24.8667 13.6108C24.6543 13.6108 24.4712 13.5385 24.3173 13.3938C24.1665 13.2492 24.0911 13.0753 24.0911 12.8722C24.0911 12.6691 24.1665 12.4952 24.3173 12.3505C24.4712 12.2059 24.6543 12.1335 24.8667 12.1335C25.079 12.1335 25.2606 12.2059 25.4114 12.3505C25.5653 12.4952 25.6422 12.6691 25.6422 12.8722C25.6422 13.0753 25.5653 13.2492 25.4114 13.3938C25.2606 13.5385 25.079 13.6108 24.8667 13.6108Z" fill="white"/>
<path d="M12.1505 72.4269L10.5142 70.7905L75.3108 5.9939L76.9472 7.63026L12.1505 72.4269Z" fill="#AAAFC6"/>
<circle cx="66.9062" cy="59.3523" r="18.5938" fill="#AAAFC6"/>
<path d="M61.0964 61.7273L65.3251 53.3622V53.2884H60.4501V52.2727H66.5069V53.3438L62.2967 61.7273H61.0964ZM71.9024 54.6364H72.9919V62.2443C72.9919 62.6814 72.9165 63.0599 72.7657 63.38C72.618 63.7001 72.3933 63.9478 72.0917 64.1232C71.7932 64.2987 71.4162 64.3864 70.9607 64.3864C70.9237 64.3864 70.8868 64.3864 70.8499 64.3864C70.8129 64.3864 70.776 64.3864 70.7391 64.3864V63.3708C70.776 63.3708 70.8099 63.3708 70.8406 63.3708C70.8714 63.3708 70.9053 63.3708 70.9422 63.3708C71.2746 63.3708 71.5177 63.2723 71.6716 63.0753C71.8255 62.8814 71.9024 62.6044 71.9024 62.2443V54.6364ZM72.4379 53.4546C72.2256 53.4546 72.0425 53.3822 71.8886 53.2376C71.7378 53.0929 71.6624 52.9191 71.6624 52.7159C71.6624 52.5128 71.7378 52.3389 71.8886 52.1943C72.0425 52.0496 72.2256 51.9773 72.4379 51.9773C72.6503 51.9773 72.8319 52.0496 72.9827 52.1943C73.1366 52.3389 73.2135 52.5128 73.2135 52.7159C73.2135 52.9191 73.1366 53.0929 72.9827 53.2376C72.8319 53.3822 72.6503 53.4546 72.4379 53.4546Z" fill="white"/>
</svg>
