<svg width="24" height="24" viewBox="0 0 24 24" fill="none" xmlns="http://www.w3.org/2000/svg">
<g clip-path="url(#clip0_3062_13379)">
<path d="M15.8675 13.3334C15.8675 14.0988 15.6405 14.8469 15.2153 15.4833C14.7901 16.1196 14.1858 16.6156 13.4787 16.9085C12.7716 17.2014 11.9936 17.278 11.243 17.1287C10.4923 16.9794 9.80284 16.6108 9.26166 16.0697C8.72049 15.5285 8.35195 14.839 8.20264 14.0884C8.05333 13.3377 8.12996 12.5597 8.42284 11.8526C8.71572 11.1455 9.2117 10.5412 9.84805 10.116C10.4844 9.69079 11.2325 9.46384 11.9979 9.46384C13.0238 9.46496 14.0074 9.87301 14.7329 10.5985C15.4583 11.3239 15.8664 12.3075 15.8675 13.3334ZM23.9947 7.83565V18.8312C23.9947 19.5351 23.7151 20.2101 23.2175 20.7077C22.7198 21.2054 22.0448 21.485 21.341 21.485H2.65374C2.30516 21.485 1.95999 21.4163 1.63796 21.2829C1.31592 21.1495 1.02333 20.9539 0.77689 20.7073C0.530453 20.4608 0.335002 20.1681 0.201701 19.8461C0.0684 19.524 -0.000138667 19.1788 2.10631e-07 18.8302V7.83882C2.10631e-07 7.135 0.27959 6.46001 0.777264 5.96234C1.27494 5.46467 1.94993 5.18508 2.65374 5.18508H5.9207V4.26737C5.9207 3.65048 6.16576 3.05885 6.60197 2.62264C7.03818 2.18644 7.62981 1.94138 8.2467 1.94138H15.7533C16.0588 1.94138 16.3612 2.00154 16.6434 2.11843C16.9256 2.23532 17.182 2.40665 17.398 2.62264C17.614 2.83863 17.7853 3.09505 17.9022 3.37725C18.0191 3.65945 18.0793 3.96191 18.0793 4.26737V5.18508H21.3431C21.6918 5.1848 22.0372 5.25323 22.3594 5.38645C22.6817 5.51968 22.9746 5.71509 23.2213 5.96153C23.468 6.20796 23.6638 6.5006 23.7974 6.82271C23.931 7.14482 23.9999 7.4901 24 7.83882L23.9947 7.83565ZM17.8573 13.3334C17.8573 12.1746 17.5136 11.0417 16.8698 10.0781C16.2259 9.11458 15.3108 8.36356 14.2402 7.92008C13.1695 7.4766 11.9914 7.36056 10.8548 7.58665C9.71817 7.81273 8.67413 8.37079 7.85468 9.19024C7.03523 10.0097 6.47717 11.0537 6.25109 12.1903C6.025 13.3269 6.14104 14.5051 6.58452 15.5757C7.028 16.6464 7.77902 17.5615 8.74259 18.2053C9.70616 18.8492 10.839 19.1928 11.9979 19.1928C13.5513 19.1909 15.0405 18.5729 16.1389 17.4745C17.2374 16.3761 17.8553 14.8868 17.8573 13.3334Z" fill="black"/>
</g>
<defs>
<clipPath id="clip0_3062_13379">
<rect width="24" height="24" fill="white"/>
</clipPath>
</defs>
</svg>
