<svg width="86" height="76" viewBox="0 0 86 76" fill="none" xmlns="http://www.w3.org/2000/svg">
<path d="M79.358 47.1154V45.0681H77.3106V47.1154H68.4578C67.1902 43.5408 63.7754 40.9734 59.7717 40.9734C54.6916 40.9734 50.5586 45.1064 50.5586 50.1864C50.5586 53.374 52.186 56.1884 54.6533 57.8431V75.9148H85.5V47.1154H79.358ZM77.3106 49.1628V51.2101H79.358V49.1628H83.4527V53.2575H68.4578C68.7986 52.2964 68.9847 51.2628 68.9847 50.1864C68.9847 49.8404 68.9649 49.499 68.9275 49.1628H77.3106ZM52.6059 50.1864C52.6059 46.2353 55.8205 43.0207 59.7717 43.0207C63.7228 43.0207 66.9374 46.2353 66.9374 50.1864C66.9374 54.1376 63.7228 57.3522 59.7717 57.3522C55.8205 57.3522 52.6059 54.1376 52.6059 50.1864ZM56.7006 73.8674V58.8725C57.6617 59.2133 58.6953 59.3995 59.7717 59.3995C62.9593 59.3995 65.7736 57.7721 67.4283 55.3048H83.4527V73.8674H56.7006Z" fill="#AAAFC6"/>
<path d="M64.8899 49.1631H60.7952V45.0684H58.7478V51.2104H64.8899V49.1631Z" fill="#AAAFC6"/>
<path d="M68.3822 69.7416L72.6978 60.3366L72.8764 60.8128H67.6084V59.3247H74.052L74.2604 60.3515L70.1085 69.7416H68.3822Z" fill="#AAAFC6"/>
<path d="M29.2994 7.12202V5.07467H27.252V7.12202H18.3992C17.1316 3.54735 13.7168 0.97998 9.71307 0.97998C4.63298 0.97998 0.5 5.11296 0.5 10.193C0.5 13.3806 2.12737 16.195 4.5947 17.8497V35.9214H35.4414V7.12202H29.2994ZM27.252 9.16937V11.2167H29.2994V9.16937H33.3941V13.2641H18.3992C18.74 12.303 18.9261 11.2694 18.9261 10.193C18.9261 9.84704 18.9063 9.50561 18.869 9.16937H27.252ZM2.54735 10.193C2.54735 6.24187 5.76189 3.02733 9.71307 3.02733C13.6643 3.02733 16.8788 6.24187 16.8788 10.193C16.8788 14.1442 13.6643 17.3588 9.71307 17.3588C5.76189 17.3588 2.54735 14.1442 2.54735 10.193ZM6.64205 33.874V18.8791C7.60307 19.2199 8.63671 19.4061 9.71307 19.4061C12.9007 19.4061 15.715 17.7787 17.3697 15.3114H33.3941V33.874H6.64205Z" fill="#AAAFC6"/>
<path d="M14.8314 9.16989H10.7367V5.0752H8.68933V11.2172H14.8314V9.16989Z" fill="#AAAFC6"/>
<path d="M19.7203 29.0197V20.5671L20.271 20.9837L18.2173 22.0701L17.7858 20.6712L20.5686 19.1831H21.3424V29.0197H19.7203ZM18.0685 29.7489V28.2012H23.0389V29.7489H18.0685Z" fill="#AAAFC6"/>
<path d="M18.5441 64.3541L17.2288 63.0388L69.3135 10.9541L70.6289 12.2694L18.5441 64.3541Z" fill="#AAAFC6"/>
</svg>
