<svg width="24" height="24" viewBox="0 0 24 24" fill="none" xmlns="http://www.w3.org/2000/svg">
<path d="M11.7263 0C6.9121 0 3 3.76805 3 8.40003C3 14.1473 10.814 22.587 11.1461 22.9435C11.3169 23.1067 11.5213 23.1944 11.7308 23.1944C11.9404 23.1944 12.1448 23.1067 12.3156 22.9435C12.6488 22.587 20.4617 14.1489 20.4617 8.40003C20.4583 3.76805 16.5405 0 11.7263 0ZM11.7263 12.6252C9.30447 12.6252 7.33368 10.7297 7.33368 8.39851C7.33368 6.06728 9.30447 4.17183 11.7263 4.17183C14.1481 4.17183 16.1189 6.06728 16.1189 8.39851C16.1189 10.7297 14.1493 12.6252 11.7263 12.6252Z" fill="black"/>
</svg>
