<svg width="24" height="24" viewBox="0 0 24 24" fill="none" xmlns="http://www.w3.org/2000/svg">
<g clip-path="url(#clip0_3271_14423)">
<path fill-rule="evenodd" clip-rule="evenodd" d="M17.4105 2.3176C18.1689 2.68134 18.9188 3.06525 19.6431 3.46415C21.0512 4.2343 21.8923 5.79288 21.931 7.34536C22.0051 9.84623 22.0195 12.3471 21.9742 14.848C20.5814 13.7917 18.5152 12.2122 17 11C16.8808 10.9046 15 11 15 11C14.4477 11 14 11.4477 14 12V14H8C7.44772 14 7 14.4477 7 15V21C7 21.5523 7.44772 22 8 22H14V23C14 23.0544 14.0043 23.1078 14.0127 23.1598C13.4855 23.3675 12.9641 23.5635 12.4529 23.7472C11.5115 24.0843 10.4892 24.0843 9.54774 23.7472C7.21622 22.9096 4.67204 21.8155 2.35445 20.5359C0.945917 19.7657 0.105202 18.2071 0.0692354 16.6546C-0.0230785 13.5515 -0.0230785 10.4485 0.0692354 7.34536C0.106551 5.79288 0.945917 4.2343 2.35445 3.46415C4.67204 2.18447 7.21622 1.09042 9.54594 0.252775C10.4874 -0.0842583 11.5097 -0.0842583 12.4511 0.252775C13.1493 0.507772 13.8646 0.776832 14.5839 1.07027C11.4931 2.12729 7.87081 3.55555 4.47602 5.3021C3.81514 5.64241 3.36871 6.34131 3.32959 7.08333C3.23698 8.843 3.19337 10.6585 3.20236 12.4692C3.20326 12.6619 3.38804 12.787 3.5382 12.6933C3.80615 12.5255 4.07904 12.3558 4.35688 12.1842C4.39556 12.1599 4.44159 12.1517 4.48582 12.1612C4.53004 12.1706 4.56924 12.1971 4.59561 12.2353C4.95348 12.7241 5.31944 13.2184 5.69349 13.7184C5.7237 13.7615 5.76636 13.7933 5.8152 13.8092C5.86403 13.8251 5.91647 13.8243 5.96482 13.8068C6.01316 13.7893 6.05486 13.7562 6.08379 13.7122C6.11271 13.6682 6.12735 13.6156 6.12554 13.5623C6.10306 11.7445 6.12014 9.90612 6.17544 8.12488C6.1919 7.73728 6.31186 7.36217 6.52181 7.04182C6.73175 6.72148 7.02332 6.46863 7.36368 6.31178C10.9037 4.65898 14.4154 3.32821 17.4105 2.3176Z" fill="black"/>
<path fill-rule="evenodd" clip-rule="evenodd" d="M15.8615 22.9513C15.9265 22.9836 15.9986 23.0003 16.0717 23C16.1695 22.9998 16.2648 22.9699 16.344 22.9146L22.8095 18.3607C22.8685 18.3194 22.9165 18.2652 22.9496 18.2025C22.9827 18.1399 23 18.0706 23 18.0002C23 17.9299 22.9827 17.8606 22.9496 17.7979C22.9165 17.7352 22.8685 17.681 22.8095 17.6397L16.3452 13.0862C16.2761 13.0375 16.1945 13.0081 16.1092 13.0015C16.0239 12.9948 15.9384 13.011 15.8621 13.0484C15.7859 13.0858 15.7218 13.1428 15.6771 13.2131C15.6324 13.2835 15.6088 13.3644 15.6088 13.4469V15.815H9.46289C9.34023 15.8153 9.22268 15.8624 9.13594 15.9461C9.0492 16.0297 9.00033 16.1431 9 16.2614V19.7386C9.00019 19.857 9.04903 19.9704 9.13579 20.0541C9.22256 20.1378 9.34019 20.1849 9.46289 20.1851H15.6088V22.5535C15.6087 22.6359 15.6322 22.7167 15.6768 22.7869C15.7214 22.8571 15.7853 22.9141 15.8615 22.9513Z" fill="black"/>
</g>
<defs>
<clipPath id="clip0_3271_14423">
<rect width="24" height="24" fill="white"/>
</clipPath>
</defs>
</svg>
