<svg width="24" height="24" viewBox="0 0 24 24" fill="none" xmlns="http://www.w3.org/2000/svg">
<g clip-path="url(#clip0_3271_14464)">
<path d="M12.0938 18.9811C12.0939 17.6956 12.4687 16.4381 13.1724 15.3623C13.876 14.2865 14.878 13.4391 16.0556 12.9238C17.2333 12.4085 18.5356 12.2476 19.8033 12.4608C21.071 12.6741 22.249 13.2522 23.1933 14.1244C23.2245 11.8647 23.2058 9.60501 23.137 7.34532C23.0995 5.79282 22.223 4.23423 20.7544 3.46407C19.9997 3.06517 19.2178 2.68126 18.427 2.31751C15.3024 3.32814 11.6428 4.66126 7.95189 6.31173C7.59702 6.46859 7.29301 6.72144 7.07412 7.04178C6.85523 7.36213 6.73015 7.73724 6.71298 8.12485C6.65533 9.9061 6.63751 11.7445 6.66095 13.5624C6.66284 13.6157 6.64758 13.6682 6.61742 13.7122C6.58726 13.7562 6.54379 13.7893 6.49338 13.8068C6.44298 13.8243 6.3883 13.8251 6.33738 13.8092C6.28646 13.7933 6.24198 13.7615 6.21048 13.7184C5.81986 13.2184 5.43829 12.7241 5.06579 12.2353C5.03829 12.1971 4.99743 12.1706 4.95132 12.1612C4.9052 12.1517 4.85722 12.1599 4.81689 12.1842C4.5272 12.3567 4.24267 12.5269 3.96329 12.6947C3.80673 12.7884 3.61408 12.6633 3.61314 12.4706C3.60376 10.6599 3.64876 8.84439 3.74579 7.0847C3.78658 6.34267 4.25204 5.64376 4.94064 5.30345C8.48064 3.55501 12.2574 2.12673 15.48 1.0697C14.73 0.77626 13.9842 0.507197 13.2563 0.252197C12.2747 -0.0848389 11.2088 -0.0848389 10.2272 0.252197C7.79814 1.09032 5.14548 2.18439 2.72861 3.46407C1.26048 4.23423 0.384856 5.79282 0.34595 7.34532C0.250325 10.4484 0.250325 13.5516 0.34595 16.6547C0.38345 18.2072 1.26048 19.7658 2.72861 20.5359C5.14548 21.8156 7.79814 22.9097 10.2286 23.7474C11.2102 24.0844 12.2761 24.0844 13.2577 23.7474C13.4699 23.6742 13.6841 23.5988 13.9003 23.5209C12.7365 22.2964 12.0895 20.6704 12.0938 18.9811Z" fill="black"/>
<path d="M18.7064 13.9627C17.7138 13.9628 16.7434 14.2572 15.9181 14.8088C15.0928 15.3603 14.4496 16.1442 14.0698 17.0614C13.6901 17.9785 13.5908 18.9876 13.7845 19.9612C13.9783 20.9347 14.4563 21.829 15.1583 22.5308C15.8603 23.2326 16.7546 23.7106 17.7282 23.9041C18.7018 24.0977 19.7109 23.9982 20.628 23.6183C21.545 23.2383 22.3288 22.5949 22.8802 21.7695C23.4316 20.9441 23.7259 19.9737 23.7258 18.9811C23.7257 18.322 23.5959 17.6694 23.3436 17.0605C23.0913 16.4516 22.7215 15.8983 22.2555 15.4323C21.7894 14.9663 21.2361 14.5967 20.6271 14.3445C20.0182 14.0924 19.3655 13.9626 18.7064 13.9627ZM21.5691 18.1505L18.5522 21.3183C18.4701 21.4047 18.3714 21.4735 18.262 21.5207C18.1526 21.5679 18.0348 21.5925 17.9156 21.593H17.9114C17.793 21.5929 17.6757 21.5691 17.5666 21.523C17.4576 21.4769 17.3588 21.4093 17.2763 21.3244L15.6755 19.6753C15.512 19.5069 15.4221 19.2804 15.4256 19.0457C15.4292 18.8109 15.5258 18.5872 15.6942 18.4238C15.8627 18.2603 16.0892 18.1704 16.3239 18.1739C16.5586 18.1774 16.7823 18.2741 16.9458 18.4425L17.9063 19.4311L20.288 16.9299C20.4517 16.7694 20.6714 16.6787 20.9007 16.677C21.1299 16.6753 21.3509 16.7626 21.5171 16.9206C21.6833 17.0785 21.7817 17.2948 21.7915 17.5239C21.8014 17.753 21.722 17.9769 21.57 18.1486L21.5691 18.1505Z" fill="black"/>
</g>
<defs>
<clipPath id="clip0_3271_14464">
<rect width="24" height="24" fill="white"/>
</clipPath>
</defs>
</svg>
