<svg width="24" height="24" viewBox="0 0 24 24" fill="none" xmlns="http://www.w3.org/2000/svg">
<path d="M0.00107762 18.6314C0.00107762 17.3225 1.16707 16.2628 2.6057 16.2628C4.04432 16.2628 5.21031 17.3225 5.21031 18.6314C5.21031 19.9403 4.04432 21 2.6057 21C1.16707 21 0.00107762 19.9376 0.00107762 18.6314ZM1.04314 18.6314C1.04314 19.4132 1.74467 20.0526 2.6057 20.0526C3.46672 20.0526 4.16933 19.4145 4.16933 18.6314C4.16933 17.8483 3.4678 17.2089 2.6057 17.2089C1.7436 17.2089 1.04314 17.8469 1.04314 18.6314ZM8.41301 20.0526C8.11635 20.0526 7.83184 19.9028 7.62206 19.6363C7.41229 19.3698 7.29444 19.0083 7.29444 18.6314C7.29444 18.2545 7.41229 17.893 7.62206 17.6265C7.83184 17.36 8.11635 17.2102 8.41301 17.2102H22.8467C23.1434 17.2102 23.4279 17.36 23.6377 17.6265C23.8474 17.893 23.9653 18.2545 23.9653 18.6314C23.9653 19.0083 23.8474 19.3698 23.6377 19.6363C23.4279 19.9028 23.1434 20.0526 22.8467 20.0526H8.41301ZM2.6057 14.3638H1.86429C1.36985 14.3638 0.89566 14.1143 0.546038 13.6701C0.196416 13.2259 0 12.6234 0 11.9952C0 11.367 0.196416 10.7646 0.546038 10.3204C0.89566 9.87616 1.36985 9.62661 1.86429 9.62661H3.34171C3.83615 9.62661 4.31034 9.87616 4.65997 10.3204C5.00959 10.7646 5.206 11.367 5.206 11.9952C5.206 12.6234 5.00959 13.2259 4.65997 13.6701C4.31034 14.1143 3.83615 14.3638 3.34171 14.3638H2.6057ZM8.41301 13.4191C8.26327 13.425 8.11412 13.3926 7.97441 13.3239C7.8347 13.2552 7.70728 13.1515 7.59972 13.019C7.49215 12.8865 7.40663 12.7279 7.34822 12.5527C7.28982 12.3774 7.25972 12.189 7.25972 11.9986C7.25972 11.8083 7.28982 11.6199 7.34822 11.4446C7.40663 11.2693 7.49215 11.1107 7.59972 10.9782C7.70728 10.8458 7.8347 10.7421 7.97441 10.6733C8.11412 10.6046 8.26327 10.5722 8.41301 10.5782H22.8467C22.9965 10.5722 23.1456 10.6046 23.2853 10.6733C23.425 10.7421 23.5524 10.8458 23.66 10.9782C23.7676 11.1107 23.8531 11.2693 23.9115 11.4446C23.9699 11.6199 24 11.8083 24 11.9986C24 12.189 23.9699 12.3774 23.9115 12.5527C23.8531 12.7279 23.7676 12.8865 23.66 13.019C23.5524 13.1515 23.425 13.2552 23.2853 13.3239C23.1456 13.3926 22.9965 13.425 22.8467 13.4191H8.41301ZM0.00107762 5.3686C0.00107762 4.05971 1.16707 3 2.6057 3C4.04432 3 5.21031 4.05971 5.21031 5.3686C5.21031 6.67749 4.04432 7.7372 2.6057 7.7372C1.16707 7.7372 0.00107762 6.67612 0.00107762 5.3686ZM1.04314 5.3686C1.04314 6.15175 1.74467 6.78976 2.6057 6.78976C3.46672 6.78976 4.16825 6.14901 4.16825 5.3686C4.16825 4.58819 3.4678 3.94744 2.6057 3.94744C1.7436 3.94744 1.04314 4.58409 1.04314 5.3686ZM8.41301 6.78976C8.26327 6.79567 8.11412 6.7633 7.97441 6.69457C7.8347 6.62584 7.70728 6.52216 7.59972 6.38967C7.49215 6.25719 7.40663 6.09859 7.34822 5.92331C7.28982 5.74803 7.25972 5.55963 7.25972 5.36929C7.25972 5.17894 7.28982 4.99054 7.34822 4.81526C7.40663 4.63998 7.49215 4.48139 7.59972 4.3489C7.70728 4.21641 7.8347 4.11273 7.97441 4.044C8.11412 3.97527 8.26327 3.9429 8.41301 3.94881H22.8467C22.9965 3.9429 23.1456 3.97527 23.2853 4.044C23.425 4.11273 23.5524 4.21641 23.66 4.3489C23.7676 4.48139 23.8531 4.63998 23.9115 4.81526C23.9699 4.99054 24 5.17894 24 5.36929C24 5.55963 23.9699 5.74803 23.9115 5.92331C23.8531 6.09859 23.7676 6.25719 23.66 6.38967C23.5524 6.52216 23.425 6.62584 23.2853 6.69457C23.1456 6.7633 22.9965 6.79567 22.8467 6.78976H8.41301Z" fill="black"/>
</svg>
