<svg width="24" height="24" viewBox="0 0 24 24" fill="none" xmlns="http://www.w3.org/2000/svg">
<path d="M12.5 20C23.8349 19.643 23.8318 3.35545 12.5 3C1.16511 3.357 1.16823 19.6445 12.5 20ZM12.5 16.9091C11.5982 16.9031 10.7123 16.6725 9.92396 16.2384L17.281 8.94691C17.7249 9.76877 17.9471 10.6904 17.9258 11.6224C17.9045 12.5544 17.6406 13.4652 17.1595 14.2663C16.6785 15.0674 15.9967 15.7317 15.1803 16.1948C14.3639 16.6578 13.4406 16.9039 12.5 16.9091ZM12.5 6.09091C13.4018 6.09689 14.2877 6.32753 15.076 6.76164L7.71904 14.0531C7.27505 13.2312 7.05292 12.3096 7.07419 11.3776C7.09547 10.4456 7.35943 9.53482 7.84047 8.7337C8.32151 7.93257 9.0033 7.26827 9.81969 6.80523C10.6361 6.34218 11.5594 6.09612 12.5 6.09091Z" fill="black"/>
</svg>
