<svg width="24" height="24" viewBox="0 0 24 24" fill="none" xmlns="http://www.w3.org/2000/svg">
<path d="M20.6744 3.23529H16.6198C16.2682 3.23529 15.931 3.37682 15.6824 3.62875C15.4338 3.88069 15.2941 4.22238 15.2941 4.57866V10.739C15.2941 10.7984 15.3105 10.8566 15.3413 10.9071C15.3721 10.9577 15.4162 10.9985 15.4686 11.0251C15.521 11.0516 15.5797 11.0629 15.6381 11.0575C15.6965 11.0522 15.7522 11.0305 15.7991 10.9949L17.0654 10.0353H20.6744C21.0259 10.0353 21.3631 9.89377 21.6117 9.64184C21.8603 9.38991 22 9.04821 22 8.69193V4.57866C22 4.22238 21.8603 3.88069 21.6117 3.62875C21.3631 3.37682 21.0259 3.23529 20.6744 3.23529ZM18.6486 8.49298C18.5862 8.49298 18.5252 8.47423 18.4733 8.43908C18.4214 8.40393 18.3809 8.35398 18.357 8.29554C18.3331 8.23709 18.3269 8.17278 18.3391 8.11073C18.3513 8.04869 18.3813 7.9917 18.4255 7.94697C18.4696 7.90223 18.5258 7.87177 18.5871 7.85943C18.6483 7.84709 18.7118 7.85342 18.7694 7.87763C18.8271 7.90184 18.8764 7.94284 18.9111 7.99543C18.9458 8.04803 18.9643 8.10987 18.9643 8.17313C18.9643 8.25796 18.931 8.33932 18.8718 8.3993C18.8126 8.45929 18.7324 8.49298 18.6486 8.49298ZM18.9643 7.08053V7.1445C18.9643 7.22933 18.931 7.31068 18.8718 7.37066C18.8126 7.43065 18.7324 7.46435 18.6486 7.46435C18.5649 7.46435 18.4847 7.43065 18.4255 7.37066C18.3663 7.31068 18.333 7.22933 18.333 7.1445V6.80482C18.333 6.71999 18.3663 6.63863 18.4255 6.57865C18.4847 6.51866 18.5649 6.48497 18.6486 6.48497C18.7533 6.48497 18.8556 6.45353 18.9425 6.39462C19.0295 6.33572 19.0973 6.252 19.1374 6.15404C19.1774 6.05609 19.1879 5.9483 19.1675 5.84432C19.1471 5.74033 19.0967 5.64481 19.0227 5.56984C18.9487 5.49487 18.8545 5.44381 18.7518 5.42313C18.6492 5.40245 18.5429 5.41306 18.4462 5.45363C18.3495 5.49421 18.2669 5.56292 18.2088 5.65107C18.1507 5.73923 18.1196 5.84287 18.1196 5.9489C18.1196 6.03373 18.0864 6.11508 18.0272 6.17507C17.968 6.23505 17.8877 6.26875 17.804 6.26875C17.7203 6.26875 17.64 6.23505 17.5808 6.17507C17.5216 6.11508 17.4884 6.03373 17.4884 5.9489C17.4886 5.73042 17.5488 5.51632 17.6625 5.33066C17.7761 5.14501 17.9386 4.99516 18.1317 4.89795C18.3248 4.80075 18.5408 4.76004 18.7555 4.78042C18.9701 4.80079 19.1749 4.88144 19.3468 5.01329C19.5187 5.14513 19.6509 5.32296 19.7286 5.52677C19.8062 5.73059 19.8263 5.95231 19.7864 6.16702C19.7465 6.38173 19.6483 6.58091 19.5029 6.74217C19.3574 6.90343 19.1705 7.02039 18.963 7.07989L18.9643 7.08053Z" fill="black"/>
<path d="M4.8497 8.2647C4.8497 6.10736 6.50888 4.35294 8.54911 4.35294C10.5893 4.35294 12.2485 6.10736 12.2485 8.2647C12.2485 10.422 10.5893 12.1765 8.54911 12.1765C6.50888 12.1765 4.8497 10.422 4.8497 8.2647ZM16.3943 16.4579L17.5294 17.149L16.9141 18.2788L15.7796 17.5877C15.3443 18.1067 14.7647 18.4861 14.0988 18.6296V19.9993H12.8657V18.6296C12.1998 18.4861 11.6196 18.1067 11.1849 17.5877L10.0504 18.2788L9.43511 17.149L10.5702 16.4579C10.4685 16.1345 10.4 15.7955 10.4 15.4363C10.4 15.077 10.4685 14.738 10.5702 14.4146L9.43511 13.7236L10.0504 12.5937L11.1849 13.2848C11.6202 12.7658 12.1998 12.3864 12.8657 12.243V10.8732H14.0988V12.243C14.7647 12.3864 15.3449 12.7658 15.7796 13.2848L16.9141 12.5937L17.5294 13.7236L16.3943 14.4146C16.496 14.738 16.5645 15.077 16.5645 15.4363C16.5645 15.7955 16.496 16.1345 16.3943 16.4579ZM14.4065 15.4363C14.4065 14.8971 13.9915 14.4583 13.4816 14.4583C12.9717 14.4583 12.5568 14.8971 12.5568 15.4363C12.5568 15.9754 12.9717 16.4142 13.4816 16.4142C13.9915 16.4142 14.4065 15.9754 14.4065 15.4363ZM7.93254 15.4363C7.93254 14.7491 8.04969 14.0932 8.255 13.4804H6.08284C4.38296 13.4804 3 14.9427 3 16.7402V20H9.99742C8.73901 18.9243 7.93254 17.2807 7.93254 15.4363Z" fill="black"/>
</svg>
