<svg width="24" height="24" viewBox="0 0 24 24" fill="none" xmlns="http://www.w3.org/2000/svg">
<path d="M20.9224 3H16.8109C16.4544 3 16.1125 3.14352 15.8604 3.39899C15.6083 3.65445 15.4667 4.00094 15.4667 4.36222V10.609C15.4667 10.6692 15.4832 10.7283 15.5145 10.7795C15.5457 10.8307 15.5904 10.8722 15.6436 10.8991C15.6968 10.926 15.7563 10.9374 15.8155 10.932C15.8747 10.9266 15.9312 10.9046 15.9788 10.8685L17.2629 9.89545H20.9224C21.2789 9.89545 21.6209 9.75193 21.8729 9.49646C22.125 9.241 22.2667 8.89451 22.2667 8.53322V4.36222C22.2667 4.00094 22.125 3.65445 21.8729 3.39899C21.6209 3.14352 21.2789 3 20.9224 3ZM18.8683 8.33149C18.805 8.33149 18.7431 8.31246 18.6905 8.27682C18.6378 8.24119 18.5968 8.19053 18.5726 8.13127C18.5483 8.072 18.542 8.00679 18.5544 7.94387C18.5667 7.88096 18.5972 7.82316 18.642 7.7778C18.6867 7.73244 18.7437 7.70155 18.8058 7.68904C18.8679 7.67652 18.9323 7.68295 18.9908 7.7075C19.0492 7.73204 19.0992 7.77362 19.1344 7.82695C19.1696 7.88029 19.1883 7.943 19.1883 8.00715C19.1883 8.09317 19.1546 8.17566 19.0946 8.23649C19.0346 8.29731 18.9532 8.33149 18.8683 8.33149ZM19.1883 6.8992V6.96407C19.1883 7.05009 19.1546 7.13259 19.0946 7.19341C19.0346 7.25424 18.9532 7.28841 18.8683 7.28841C18.7834 7.28841 18.702 7.25424 18.642 7.19341C18.5819 7.13259 18.5482 7.05009 18.5482 6.96407V6.61962C18.5482 6.5336 18.5819 6.45111 18.642 6.39028C18.702 6.32946 18.7834 6.29528 18.8683 6.29528C18.9744 6.29528 19.0781 6.2634 19.1663 6.20367C19.2545 6.14394 19.3233 6.05904 19.3639 5.95972C19.4045 5.86039 19.4151 5.75109 19.3944 5.64564C19.3737 5.5402 19.3226 5.44334 19.2476 5.36732C19.1726 5.29129 19.077 5.23952 18.9729 5.21855C18.8689 5.19757 18.761 5.20834 18.663 5.24948C18.565 5.29062 18.4812 5.3603 18.4223 5.44969C18.3633 5.53908 18.3319 5.64418 18.3319 5.75169C18.3319 5.83771 18.2981 5.92021 18.2381 5.98103C18.1781 6.04186 18.0967 6.07603 18.0118 6.07603C17.9269 6.07603 17.8455 6.04186 17.7855 5.98103C17.7254 5.92021 17.6917 5.83771 17.6917 5.75169C17.6919 5.53015 17.753 5.31304 17.8683 5.12478C17.9835 4.93652 18.1483 4.78456 18.3441 4.686C18.5399 4.58743 18.7589 4.54615 18.9766 4.56681C19.1943 4.58747 19.4019 4.66925 19.5762 4.80295C19.7506 4.93665 19.8846 5.11697 19.9634 5.32365C20.0421 5.53032 20.0624 5.75515 20.022 5.97288C19.9815 6.1906 19.882 6.39257 19.7345 6.5561C19.587 6.71963 19.3974 6.83822 19.1871 6.89856L19.1883 6.8992Z" fill="black"/>
<path d="M4.87566 8.1C4.87566 5.91238 6.55813 4.13333 8.62699 4.13333C10.6958 4.13333 12.3783 5.91238 12.3783 8.1C12.3783 10.2876 10.6958 12.0667 8.62699 12.0667C6.55813 12.0667 4.87566 10.2876 4.87566 8.1ZM8.00177 15.3722C8.00177 14.6754 8.12056 14.0103 8.32876 13.3889H6.12611C4.40237 13.3889 3 14.8718 3 16.6944V20H10.0956C8.81956 18.9092 8.00177 17.2425 8.00177 15.3722Z" fill="black"/>
<path d="M13.7633 12.0667C12.9789 12.0673 12.2123 12.3005 11.5605 12.7368C10.9086 13.1731 10.4007 13.7928 10.101 14.5177C9.80127 15.2426 9.7232 16.04 9.87663 16.8092C10.0301 17.5785 10.4081 18.285 10.963 18.8394C11.5179 19.3938 12.2247 19.7712 12.994 19.924C13.7634 20.0768 14.5608 19.9981 15.2854 19.6977C16.01 19.3974 16.6294 18.889 17.0651 18.2367C17.5008 17.5845 17.7333 16.8177 17.7333 16.0333C17.7324 14.981 17.3138 13.9721 16.5694 13.2283C15.8249 12.4845 14.8156 12.0667 13.7633 12.0667ZM15.9224 15.6802L15.1119 16.4705L15.3036 17.587C15.3153 17.6548 15.3078 17.7246 15.2819 17.7883C15.256 17.8521 15.2128 17.9073 15.1571 17.9477C15.1015 17.9882 15.0356 18.0122 14.967 18.0171C14.8983 18.022 14.8297 18.0076 14.7688 17.9755L13.7599 17.4475L12.751 17.9755C12.6902 18.0076 12.6216 18.022 12.5529 18.0171C12.4843 18.0122 12.4184 17.9882 12.3628 17.9477C12.3071 17.9073 12.2639 17.8521 12.238 17.7883C12.2121 17.7246 12.2046 17.6548 12.2163 17.587L12.408 16.4705L11.5959 15.6785C11.5467 15.6299 11.5123 15.5685 11.4964 15.5012C11.4806 15.4339 11.484 15.3635 11.5063 15.2981C11.5285 15.2326 11.5688 15.1748 11.6224 15.1312C11.676 15.0875 11.7408 15.0599 11.8094 15.0513L12.931 14.8832L13.4354 13.8743C13.4693 13.8167 13.5176 13.769 13.5755 13.7359C13.6335 13.7028 13.6991 13.6853 13.7658 13.6853C13.8326 13.6853 13.8982 13.7028 13.9561 13.7359C14.0141 13.769 14.0624 13.8167 14.0962 13.8743L14.6007 14.8832L15.7223 15.0513C15.7905 15.0609 15.8547 15.0895 15.9075 15.1338C15.9603 15.1781 15.9996 15.2363 16.021 15.3018C16.0424 15.3673 16.0449 15.4375 16.0284 15.5044C16.0118 15.5713 15.9769 15.6322 15.9274 15.6802H15.9224Z" fill="black"/>
</svg>
