<svg width="14" height="14" viewBox="0 0 14 14" fill="none" xmlns="http://www.w3.org/2000/svg">
<g clip-path="url(#clip0_1028_7538)">
<path fill-rule="evenodd" clip-rule="evenodd" d="M8.45833 2.77083H5.54167C4.01138 2.77083 2.77083 4.01138 2.77083 5.54167V8.45833C2.77083 9.98862 4.01138 11.2292 5.54167 11.2292H8.45833C9.98862 11.2292 11.2292 9.98862 11.2292 8.45833V5.54167C11.2292 4.01138 9.98862 2.77083 8.45833 2.77083ZM5.54167 0C2.48109 0 0 2.48109 0 5.54167V8.45833C0 11.5189 2.48109 14 5.54167 14H8.45833C11.5189 14 14 11.5189 14 8.45833V5.54167C14 2.48109 11.5189 0 8.45833 0H5.54167Z" fill="white"/>
</g>
<defs>
<clipPath id="clip0_1028_7538">
<rect width="14" height="14" fill="white"/>
</clipPath>
</defs>
</svg>
