<svg width="17" height="17" viewBox="0 0 17 17" fill="none" xmlns="http://www.w3.org/2000/svg">
<g clip-path="url(#clip0_85_4726)">
<path d="M10.518 16.5519H6.48201V14.1888C5.78059 13.9407 5.13093 13.5653 4.56558 13.0816L2.51799 14.2649L0.5 10.767L2.54692 9.58647C2.41246 8.85491 2.41246 8.10496 2.54692 7.3734L0.5 6.19288L2.51799 2.69502L4.56558 3.87824C5.13093 3.39454 5.78059 3.0192 6.48201 2.77103V0.407959H10.518V2.77103C11.2194 3.0192 11.8691 3.39454 12.4344 3.87824L14.482 2.69502L16.5 6.19288L14.4531 7.3734C14.5875 8.10496 14.5875 8.85491 14.4531 9.58647L16.5 10.767L14.482 14.2649L12.4344 13.0823C11.869 13.5658 11.2194 13.9409 10.518 14.1888V16.5519ZM7.82734 15.2066H9.17266V13.1704L9.67784 13.0399C10.5066 12.8252 11.2609 12.3882 11.8593 11.776L12.2245 11.404L13.9889 12.4231L14.6616 11.258L12.8992 10.2403L13.0378 9.73849C13.2656 8.91309 13.2656 8.0414 13.0378 7.216L12.8992 6.71419L14.6616 5.69645L13.9889 4.53139L12.2245 5.55317L11.8593 5.18388C11.2606 4.57266 10.5063 4.13655 9.67784 3.92263L9.17266 3.78944V1.75329H7.82734V3.78944L7.32216 3.91994C6.49343 4.13462 5.73912 4.57168 5.14071 5.18388L4.77546 5.55586L3.01106 4.53408L2.33839 5.69914L4.10077 6.71688L3.9622 7.21869C3.73441 8.04409 3.73441 8.91578 3.9622 9.74118L4.10077 10.243L2.33839 11.2607L3.01106 12.4258L4.77546 11.4067L5.14071 11.7787C5.73944 12.3899 6.49373 12.826 7.32216 13.0399L7.82734 13.1704V15.2066ZM8.5 11.1706C7.96784 11.1706 7.44763 11.0128 7.00515 10.7171C6.56267 10.4215 6.2178 10.0013 6.01416 9.50961C5.81051 9.01795 5.75722 8.47695 5.86104 7.95501C5.96486 7.43308 6.22112 6.95365 6.59742 6.57735C6.97371 6.20106 7.45314 5.9448 7.97508 5.84098C8.49701 5.73716 9.03802 5.79044 9.52967 5.99409C10.0213 6.19774 10.4415 6.54261 10.7372 6.98509C11.0329 7.42756 11.1907 7.94777 11.1907 8.47993C11.1907 9.19354 10.9072 9.87792 10.4026 10.3825C9.89799 10.8871 9.21361 11.1706 8.5 11.1706ZM8.5 7.13461C8.23392 7.13461 7.97381 7.21351 7.75257 7.36133C7.53134 7.50916 7.3589 7.71927 7.25708 7.9651C7.15525 8.21093 7.12861 8.48143 7.18052 8.7424C7.23243 9.00336 7.36056 9.24308 7.54871 9.43123C7.73686 9.61937 7.97657 9.74751 8.23754 9.79941C8.49851 9.85132 8.76901 9.82468 9.01484 9.72286C9.26066 9.62103 9.47077 9.4486 9.6186 9.22736C9.76643 9.00612 9.84533 8.74602 9.84533 8.47993C9.84533 8.12313 9.70359 7.78094 9.45129 7.52864C9.19899 7.27635 8.8568 7.13461 8.5 7.13461Z" fill="black"/>
</g>
<defs>
<clipPath id="clip0_85_4726">
<rect width="16" height="16" fill="white" transform="translate(0.5 0.47998)"/>
</clipPath>
</defs>
</svg>
