<?xml version="1.0" encoding="UTF-8" standalone="no"?>
<svg
   width="24"
   height="24"
   viewBox="0 0 24 24"
   fill="none"
   version="1.1"
   id="svg378"
   sodipodi:docname="shut_down.svg"
   inkscape:version="1.2 (dc2aeda, 2022-05-15)"
   xmlns:inkscape="http://www.inkscape.org/namespaces/inkscape"
   xmlns:sodipodi="http://sodipodi.sourceforge.net/DTD/sodipodi-0.dtd"
   xmlns="http://www.w3.org/2000/svg"
   xmlns:svg="http://www.w3.org/2000/svg">
  <sodipodi:namedview
     id="namedview380"
     pagecolor="#ffffff"
     bordercolor="#666666"
     borderopacity="1.0"
     inkscape:showpageshadow="2"
     inkscape:pageopacity="0.0"
     inkscape:pagecheckerboard="0"
     inkscape:deskcolor="#d1d1d1"
     showgrid="false"
     inkscape:zoom="9.8333333"
     inkscape:cx="-0.050847458"
     inkscape:cy="12"
     inkscape:window-width="1463"
     inkscape:window-height="456"
     inkscape:window-x="0"
     inkscape:window-y="25"
     inkscape:window-maximized="0"
     inkscape:current-layer="g371" />
  <g
     clip-path="url(#clip0_2178_117)"
     id="g371">
    <path
       d="M14.9998 3.84859C15.0029 4.04746 15.0641 4.24107 15.1759 4.40559C15.2876 4.57011 15.4451 4.69838 15.6288 4.77459C17.271 5.49717 18.6598 6.6941 19.6168 8.2117C20.5738 9.72929 21.0554 11.4983 20.9998 13.2916C20.961 15.6785 19.9757 17.9523 18.2605 19.6128C16.5453 21.2732 14.2407 22.1843 11.8538 22.1456C9.46682 22.1069 7.19302 21.1215 5.53257 19.4063C3.87212 17.6911 2.96105 15.3865 2.99977 12.9996C3.00208 11.2558 3.51091 9.55027 4.46442 8.09027C5.41792 6.63028 6.77503 5.47872 8.37077 4.77559C8.55456 4.69892 8.71197 4.57027 8.8237 4.40543C8.93544 4.24058 8.99663 4.04671 8.99977 3.84759C9.00002 3.6838 8.96005 3.52246 8.88335 3.37773C8.80664 3.23301 8.69557 3.10935 8.55988 3.01761C8.4242 2.92586 8.26805 2.86886 8.10517 2.85159C7.9423 2.83433 7.77767 2.85733 7.62577 2.91859C5.30505 3.92473 3.40199 5.69993 2.23713 7.94518C1.07227 10.1904 0.716795 12.7685 1.23058 15.2452C1.74436 17.722 3.096 19.9459 5.05784 21.5426C7.01968 23.1392 9.47183 24.0109 12.0013 24.0109C14.5307 24.0109 16.9829 23.1392 18.9447 21.5426C20.9065 19.9459 22.2582 17.722 22.772 15.2452C23.2857 12.7685 22.9303 10.1904 21.7654 7.94518C20.6005 5.69993 18.6975 3.92473 16.3768 2.91859C16.2246 2.85667 16.0596 2.83317 15.8962 2.85018C15.7329 2.86718 15.5762 2.92417 15.4401 3.0161C15.304 3.10803 15.1926 3.23208 15.1158 3.37727C15.039 3.52247 14.9991 3.68434 14.9998 3.84859Z"
       fill="black"
       id="path367"
       style="fill:#d92339;fill-opacity:1" />
    <path
       d="M13.0002 1C13.0002 0.447715 12.5524 0 12.0002 0C11.4479 0 11.0002 0.447715 11.0002 1V7C11.0002 7.55228 11.4479 8 12.0002 8C12.5524 8 13.0002 7.55228 13.0002 7V1Z"
       fill="black"
       id="path369"
       style="fill:#d92339;fill-opacity:1" />
  </g>
  <defs
     id="defs376">
    <clipPath
       id="clip0_2178_117">
      <rect
         width="24"
         height="24"
         fill="white"
         id="rect373" />
    </clipPath>
  </defs>
</svg>
