<svg width="24" height="24" viewBox="0 0 24 24" fill="none" xmlns="http://www.w3.org/2000/svg">
<g clip-path="url(#clip0_3062_13374)">
<path d="M23.7972 6.17441L17.8213 0.205573C17.6731 0.0714044 17.5002 0 17.3236 0C17.1469 0 16.974 0.0714044 16.8258 0.205573L13.6501 3.37483C13.5883 3.42598 13.5371 3.49867 13.5015 3.58577C13.4659 3.67287 13.4473 3.77137 13.4473 3.8716C13.4473 3.97182 13.4659 4.07033 13.5015 4.15742C13.5371 4.24452 13.5883 4.31721 13.6501 4.36836L19.6259 10.3372C19.7741 10.4714 19.947 10.5428 20.1237 10.5428C20.3004 10.5428 20.4732 10.4714 20.6214 10.3372L23.7972 7.16794C23.859 7.11679 23.9102 7.0441 23.9457 6.957C23.9813 6.8699 24 6.7714 24 6.67118C24 6.57095 23.9813 6.47245 23.9457 6.38535C23.9102 6.29825 23.859 6.22556 23.7972 6.17441Z" fill="black"/>
<path d="M18.6565 11.3287L12.6807 5.35989L12.6572 5.33101L5.9206 8.6928C5.77948 8.7548 5.65897 8.88527 5.58094 9.06056L0 22.9968L8.56057 14.4556C8.427 14.1908 8.35342 13.8763 8.34931 13.5526C8.34931 12.3973 9.2965 11.4346 10.4618 11.4346C11.6272 11.4346 12.5744 12.38 12.5744 13.5526C12.5744 14.7252 11.6272 15.6706 10.4618 15.6706C10.1536 15.6702 9.84754 15.5986 9.55608 15.4588L0.995511 24L14.941 18.4317C15.0878 18.3802 15.2178 18.2607 15.3096 18.0928L18.6786 11.3711L18.6565 11.3287Z" fill="black"/>
</g>
<defs>
<clipPath id="clip0_3062_13374">
<rect width="24" height="24" fill="white"/>
</clipPath>
</defs>
</svg>
