<svg width="24" height="24" viewBox="0 0 24 24" fill="none" xmlns="http://www.w3.org/2000/svg">
<path d="M19.5042 3.03693L3.21217 10.1369C3.14755 10.1678 3.09319 10.2166 3.05558 10.2776C3.01797 10.3385 2.9987 10.409 3.00007 10.4806C3.00144 10.5522 3.02339 10.6219 3.06331 10.6814C3.10323 10.7408 3.15942 10.7876 3.22517 10.8159L7.63217 13.3059C7.75936 13.3776 7.90552 13.4083 8.05079 13.394C8.19606 13.3797 8.33341 13.321 8.44417 13.2259L17.1342 5.73493C17.1922 5.68593 17.3342 5.59294 17.3832 5.64594C17.4322 5.69894 17.3522 5.83694 17.3032 5.89494L9.78517 14.3629C9.68302 14.4775 9.62086 14.6221 9.60805 14.7751C9.59525 14.928 9.63249 15.081 9.71417 15.2109L12.5942 19.8309C12.6257 19.8939 12.6744 19.9468 12.7346 19.9834C12.7947 20.02 12.864 20.039 12.9345 20.038C13.0049 20.0371 13.0737 20.0163 13.1329 19.9781C13.1921 19.9399 13.2393 19.8858 13.2692 19.8219L20.0062 3.52993C20.0382 3.46001 20.048 3.3819 20.034 3.30624C20.0201 3.23058 19.9832 3.16106 19.9283 3.10716C19.8734 3.05326 19.8032 3.01759 19.7273 3.00502C19.6514 2.99246 19.5735 3.0036 19.5042 3.03693Z" fill="black"/>
</svg>
