<svg width="25" height="24" viewBox="0 0 25 24" fill="none" xmlns="http://www.w3.org/2000/svg">
<g clip-path="url(#clip0_631_1513)">
<path d="M7.91406 13C7.02405 13 6.15402 12.7361 5.414 12.2416C4.67397 11.7471 4.0972 11.0443 3.7566 10.2221C3.41601 9.39981 3.3269 8.49501 3.50053 7.6221C3.67416 6.74918 4.10275 5.94736 4.73208 5.31802C5.36142 4.68868 6.16324 4.2601 7.03616 4.08647C7.90907 3.91283 8.81387 4.00195 9.63614 4.34254C10.4584 4.68314 11.1612 5.25991 11.6557 5.99994C12.1501 6.73996 12.4141 7.60999 12.4141 8.5C12.4127 9.69307 11.9382 10.8369 11.0946 11.6805C10.251 12.5241 9.10713 12.9987 7.91406 13ZM7.91406 6C7.41961 6 6.93626 6.14662 6.52514 6.42133C6.11401 6.69603 5.79358 7.08648 5.60436 7.54329C5.41514 8.00011 5.36564 8.50278 5.4621 8.98773C5.55856 9.47268 5.79666 9.91814 6.1463 10.2678C6.49593 10.6174 6.94138 10.8555 7.42634 10.952C7.91129 11.0484 8.41396 10.9989 8.87077 10.8097C9.32759 10.6205 9.71803 10.3 9.99274 9.88893C10.2674 9.4778 10.4141 8.99445 10.4141 8.5C10.4141 7.83696 10.1507 7.20108 9.68183 6.73223C9.21299 6.26339 8.5771 6 7.91406 6ZM15.4141 23V22.5C15.4141 20.5109 14.6239 18.6032 13.2174 17.1967C11.8108 15.7902 9.90319 15 7.91406 15C5.92494 15 4.01728 15.7902 2.61076 17.1967C1.20424 18.6032 0.414063 20.5109 0.414062 22.5V23C0.414063 23.2652 0.519419 23.5196 0.706956 23.7071C0.894492 23.8946 1.14885 24 1.41406 24C1.67928 24 1.93363 23.8946 2.12117 23.7071C2.30871 23.5196 2.41406 23.2652 2.41406 23V22.5C2.41406 21.0413 2.99353 19.6424 4.02498 18.6109C5.05643 17.5795 6.45537 17 7.91406 17C9.37275 17 10.7717 17.5795 11.8032 18.6109C12.8346 19.6424 13.4141 21.0413 13.4141 22.5V23C13.4141 23.2652 13.5194 23.5196 13.707 23.7071C13.8945 23.8946 14.1488 24 14.4141 24C14.6793 24 14.9336 23.8946 15.1212 23.7071C15.3087 23.5196 15.4141 23.2652 15.4141 23ZM24.4141 18C24.414 16.6487 24.0229 15.3263 23.2878 14.1924C22.5527 13.0585 21.5051 12.1616 20.2715 11.61C19.0379 11.0584 17.671 10.8756 16.3358 11.0837C15.0006 11.2919 13.7542 11.8821 12.7471 12.783C12.6478 12.8702 12.5669 12.9762 12.5088 13.0949C12.4508 13.2135 12.4168 13.3425 12.4089 13.4744C12.401 13.6063 12.4194 13.7384 12.4628 13.8631C12.5063 13.9879 12.574 14.1028 12.6621 14.2012C12.7502 14.2996 12.857 14.3796 12.9762 14.4366C13.0954 14.4935 13.2247 14.5262 13.3566 14.5329C13.4886 14.5396 13.6205 14.5201 13.7449 14.4754C13.8692 14.4308 13.9835 14.362 14.0811 14.273C14.8005 13.6296 15.6908 13.2082 16.6445 13.0597C17.5981 12.9111 18.5744 13.0417 19.4555 13.4358C20.3365 13.8299 21.0847 14.4705 21.6097 15.2804C22.1347 16.0903 22.414 17.0348 22.4141 18C22.4141 18.2652 22.5194 18.5196 22.707 18.7071C22.8945 18.8946 23.1488 19 23.4141 19C23.6793 19 23.9336 18.8946 24.1212 18.7071C24.3087 18.5196 24.4141 18.2652 24.4141 18ZM17.9141 9C17.024 9 16.154 8.73608 15.414 8.24162C14.674 7.74715 14.0972 7.04434 13.7566 6.22208C13.416 5.39981 13.3269 4.49501 13.5005 3.6221C13.6742 2.74918 14.1027 1.94736 14.7321 1.31802C15.3614 0.688685 16.1632 0.260102 17.0362 0.0864683C17.9091 -0.0871652 18.8139 0.00194979 19.6361 0.342544C20.4584 0.683138 21.1612 1.25991 21.6557 1.99994C22.1501 2.73996 22.4141 3.60999 22.4141 4.5C22.4127 5.69307 21.9382 6.83689 21.0946 7.68052C20.251 8.52415 19.1071 8.99868 17.9141 9ZM17.9141 2C17.4196 2 16.9363 2.14662 16.5251 2.42133C16.114 2.69603 15.7936 3.08648 15.6044 3.54329C15.4151 4.00011 15.3656 4.50278 15.4621 4.98773C15.5586 5.47268 15.7967 5.91814 16.1463 6.26777C16.4959 6.6174 16.9414 6.8555 17.4263 6.95196C17.9113 7.04843 18.414 6.99892 18.8708 6.8097C19.3276 6.62048 19.718 6.30005 19.9927 5.88893C20.2674 5.4778 20.4141 4.99445 20.4141 4.5C20.4141 3.83696 20.1507 3.20108 19.6818 2.73223C19.213 2.26339 18.5771 2 17.9141 2Z" fill="black"/>
</g>
<defs>
<clipPath id="clip0_631_1513">
<rect width="24" height="24" fill="white" transform="translate(0.414062)"/>
</clipPath>
</defs>
</svg>
