<svg width="24" height="24" viewBox="0 0 24 24" fill="none" xmlns="http://www.w3.org/2000/svg">
<path fill-rule="evenodd" clip-rule="evenodd" d="M13.3327 19.7774H15.9954C16.7317 19.7774 17.3288 20.2753 17.3288 20.8887C17.3288 21.5022 16.7317 22 15.9954 22H7.9977C7.26136 22 6.66429 21.5022 6.66429 20.8887C6.66429 20.2753 7.26136 19.7774 7.9977 19.7774H10.6645V4.22258H2.66682V6.44516C2.66682 7.05862 2.06975 7.55645 1.33341 7.55645C0.59707 7.55645 0 7.05701 0 6.44516V3.11129C0 2.49783 0.59707 2 1.33341 2H22.6666C23.4029 2 24 2.49783 24 3.11129V6.44516C24 7.05862 23.4029 7.55645 22.6666 7.55645C21.9302 7.55645 21.3332 7.05862 21.3332 6.44516V4.22258H13.3355L13.3327 19.7774Z" fill="black"/>
</svg>
