<svg width="14" height="14" viewBox="0 0 14 14" fill="none" xmlns="http://www.w3.org/2000/svg">
<g clip-path="url(#clip0_1028_7543)">
<path d="M9.33333 7C9.33333 7.32214 9.07243 7.58333 8.75 7.58333H7C6.67786 7.58333 6.41667 7.32214 6.41667 7V4.66667C6.41667 4.34452 6.67786 4.08333 7 4.08333C7.32214 4.08333 7.58333 4.34452 7.58333 4.66667V6.41667H8.75C9.07243 6.41667 9.33333 6.67786 9.33333 7Z" fill="#E17100"/>
<path fill-rule="evenodd" clip-rule="evenodd" d="M14 7C14 10.866 10.866 14 7 14C3.13401 14 0 10.866 0 7C0 3.13401 3.13401 0 7 0C10.866 0 14 3.13401 14 7ZM12.8333 7C12.8333 10.2217 10.2217 12.8333 7 12.8333C3.77834 12.8333 1.16667 10.2217 1.16667 7C1.16667 3.77834 3.77834 1.16667 7 1.16667C10.2217 1.16667 12.8333 3.77834 12.8333 7Z" fill="#E17100"/>
</g>
<defs>
<clipPath id="clip0_1028_7543">
<rect width="14" height="14" fill="white"/>
</clipPath>
</defs>
</svg>
