<svg width="24" height="24" viewBox="0 0 24 24" fill="none" xmlns="http://www.w3.org/2000/svg">
<g clip-path="url(#clip0_18_589)">
<path d="M18.656 0.929999L6.464 13.122C5.99834 13.5851 5.62917 14.136 5.37788 14.7428C5.12658 15.3496 4.99814 16.0002 5 16.657V18C5 18.2652 5.10535 18.5196 5.29289 18.7071C5.48043 18.8946 5.73478 19 6 19H7.34299C7.99976 19.0018 8.65036 18.8734 9.25715 18.6221C9.86394 18.3708 10.4148 18.0016 10.878 17.536L23.07 5.34399C23.6544 4.75817 23.9826 3.96447 23.9826 3.137C23.9826 2.30952 23.6544 1.51583 23.07 0.929999C22.4757 0.361893 21.6852 0.0448493 20.863 0.0448493C20.0408 0.0448493 19.2503 0.361893 18.656 0.929999ZM21.656 3.93L9.46399 16.122C8.90012 16.6824 8.138 16.9979 7.34299 17H6.99999V16.657C7.00208 15.862 7.31756 15.0999 7.87799 14.536L20.07 2.344C20.2836 2.13995 20.5676 2.02609 20.863 2.02609C21.1584 2.02609 21.4424 2.13995 21.656 2.344C21.8659 2.55451 21.9838 2.83969 21.9838 3.137C21.9838 3.43431 21.8659 3.71948 21.656 3.93Z" fill="black"/>
<path d="M23 8.97899C22.7348 8.97899 22.4804 9.08435 22.2929 9.27189C22.1053 9.45942 22 9.71378 22 9.97899V15H18C17.2043 15 16.4413 15.3161 15.8787 15.8787C15.3161 16.4413 15 17.2043 15 18V22H5C4.20435 22 3.44129 21.6839 2.87868 21.1213C2.31607 20.5587 2 19.7956 2 19V5C2 4.20435 2.31607 3.44129 2.87868 2.87868C3.44129 2.31607 4.20435 2 5 2H14.042C14.3072 2 14.5616 1.89464 14.7491 1.70711C14.9366 1.51957 15.042 1.26522 15.042 0.999999C15.042 0.734783 14.9366 0.480429 14.7491 0.292893C14.5616 0.105357 14.3072 0 14.042 0H5C3.6744 0.00158786 2.40356 0.528881 1.46622 1.46622C0.528882 2.40356 0.00158786 3.6744 0 5V19C0.00158786 20.3256 0.528882 21.5964 1.46622 22.5338C2.40356 23.4711 3.6744 23.9984 5 24H16.343C16.9999 24.0019 17.6507 23.8734 18.2576 23.6221C18.8646 23.3708 19.4157 23.0017 19.879 22.536L22.535 19.878C23.0007 19.4149 23.37 18.864 23.6215 18.2572C23.873 17.6504 24.0016 16.9998 24 16.343V9.97899C24 9.71378 23.8946 9.45942 23.7071 9.27189C23.5196 9.08435 23.2652 8.97899 23 8.97899ZM18.465 21.122C18.063 21.523 17.5547 21.8006 17 21.922V18C17 17.7348 17.1053 17.4804 17.2929 17.2929C17.4804 17.1053 17.7348 17 18 17H21.925C21.8013 17.5535 21.524 18.0609 21.125 18.464L18.465 21.122Z" fill="black"/>
</g>
<defs>
<clipPath id="clip0_18_589">
<rect width="24" height="24" fill="white"/>
</clipPath>
</defs>
</svg>
