<svg width="20" height="21" viewBox="0 0 20 21" fill="none" xmlns="http://www.w3.org/2000/svg">
<g clip-path="url(#clip0_19_11740)">
<path d="M14.3725 9.06583C14.775 9.46 15.3042 9.65667 15.8333 9.65667C16.3625 9.65667 16.8917 9.46 17.2933 9.06583L18.7792 7.6125C20.4042 5.9875 20.4042 3.34417 18.7792 1.72C17.9925 0.933333 16.9458 0.5 15.8333 0.5C14.7208 0.5 13.6742 0.933333 12.8867 1.72C11.2625 3.345 11.2625 5.98833 12.8933 7.61917L14.3725 9.06583ZM14.065 2.89917C14.5375 2.42667 15.165 2.16667 15.8333 2.16667C16.5017 2.16667 17.1292 2.42667 17.6008 2.89833C18.5758 3.87333 18.5758 5.45917 17.6075 6.4275L16.1283 7.87417C15.9658 8.03417 15.7008 8.03417 15.5383 7.87417L14.0658 6.43417C13.0917 5.45917 13.0917 3.87333 14.0658 2.89833L14.065 2.89917ZM3.33333 18.8333C3.33333 19.7542 2.5875 20.5 1.66667 20.5C0.745833 20.5 0 19.7542 0 18.8333C0 17.9125 0.745833 17.1667 1.66667 17.1667C2.5875 17.1667 3.33333 17.9125 3.33333 18.8333ZM12.0833 13.8333C12.0833 14.7542 11.3375 15.5 10.4167 15.5C9.49583 15.5 8.75 14.7542 8.75 13.8333C8.75 12.9125 9.49583 12.1667 10.4167 12.1667C11.3375 12.1667 12.0833 12.9125 12.0833 13.8333ZM1.66667 11.3333C1.66667 9.495 3.16167 8 5 8H10.8333C11.2933 8 11.6667 8.37333 11.6667 8.83333C11.6667 9.29333 11.2933 9.66667 10.8333 9.66667H5C4.08083 9.66667 3.33333 10.4142 3.33333 11.3333C3.33333 12.2525 4.08083 13 5 13H6.66667C7.12667 13 7.5 13.3733 7.5 13.8333C7.5 14.2933 7.12667 14.6667 6.66667 14.6667H5C3.16167 14.6667 1.66667 13.1717 1.66667 11.3333ZM20 16.3333C20 18.1717 18.505 19.6667 16.6667 19.6667H5.83333C5.37333 19.6667 5 19.2933 5 18.8333C5 18.3733 5.37333 18 5.83333 18H16.6667C17.5858 18 18.3333 17.2525 18.3333 16.3333C18.3333 15.4142 17.5858 14.6667 16.6667 14.6667H14.1667C13.7067 14.6667 13.3333 14.2933 13.3333 13.8333C13.3333 13.3733 13.7067 13 14.1667 13H16.6667C18.505 13 20 14.495 20 16.3333ZM16.6675 4.48917C16.6675 4.94917 16.2942 5.3225 15.8342 5.3225C15.3742 5.3225 15.0008 4.94917 15.0008 4.48917C15.0008 4.02917 15.3742 3.65583 15.8342 3.65583C16.2942 3.65583 16.6675 4.02917 16.6675 4.48917Z" fill="white"/>
</g>
<defs>
<clipPath id="clip0_19_11740">
<rect width="20" height="20" fill="white" transform="translate(0 0.5)"/>
</clipPath>
</defs>
</svg>
