<svg width="17" height="16" viewBox="0 0 17 16" fill="none" xmlns="http://www.w3.org/2000/svg">
<path d="M1.5 3.8H3.05556M3.05556 3.8H15.5M3.05556 3.8V13.6C3.05556 13.9713 3.21944 14.3274 3.51117 14.5899C3.80289 14.8525 4.19855 15 4.61111 15H12.3889C12.8014 15 13.1971 14.8525 13.4888 14.5899C13.7806 14.3274 13.9444 13.9713 13.9444 13.6V3.8H3.05556ZM5.38889 3.8V2.4C5.38889 2.0287 5.55278 1.6726 5.8445 1.41005C6.13622 1.1475 6.53189 1 6.94444 1H10.0556C10.4681 1 10.8638 1.1475 11.1555 1.41005C11.4472 1.6726 11.6111 2.0287 11.6111 2.4V3.8M6.94444 7.3V11.5M10.0556 7.3V11.5" fill="none" stroke="currentColor" stroke-width="2" stroke-linecap="round" stroke-linejoin="round"/>
</svg>
