<svg width="17" height="17" viewBox="0 0 17 17" fill="none" xmlns="http://www.w3.org/2000/svg">
<g clip-path="url(#clip0_85_5274)">
<path fill-rule="evenodd" clip-rule="evenodd" d="M4.57017 1.97738H3.16667C2.43029 1.97738 1.83333 2.57433 1.83333 3.31071V4.71422C1.83333 5.4506 2.43029 6.04755 3.16667 6.04755H4.57018C5.30655 6.04755 5.90351 5.4506 5.90351 4.71422V3.31071C5.90351 2.57433 5.30655 1.97738 4.57017 1.97738ZM3.16667 0.644043C1.69391 0.644043 0.5 1.83795 0.5 3.31071V4.71422C0.5 6.18698 1.69391 7.38089 3.16667 7.38089H4.57018C6.04293 7.38089 7.23684 6.18698 7.23684 4.71422V3.31071C7.23684 1.83795 6.04293 0.644043 4.57017 0.644043H3.16667Z" fill="black"/>
<path fill-rule="evenodd" clip-rule="evenodd" d="M1.83333 11.2405V15.3107H5.90351V11.2405H1.83333ZM1.16667 9.9072C0.798477 9.9072 0.5 10.2057 0.5 10.5739V15.9774C0.5 16.3456 0.798478 16.644 1.16667 16.644H6.57018C6.93837 16.644 7.23684 16.3456 7.23684 15.9774V10.5739C7.23684 10.2057 6.93836 9.9072 6.57017 9.9072H1.16667Z" fill="black"/>
<path fill-rule="evenodd" clip-rule="evenodd" d="M11.0965 1.97738V6.04755H15.1667V1.97738H11.0965ZM10.4298 0.644043C10.0616 0.644043 9.76316 0.94252 9.76316 1.31071V6.71422C9.76316 7.08241 10.0616 7.38089 10.4298 7.38089H15.8333C16.2015 7.38089 16.5 7.08241 16.5 6.71422V1.31071C16.5 0.94252 16.2015 0.644043 15.8333 0.644043H10.4298Z" fill="black"/>
<path fill-rule="evenodd" clip-rule="evenodd" d="M15.1667 15.3107V14.5739C15.1667 12.7329 13.6743 11.2405 11.8333 11.2405H11.0965V15.3107H15.1667ZM15.8333 16.644C16.2015 16.644 16.5 16.3456 16.5 15.9774V14.5739C16.5 11.9965 14.4107 9.9072 11.8333 9.9072H10.4298C10.0616 9.9072 9.76316 10.2057 9.76316 10.5739V15.9774C9.76316 16.3456 10.0616 16.644 10.4298 16.644H15.8333Z" fill="black"/>
</g>
<defs>
<clipPath id="clip0_85_5274">
<rect width="16" height="16" fill="white" transform="translate(0.5 0.644043)"/>
</clipPath>
</defs>
</svg>
