<svg width="18" height="18" viewBox="0 0 18 18" fill="none" xmlns="http://www.w3.org/2000/svg">
<g clip-path="url(#clip0_631_1528)">
<path d="M15 18C14.8011 18 14.6103 17.921 14.4697 17.7803C14.329 17.6397 14.25 17.4489 14.25 17.25C14.25 15.8576 13.6969 14.5223 12.7123 13.5377C11.7277 12.5531 10.3924 12 9 12C7.60761 12 6.27226 12.5531 5.28769 13.5377C4.30312 14.5223 3.75 15.8576 3.75 17.25C3.75 17.4489 3.67098 17.6397 3.53033 17.7803C3.38968 17.921 3.19891 18 3 18C2.80109 18 2.61032 17.921 2.46967 17.7803C2.32902 17.6397 2.25 17.4489 2.25 17.25C2.25 15.4598 2.96116 13.7429 4.22703 12.477C5.4929 11.2112 7.20979 10.5 9 10.5C10.7902 10.5 12.5071 11.2112 13.773 12.477C15.0388 13.7429 15.75 15.4598 15.75 17.25C15.75 17.4489 15.671 17.6397 15.5303 17.7803C15.3897 17.921 15.1989 18 15 18ZM9 9C8.10998 9 7.23996 8.73608 6.49993 8.24162C5.75991 7.74715 5.18314 7.04435 4.84254 6.22208C4.50195 5.39981 4.41283 4.49501 4.58647 3.6221C4.7601 2.74918 5.18868 1.94736 5.81802 1.31802C6.44736 0.688685 7.24918 0.260102 8.12209 0.0864683C8.99501 -0.0871653 9.89981 0.00194979 10.7221 0.342544C11.5443 0.683139 12.2471 1.25991 12.7416 1.99994C13.2361 2.73996 13.5 3.60999 13.5 4.5C13.4988 5.69311 13.0243 6.83701 12.1807 7.68067C11.337 8.52432 10.1931 8.99881 9 9ZM9 1.5C8.40666 1.5 7.82664 1.67595 7.33329 2.00559C6.83994 2.33524 6.45542 2.80377 6.22836 3.35195C6.0013 3.90013 5.94189 4.50333 6.05764 5.08527C6.1734 5.66722 6.45912 6.20177 6.87868 6.62132C7.29824 7.04088 7.83279 7.3266 8.41473 7.44236C8.99667 7.55812 9.59987 7.49871 10.1481 7.27164C10.6962 7.04458 11.1648 6.66006 11.4944 6.16671C11.8241 5.67337 12 5.09335 12 4.5C12 3.70435 11.6839 2.94129 11.1213 2.37868C10.5587 1.81607 9.79565 1.5 9 1.5Z" fill="black"/>
</g>
<defs>
<clipPath id="clip0_631_1528">
<rect width="18" height="18" fill="white"/>
</clipPath>
</defs>
</svg>
