<svg width="24" height="24" viewBox="0 0 24 24" fill="none" xmlns="http://www.w3.org/2000/svg">
<path d="M11.8436 6.19978V11.2373L9.41035 13.6705C9.29328 13.7964 9.22961 13.9627 9.23271 14.1346C9.23582 14.3064 9.30547 14.4704 9.42701 14.5919C9.54854 14.7134 9.71248 14.7831 9.88433 14.7862C10.0562 14.7893 10.2225 14.7256 10.3484 14.6086L12.9752 11.9817C13.0997 11.8573 13.1698 11.6887 13.1699 11.5127V6.19978C13.1699 6.02375 13.1 5.85494 12.9755 5.73047C12.8511 5.606 12.6823 5.53607 12.5062 5.53607C12.3302 5.53607 12.1614 5.606 12.0369 5.73047C11.9125 5.85494 11.8425 6.02375 11.8425 6.19978H11.8436Z" fill="black"/>
<path d="M20.3363 4.44101C20.1602 4.44101 19.9914 4.51094 19.867 4.63541C19.7425 4.75988 19.6726 4.9287 19.6726 5.10472V6.9474C18.881 5.70047 17.7781 4.68137 16.4726 3.9906C15.1671 3.29982 13.7041 2.96122 12.2279 3.00817C10.7517 3.05513 9.31317 3.48602 8.05423 4.25836C6.79529 5.03071 5.75938 6.11783 5.04864 7.41255C4.33789 8.70727 3.97687 10.1649 4.00115 11.6417C4.02543 13.1184 4.43418 14.5634 5.18711 15.834C5.94003 17.1047 7.01112 18.1572 8.29477 18.8877C9.57843 19.6182 11.0303 20.0016 12.5073 20H12.5406C12.7794 20 13.0215 19.9903 13.2581 19.9699C13.3474 19.9661 13.435 19.9444 13.5156 19.9059C13.5963 19.8675 13.6683 19.8132 13.7275 19.7463C13.7866 19.6793 13.8317 19.6011 13.8599 19.5163C13.8881 19.4316 13.8989 19.342 13.8917 19.2529C13.8844 19.1639 13.8593 19.0772 13.8177 18.9981C13.7762 18.919 13.7191 18.8492 13.6499 18.7927C13.5807 18.7362 13.5008 18.6942 13.415 18.6693C13.3292 18.6444 13.2393 18.6371 13.1506 18.6478C12.9505 18.6651 12.7461 18.6726 12.5439 18.6726H12.5073C11.2531 18.672 10.021 18.3422 8.93417 17.7162C7.84737 17.0901 6.94392 16.1898 6.31415 15.1052C5.68438 14.0205 5.35035 12.7896 5.34544 11.5354C5.34053 10.2811 5.66492 9.04762 6.28619 7.95808C6.90745 6.86854 7.80382 5.96116 8.88569 5.32665C9.96756 4.69213 11.197 4.3527 12.4512 4.3423C13.7054 4.33189 14.9403 4.65087 16.0326 5.26735C17.1248 5.88383 18.0361 6.77622 18.6754 7.8553H16.8467C16.6707 7.8553 16.5018 7.92523 16.3774 8.0497C16.2529 8.17417 16.183 8.34298 16.183 8.51901C16.183 8.69504 16.2529 8.86385 16.3774 8.98832C16.5018 9.11279 16.6707 9.18272 16.8467 9.18272H18.8722C19.2617 9.18325 19.6436 9.07603 19.9759 8.87292C19.9963 8.86107 20.0161 8.84814 20.0351 8.83419C20.3297 8.6412 20.5717 8.37791 20.7392 8.06805C20.9068 7.75819 20.9945 7.41152 20.9946 7.05928V5.10472C20.9946 4.92962 20.9254 4.76162 20.8021 4.6373C20.6788 4.51298 20.5114 4.44243 20.3363 4.44101Z" fill="black"/>
<path fill-rule="evenodd" clip-rule="evenodd" d="M20.9999 12.9746L19.4789 13.8201V14.6806C19.4812 14.7153 19.4763 14.7501 19.4646 14.7828C19.4529 14.8154 19.4346 14.8454 19.4108 14.8707C19.3871 14.8961 19.3584 14.9163 19.3265 14.9301C19.2947 14.9439 19.2603 14.951 19.2256 14.951C19.1908 14.951 19.1565 14.9439 19.1246 14.9301C19.0928 14.9163 19.0641 14.8961 19.0403 14.8707C19.0166 14.8454 18.9983 14.8154 18.9866 14.7828C18.9749 14.7501 18.97 14.7153 18.9722 14.6806V14.0976L17.9579 14.6613V18.0412L20.8698 16.4276C20.9099 16.4052 20.9432 16.3724 20.9661 16.3326C20.989 16.2929 21.0007 16.2476 20.9999 16.2017V12.9746ZM14.407 12.9746V16.2017C14.407 16.2469 14.419 16.2912 14.4419 16.3302C14.4648 16.3691 14.4977 16.4013 14.5371 16.4233L17.449 18.0368V14.6602L14.407 12.9746ZM16.2281 16.3523L16.7348 16.6341C16.7932 16.6627 16.8604 16.6678 16.9224 16.6484C16.9845 16.6289 17.0367 16.5863 17.0683 16.5295C17.0999 16.4726 17.1085 16.4058 17.0923 16.3428C17.076 16.2798 17.0363 16.2254 16.9811 16.1909L16.4745 15.9091C16.4453 15.8908 16.4126 15.8787 16.3786 15.8734C16.3446 15.8682 16.3098 15.8699 16.2764 15.8785C16.2431 15.8871 16.2118 15.9024 16.1846 15.9234C16.1573 15.9445 16.1346 15.9709 16.1179 16.001C16.1012 16.0311 16.0907 16.0643 16.0872 16.0985C16.0837 16.1328 16.0872 16.1674 16.0976 16.2003C16.1079 16.2332 16.1248 16.2636 16.1472 16.2897C16.1697 16.3159 16.1972 16.3371 16.2281 16.3523ZM14.6608 12.5314L15.6774 11.9666L18.7195 13.6566L17.7029 14.2213L14.6608 12.5314ZM16.1991 11.6762L19.2412 13.3672L20.7472 12.5314L17.8266 10.9092C17.7889 10.8884 17.7465 10.8775 17.7034 10.8775C17.6604 10.8775 17.618 10.8884 17.5803 10.9092L16.1991 11.6762Z" fill="black"/>
</svg>
