<svg width="85" height="80" viewBox="0 0 85 80" fill="none" xmlns="http://www.w3.org/2000/svg">
<path d="M14.7963 11.1726H27.4398C29.925 11.1727 31.9398 13.1874 31.9398 15.6726V74.3689C31.9396 76.8539 29.9249 78.8688 27.4398 78.8689H14.7963C12.3111 78.8689 10.2965 76.854 10.2963 74.3689V15.6726L10.3021 15.4412C10.4226 13.0634 12.3886 11.1726 14.7963 11.1726Z" fill="white" stroke="#AAAFC6"/>
<path d="M41.0494 11.1726H53.693C56.1782 11.1727 58.193 13.1874 58.193 15.6726V74.3689C58.1927 76.8539 56.178 78.8688 53.693 78.8689H41.0494C38.5643 78.8689 36.5497 76.854 36.5494 74.3689V15.6726L36.5553 15.4412C36.6758 13.0634 38.6418 11.1726 41.0494 11.1726Z" fill="white" stroke="#AAAFC6"/>
<path d="M67.3026 11.1726H79.9462C82.4314 11.1727 84.4462 13.1874 84.4462 15.6726V74.3689C84.4459 76.8539 82.4312 78.8688 79.9462 78.8689H67.3026C64.8175 78.8689 62.8029 76.854 62.8026 74.3689V15.6726L62.8085 15.4412C62.9289 13.0634 64.895 11.1726 67.3026 11.1726Z" fill="white" stroke="#AAAFC6"/>
<path d="M14.7963 11.1726H27.4398C29.925 11.1727 31.9398 13.1874 31.9398 15.6726V20.3416H10.2963V15.6726C10.2963 13.1873 12.311 11.1726 14.7963 11.1726Z" fill="#AAAFC6" stroke="#AAAFC6"/>
<path d="M13.4216 22.2776H28.8142C29.0903 22.2776 29.3142 22.5014 29.3142 22.7776V31.55C29.3142 31.8262 29.0904 32.05 28.8142 32.05H13.4216C13.1455 32.05 12.9216 31.8262 12.9216 31.55V22.7776C12.9216 22.5014 13.1455 22.2776 13.4216 22.2776Z" fill="#AAAFC6" stroke="#AAAFC6"/>
<path d="M65.928 22.2776H81.3206C81.5967 22.2776 81.8206 22.5014 81.8206 22.7776V24.8206C81.8205 25.0967 81.5967 25.3206 81.3206 25.3206H65.928C65.6519 25.3206 65.428 25.0967 65.428 24.8206V22.7776C65.428 22.5014 65.6518 22.2776 65.928 22.2776Z" fill="#AAAFC6" stroke="#AAAFC6"/>
<path d="M39.6748 22.2776H55.0674C55.3435 22.2776 55.5674 22.5014 55.5674 22.7776V37.4045C55.5674 37.6807 55.3435 37.9045 55.0674 37.9045H39.6748C39.3987 37.9045 39.1748 37.6807 39.1748 37.4045V22.7776C39.1748 22.5014 39.3987 22.2776 39.6748 22.2776Z" fill="#AAAFC6" stroke="#AAAFC6"/>
<path d="M13.4216 34.8616H28.8142C29.0903 34.8616 29.3142 35.0854 29.3142 35.3616V37.4045C29.3142 37.6806 29.0903 37.9045 28.8142 37.9045H13.4216C13.1455 37.9045 12.9217 37.6806 12.9216 37.4045V35.3616C12.9216 35.0854 13.1455 34.8616 13.4216 34.8616Z" fill="#AAAFC6" stroke="#AAAFC6"/>
<path d="M39.6748 40.9873H55.0674C55.3435 40.9873 55.5674 41.2112 55.5674 41.4873V43.5303C55.5673 43.8064 55.3435 44.0303 55.0674 44.0303H39.6748C39.3987 44.0303 39.1749 43.8064 39.1748 43.5303V41.4873C39.1748 41.2112 39.3987 40.9873 39.6748 40.9873Z" fill="#AAAFC6" stroke="#AAAFC6"/>
<path d="M65.928 28.7358H81.3206C81.5967 28.7358 81.8206 28.9597 81.8206 29.2358V37.4048C81.8204 37.6808 81.5966 37.9048 81.3206 37.9048H65.928C65.6519 37.9048 65.4282 37.6808 65.428 37.4048V29.2358C65.428 28.9597 65.6518 28.7358 65.928 28.7358Z" fill="#AAAFC6" stroke="#AAAFC6"/>
<path d="M41.0494 11.1726H53.693C56.1782 11.1727 58.193 13.1874 58.193 15.6726V20.3416H36.5494V15.6726C36.5494 13.1873 38.5642 11.1726 41.0494 11.1726Z" fill="#AAAFC6" stroke="#AAAFC6"/>
<path d="M67.3026 11.1726H79.9462C82.4314 11.1727 84.4462 13.1874 84.4462 15.6726V20.3416H62.8026V15.6726C62.8026 13.1873 64.8173 11.1726 67.3026 11.1726Z" fill="#AAAFC6" stroke="#AAAFC6"/>
<path d="M9.79688 0.946045C14.6549 0.946243 18.5928 4.88486 18.5928 9.74292C18.5926 14.6008 14.6548 18.5386 9.79688 18.5388C4.93882 18.5388 1.0002 14.6009 1 9.74292C1 4.88474 4.9387 0.946045 9.79688 0.946045Z" fill="white" stroke="#AAAFC6"/>
<path d="M10.8364 11.6198C10.7546 11.6199 10.6789 11.5764 10.6377 11.5058L9.69508 9.89289C9.63002 9.78166 9.59572 9.65512 9.5957 9.52625V7.09351C9.5957 6.96649 9.69867 6.86353 9.82568 6.86353C9.95269 6.86353 10.0557 6.96649 10.0557 7.09351V9.52625C10.0557 9.57354 10.0683 9.61998 10.0922 9.66078L11.0348 11.2738C11.0763 11.3449 11.0766 11.4327 11.0357 11.5041C10.9947 11.5756 10.9188 11.6197 10.8364 11.6198Z" fill="#AAAFC6"/>
<path d="M13.6769 11.8584C14.46 10.4981 14.46 8.82384 13.6769 7.46349C13.6749 7.4561 13.6724 7.44882 13.6696 7.44169C13.6637 7.43406 13.6573 7.42682 13.6505 7.42004C13.2657 6.76605 12.7205 6.22092 12.0666 5.83611C12.0562 5.82179 12.0405 5.81225 12.023 5.80963C10.6627 5.02668 8.98862 5.02667 7.62833 5.8096C7.61083 5.81222 7.59511 5.82178 7.58473 5.83611C6.93065 6.22097 6.38546 6.7662 6.00063 7.4203C5.99389 7.42701 5.98759 7.43415 5.98179 7.44169C5.97902 7.4487 5.97661 7.45584 5.97459 7.4631C5.19125 8.82365 5.19125 10.4983 5.97459 11.8588C5.97661 11.8661 5.97902 11.8732 5.98179 11.8802C5.9897 11.8928 5.99881 11.9046 6.00901 11.9154C6.39335 12.5634 6.93541 13.1037 7.58473 13.4858C7.59151 13.4927 7.59873 13.499 7.60636 13.5049C7.61613 13.5098 7.62624 13.514 7.63661 13.5174C8.99276 14.2936 10.6585 14.2936 12.0147 13.5174C12.025 13.514 12.0351 13.5098 12.0449 13.5049C12.0525 13.499 12.0598 13.4927 12.0665 13.4858C12.7156 13.1038 13.2575 12.5638 13.6419 11.9161C13.6523 11.9051 13.6616 11.8931 13.6696 11.8802C13.6724 11.8731 13.6749 11.8658 13.6769 11.8584ZM12.0093 12.9831L11.7567 12.5455C11.6932 12.4355 11.5525 12.3978 11.4425 12.4613C11.3324 12.5248 11.2947 12.6654 11.3582 12.7755L11.6102 13.2119C11.1261 13.4559 10.5969 13.5975 10.0556 13.6279L10.0556 13.1246C10.0556 12.9976 9.95266 12.8946 9.82565 12.8946C9.69863 12.8946 9.59567 12.9976 9.59567 13.1246V13.6279C9.0544 13.5975 8.52521 13.4559 8.04112 13.2119L8.29305 12.7755C8.35656 12.6654 8.31885 12.5248 8.20883 12.4613C8.09881 12.3978 7.95814 12.4355 7.89463 12.5455L7.64202 12.9831C7.18944 12.6845 6.80215 12.2972 6.50358 11.8446L6.94113 11.592C7.05116 11.5285 7.08886 11.3878 7.02536 11.2778C6.96185 11.1678 6.82118 11.1301 6.71115 11.1936L6.27474 11.4455C6.03071 10.9614 5.88909 10.4322 5.85871 9.89095L6.36215 9.89095C6.48916 9.89095 6.59213 9.78798 6.59213 9.66097C6.59213 9.53395 6.48916 9.43099 6.36215 9.43099H5.8587C5.88908 8.88971 6.03071 8.3605 6.27473 7.87639L6.71115 8.12838C6.82118 8.19188 6.96185 8.15418 7.02536 8.04415C7.08886 7.93413 7.05116 7.79346 6.94113 7.72996L6.50358 7.4773C6.80215 7.02472 7.18944 6.63743 7.64202 6.33886L7.89463 6.77644C7.95814 6.88647 8.09881 6.92417 8.20883 6.86066C8.31885 6.79716 8.35656 6.65648 8.29305 6.54646L8.0411 6.11003C8.5252 5.86601 9.0544 5.72439 9.59567 5.694V6.19747C9.59567 6.32448 9.69863 6.42745 9.82565 6.42745C9.95266 6.42745 10.0556 6.32448 10.0556 6.19747V5.69402C10.5969 5.7244 11.1261 5.86603 11.6102 6.11005L11.3582 6.54648C11.2947 6.6565 11.3324 6.79718 11.4425 6.86068C11.5525 6.92419 11.6932 6.88648 11.7567 6.77646L12.0093 6.33888C12.4619 6.63746 12.8492 7.02476 13.1477 7.47735L12.7102 7.72996C12.6001 7.79346 12.5624 7.93414 12.6259 8.04416C12.6894 8.15418 12.8301 8.19189 12.9401 8.12838L13.3766 7.87643C13.6206 8.36053 13.7622 8.88973 13.7926 9.431H13.2893C13.1623 9.431 13.0593 9.53396 13.0593 9.66098C13.0593 9.78799 13.1623 9.89096 13.2893 9.89096H13.7926C13.7622 10.4322 13.6206 10.9614 13.3766 11.4455L12.9401 11.1936C12.8301 11.1301 12.6894 11.1678 12.6259 11.2778C12.5624 11.3878 12.6001 11.5285 12.7102 11.592L13.1477 11.8446C12.8492 12.2972 12.4619 12.6845 12.0093 12.9831Z" fill="#AAAFC6"/>
<path d="M15.7413 13.4635L14.8743 13.6877C16.705 11.3312 16.6739 8.02477 14.7991 5.7031C12.9243 3.38143 9.69865 2.65465 7.00938 3.94799C4.32012 5.24133 2.87403 8.2149 3.51723 11.1289C4.16043 14.0428 6.72387 16.1314 9.70769 16.1725L9.71084 16.1725C9.83785 16.1733 9.94147 16.071 9.94228 15.944C9.94308 15.817 9.84077 15.7133 9.71375 15.7125C6.93729 15.6767 4.55053 13.7349 3.95056 11.0238C3.35059 8.31272 4.69519 5.54519 7.19728 4.34121C9.69937 3.13723 12.701 3.81339 14.4452 5.9739C16.1894 8.13441 16.2175 11.2112 14.5131 13.4032L14.5835 12.4996C14.5933 12.373 14.4987 12.2623 14.3721 12.2525C14.2455 12.2426 14.1348 12.3373 14.125 12.4639L14.0139 13.8892C14.0052 14.0061 14.0534 14.12 14.1433 14.1951C14.2332 14.2703 14.3538 14.2975 14.4673 14.2682L15.8564 13.9089C15.9794 13.8771 16.0533 13.7516 16.0216 13.6286C15.9898 13.5057 15.8643 13.4317 15.7413 13.4635Z" fill="#AAAFC6"/>
<line x1="10.6714" y1="27.0996" x2="31.6739" y2="27.0996" stroke="#AAAFC6" stroke-width="0.4" stroke-dasharray="1"/>
<line x1="36.9246" y1="27.0996" x2="57.9271" y2="27.0996" stroke="#AAAFC6" stroke-width="0.4" stroke-dasharray="1"/>
<line x1="63.123" y1="27.0996" x2="84.1256" y2="27.0996" stroke="#AAAFC6" stroke-width="0.4" stroke-dasharray="1"/>
<line x1="10.6714" y1="45.4768" x2="31.6739" y2="45.4768" stroke="#AAAFC6" stroke-width="0.4" stroke-dasharray="1"/>
<line x1="36.9246" y1="45.4768" x2="57.9271" y2="45.4768" stroke="#AAAFC6" stroke-width="0.4" stroke-dasharray="1"/>
<line x1="63.123" y1="45.4768" x2="84.1256" y2="45.4768" stroke="#AAAFC6" stroke-width="0.4" stroke-dasharray="1"/>
<line x1="10.6714" y1="64.1865" x2="31.6739" y2="64.1865" stroke="#AAAFC6" stroke-width="0.4" stroke-dasharray="1"/>
<line x1="36.9246" y1="64.1865" x2="57.9271" y2="64.1865" stroke="#AAAFC6" stroke-width="0.4" stroke-dasharray="1"/>
<line x1="63.123" y1="64.1865" x2="84.1256" y2="64.1865" stroke="#AAAFC6" stroke-width="0.4" stroke-dasharray="1"/>
<line x1="10.6714" y1="33.2253" x2="31.6739" y2="33.2253" stroke="#AAAFC6" stroke-width="0.4" stroke-dasharray="1"/>
<line x1="36.9246" y1="33.2253" x2="57.9271" y2="33.2253" stroke="#AAAFC6" stroke-width="0.4" stroke-dasharray="1"/>
<line x1="63.123" y1="33.2253" x2="84.1256" y2="33.2253" stroke="#AAAFC6" stroke-width="0.4" stroke-dasharray="1"/>
<line x1="10.6714" y1="51.6025" x2="31.6739" y2="51.6025" stroke="#AAAFC6" stroke-width="0.4" stroke-dasharray="1"/>
<line x1="36.9246" y1="51.6025" x2="57.9271" y2="51.6025" stroke="#AAAFC6" stroke-width="0.4" stroke-dasharray="1"/>
<line x1="63.123" y1="51.6025" x2="84.1256" y2="51.6025" stroke="#AAAFC6" stroke-width="0.4" stroke-dasharray="1"/>
<line x1="10.6714" y1="70.3122" x2="31.6739" y2="70.3122" stroke="#AAAFC6" stroke-width="0.4" stroke-dasharray="1"/>
<line x1="36.9246" y1="70.3122" x2="57.9271" y2="70.3122" stroke="#AAAFC6" stroke-width="0.4" stroke-dasharray="1"/>
<line x1="63.123" y1="70.3122" x2="84.1256" y2="70.3122" stroke="#AAAFC6" stroke-width="0.4" stroke-dasharray="1"/>
<line x1="10.6714" y1="39.351" x2="31.6739" y2="39.351" stroke="#AAAFC6" stroke-width="0.4" stroke-dasharray="1"/>
<line x1="36.9246" y1="39.351" x2="57.9271" y2="39.351" stroke="#AAAFC6" stroke-width="0.4" stroke-dasharray="1"/>
<line x1="63.123" y1="39.351" x2="84.1256" y2="39.351" stroke="#AAAFC6" stroke-width="0.4" stroke-dasharray="1"/>
<line x1="10.6714" y1="57.7282" x2="31.6739" y2="57.7282" stroke="#AAAFC6" stroke-width="0.4" stroke-dasharray="1"/>
<line x1="36.9246" y1="57.7282" x2="57.9271" y2="57.7282" stroke="#AAAFC6" stroke-width="0.4" stroke-dasharray="1"/>
<line x1="63.123" y1="57.7282" x2="84.1256" y2="57.7282" stroke="#AAAFC6" stroke-width="0.4" stroke-dasharray="1"/>
</svg>
