<svg width="87" height="80" viewBox="0 0 87 80" fill="none" xmlns="http://www.w3.org/2000/svg">
<path d="M5.5 1.44604H21.375C23.8603 1.44604 25.875 3.46076 25.875 5.94604V74.446C25.875 76.9313 23.8603 78.946 21.375 78.946H5.5C3.01472 78.946 1 76.9313 1 74.446V5.94604C1 3.46076 3.01472 1.44604 5.5 1.44604Z" fill="white" stroke="#AAAFC6"/>
<path d="M35.5 1.44604H51.375C53.8603 1.44604 55.875 3.46076 55.875 5.94604V74.446C55.875 76.9313 53.8603 78.946 51.375 78.946H35.5C33.0147 78.946 31 76.9313 31 74.446V5.94604C31 3.46076 33.0147 1.44604 35.5 1.44604Z" fill="white" stroke="#AAAFC6"/>
<path d="M65.5 1.44604H81.375C83.8603 1.44604 85.875 3.46076 85.875 5.94604V74.446C85.875 76.9313 83.8603 78.946 81.375 78.946H65.5C63.0147 78.946 61 76.9313 61 74.446V5.94604C61 3.46076 63.0147 1.44604 65.5 1.44604Z" fill="white" stroke="#AAAFC6"/>
<path d="M5.5 1.44604H21.375C23.8603 1.44604 25.875 3.46076 25.875 5.94604V12.0662H1V5.94604C1 3.46076 3.01472 1.44604 5.5 1.44604Z" fill="#AAAFC6" stroke="#AAAFC6"/>
<path d="M4.5 14.136H22.375C22.6511 14.136 22.875 14.3598 22.875 14.636V24.9465C22.8747 25.2225 22.651 25.4465 22.375 25.4465H4.5C4.22402 25.4465 4.00026 25.2225 4 24.9465V14.636C4 14.3598 4.22386 14.136 4.5 14.136Z" fill="#AAAFC6" stroke="#AAAFC6"/>
<path opacity="0.5" d="M4.5 37.8259H22.375C22.6511 37.8259 22.875 38.0498 22.875 38.3259V48.6365C22.8747 48.9124 22.651 49.1365 22.375 49.1365H4.5C4.22402 49.1365 4.00026 48.9124 4 48.6365V38.3259C4 38.0498 4.22386 37.8259 4.5 37.8259Z" fill="#AAAFC6" stroke="#AAAFC6"/>
<path d="M64.5 14.1355H82.375C82.6511 14.1355 82.875 14.3594 82.875 14.6355V17.2556C82.8749 17.5316 82.6511 17.7556 82.375 17.7556H64.5C64.2239 17.7556 64.0001 17.5316 64 17.2556V14.6355C64 14.3594 64.2239 14.1355 64.5 14.1355Z" fill="#AAAFC6" stroke="#AAAFC6"/>
<path d="M64.5 35.5159H82.375C82.6511 35.5159 82.875 35.7397 82.875 36.0159V38.636C82.8749 38.912 82.6511 39.136 82.375 39.136H64.5C64.2239 39.136 64.0001 38.912 64 38.636V36.0159C64 35.7397 64.2239 35.5159 64.5 35.5159Z" fill="#AAAFC6" stroke="#AAAFC6"/>
<path d="M34.5 14.1355H52.375C52.6511 14.1355 52.875 14.3594 52.875 14.6355V31.6355C52.875 31.9116 52.6511 32.1355 52.375 32.1355H34.5C34.2239 32.1355 34 31.9116 34 31.6355V14.6355C34 14.3594 34.2239 14.1355 34.5 14.1355Z" fill="#AAAFC6" stroke="#AAAFC6"/>
<path d="M4.5 28.5159H22.375C22.6511 28.5159 22.875 28.7397 22.875 29.0159V31.636C22.8749 31.912 22.6511 32.136 22.375 32.136H4.5C4.22394 32.136 4.00013 31.912 4 31.636V29.0159C4 28.7397 4.22386 28.5159 4.5 28.5159Z" fill="#AAAFC6" stroke="#AAAFC6"/>
<path opacity="0.5" d="M4.5 52.2058H22.375C22.6511 52.2058 22.875 52.4297 22.875 52.7058V55.3259C22.8749 55.602 22.6511 55.8259 22.375 55.8259H4.5C4.22394 55.8259 4.00013 55.602 4 55.3259V52.7058C4 52.4297 4.22386 52.2058 4.5 52.2058Z" fill="#AAAFC6" stroke="#AAAFC6"/>
<path d="M34.5 35.5159H52.375C52.6511 35.5159 52.875 35.7397 52.875 36.0159V38.636C52.8749 38.912 52.6511 39.136 52.375 39.136H34.5C34.2239 39.136 34.0001 38.912 34 38.636V36.0159C34 35.7397 34.2239 35.5159 34.5 35.5159Z" fill="#AAAFC6" stroke="#AAAFC6"/>
<path opacity="0.5" d="M34.5 44.8259H52.375C52.6511 44.8259 52.875 45.0498 52.875 45.3259V47.946C52.8749 48.2221 52.6511 48.446 52.375 48.446H34.5C34.2239 48.446 34.0001 48.2221 34 47.946V45.3259C34 45.0498 34.2239 44.8259 34.5 44.8259Z" fill="#AAAFC6" stroke="#AAAFC6"/>
<path d="M64.5 21.5159H82.375C82.6511 21.5159 82.875 21.7397 82.875 22.0159V31.636C82.8749 31.912 82.6511 32.136 82.375 32.136H64.5C64.2239 32.136 64.0001 31.912 64 31.636V22.0159C64 21.7397 64.2239 21.5159 64.5 21.5159Z" fill="#AAAFC6" stroke="#AAAFC6"/>
<path opacity="0.5" d="M64.5 45.2058H82.375C82.6511 45.2058 82.875 45.4297 82.875 45.7058V55.3259C82.8749 55.602 82.6511 55.8259 82.375 55.8259H64.5C64.2239 55.8259 64.0001 55.602 64 55.3259V45.7058C64 45.4297 64.2239 45.2058 64.5 45.2058Z" fill="#AAAFC6" stroke="#AAAFC6"/>
<path d="M35.5 1.44604H51.375C53.8603 1.44604 55.875 3.46076 55.875 5.94604V12.0662H31V5.94604C31 3.46076 33.0147 1.44604 35.5 1.44604Z" fill="#AAAFC6" stroke="#AAAFC6"/>
<path d="M65.5 1.44604H81.375C83.8603 1.44604 85.875 3.46076 85.875 5.94604V12.0662H61V5.94604C61 3.46076 63.0147 1.44604 65.5 1.44604Z" fill="#AAAFC6" stroke="#AAAFC6"/>
<line x1="3.5" y1="34.6531" x2="23.5" y2="34.6531" stroke="#AAAFC6" stroke-width="0.5"/>
<line x1="33.5" y1="41.7659" x2="53.5" y2="41.7659" stroke="#AAAFC6" stroke-width="0.5"/>
<line x1="63.5" y1="42.1462" x2="83.5" y2="42.1462" stroke="#AAAFC6" stroke-width="0.5"/>
</svg>
