<svg width="147" height="147" viewBox="0 0 147 147" fill="none" xmlns="http://www.w3.org/2000/svg">
<path d="M75.5127 106.627L55.4497 110.64L44.1647 112.893C42.7388 113.179 41.2644 113.107 39.8726 112.686C38.4808 112.265 37.2145 111.506 36.1862 110.478C35.158 109.449 34.3995 108.183 33.9781 106.791C33.5567 105.4 33.4855 103.925 33.7707 102.499L36.0257 91.2193L40.0387 71.1533L75.5127 106.627Z" fill="#2D3D35"/>
<path d="M40.0369 71.1562L36.0239 91.2232L49.1119 97.5542L55.4449 110.642L75.5079 106.629L40.0369 71.1562Z" fill="#233029"/>
<path d="M146.054 12.0344L107.017 112.992L96.308 140.692C95.6875 142.298 94.6114 143.687 93.2121 144.689C91.8127 145.691 90.1511 146.262 88.4314 146.333C86.7118 146.403 85.009 145.97 83.5324 145.085C82.0558 144.201 80.8697 142.905 80.12 141.355L64.541 86.2304C64.1111 85.3399 63.5336 84.5284 62.833 83.8304L86.154 53.8484L92.891 45.6544L144.061 2.60645C145.284 3.80748 146.126 5.34262 146.48 7.01965C146.835 8.69668 146.687 10.4411 146.055 12.0344H146.054Z" fill="#7A9589"/>
<path d="M107.017 112.994L96.3079 140.694C95.6873 142.299 94.6113 143.688 93.2119 144.69C91.8126 145.692 90.151 146.264 88.4313 146.334C86.7116 146.404 85.0088 145.971 83.5322 145.087C82.0556 144.202 80.8696 142.906 80.1199 141.357L57.0679 93.7047C56.6379 92.8141 56.0605 92.0027 55.3599 91.3047L86.1599 53.8457C85.9169 71.1177 90.9819 91.3787 107.017 112.994Z" fill="#475B52"/>
<path d="M144.061 2.60677L86.3208 60.3468L55.3598 91.3078C54.6617 90.6073 53.8503 90.0298 52.9598 89.5998L5.31577 66.5478C3.76653 65.798 2.4701 64.612 1.58584 63.1354C0.701584 61.6588 0.268023 59.956 0.338455 58.2363C0.408886 56.5167 0.98024 54.855 1.98229 53.4557C2.98433 52.0564 4.37341 50.9803 5.97877 50.3598L95.5628 15.7218L134.631 0.613774C136.224 -0.0182238 137.969 -0.166138 139.646 0.18855C141.323 0.543238 142.858 1.38477 144.059 2.60777L144.061 2.60677Z" fill="#475B52"/>
<path d="M86.3198 60.3477L55.3598 91.3117C54.6617 90.6112 53.8503 90.0337 52.9598 89.6037L5.31577 66.5487C3.76653 65.7989 2.4701 64.6129 1.58584 63.1363C0.701584 61.6597 0.268023 59.9569 0.338455 58.2373C0.408886 56.5176 0.98024 54.856 1.98229 53.4566C2.98433 52.0573 4.37341 50.9812 5.97877 50.3607L95.5628 15.7217C88.63 29.532 85.4429 44.9198 86.3198 60.3477Z" fill="#2D3D35"/>
<path d="M115.623 128.593C131.54 128.593 144.444 115.69 144.444 99.7722C144.444 83.8548 131.54 70.9512 115.623 70.9512C99.7054 70.9512 86.8018 83.8548 86.8018 99.7722C86.8018 115.69 99.7054 128.593 115.623 128.593Z" fill="#F1F2F5"/>
<path d="M129.696 124.925C125.852 127.076 121.566 128.317 117.168 128.554C112.77 128.79 108.376 128.015 104.324 126.289C100.272 124.562 96.6691 121.93 93.7929 118.594C90.9166 115.258 88.8432 111.308 87.7319 107.045C86.6205 102.783 86.5008 98.3233 87.3818 94.0077C88.2629 89.6921 90.1214 85.6359 92.8145 82.1506C95.5076 78.6652 98.9637 75.8435 102.917 73.902C106.871 71.9606 111.217 70.9511 115.622 70.9512C115.622 70.9512 103.523 98.6092 129.696 124.925Z" fill="#F1F5F9"/>
<path d="M144.658 88.982L121.774 111.519C121.283 112.003 120.735 112.426 120.143 112.779C118.462 113.789 116.493 114.21 114.546 113.977C112.599 113.744 110.785 112.87 109.39 111.492L97.5059 99.75C96.3225 98.4909 95.6757 96.8205 95.7025 95.0927C95.7292 93.3649 96.4275 91.7154 97.6494 90.4935C98.8713 89.2717 100.521 88.5734 102.249 88.5466C103.976 88.5198 105.647 89.1666 106.906 90.35L113.973 97.414L114.067 97.508C114.479 97.9208 115.038 98.1535 115.621 98.1552C116.204 98.1569 116.764 97.9274 117.179 97.517L135.305 79.527C135.926 78.9132 136.662 78.4278 137.471 78.0984C138.28 77.7691 139.146 77.6023 140.019 77.6075C140.892 77.6128 141.756 77.79 142.561 78.129C143.365 78.4681 144.096 78.9623 144.709 79.5835C145.323 80.2047 145.809 80.9408 146.138 81.7496C146.467 82.5584 146.634 83.4242 146.629 84.2975C146.624 85.1707 146.446 86.0345 146.107 86.8393C145.768 87.6441 145.274 88.3742 144.653 88.988L144.658 88.982Z" fill="#42D81C"/>
<path d="M120.143 112.779C118.462 113.788 116.493 114.21 114.546 113.977C112.599 113.744 110.785 112.869 109.39 111.492L97.5059 99.7497C96.8569 99.1397 96.3371 98.4056 95.9772 97.5909C95.6173 96.7762 95.4248 95.8975 95.411 95.007C95.3971 94.1165 95.5623 93.2322 95.8968 92.4068C96.2312 91.5813 96.7281 90.8314 97.3579 90.2016C97.9877 89.5719 98.7375 89.075 99.563 88.7406C100.388 88.4061 101.273 88.2409 102.163 88.2547C103.054 88.2685 103.932 88.4611 104.747 88.821C105.562 89.1808 106.296 89.7007 106.906 90.3497L113.972 97.4137C115.185 102.835 117.269 108.024 120.143 112.779Z" fill="#8DD470"/>
</svg>
