<svg width="321" height="515" viewBox="0 0 321 515" fill="none" xmlns="http://www.w3.org/2000/svg">
<path d="M248.45 317.897L232.041 79.2818C230.793 61.1336 244.493 45.4102 262.641 44.1631L295.5 41.9037L311.162 301.849L248.45 317.897Z" fill="#22648F"/>
<path d="M277.624 277.466L210.186 280.321L147.615 47.0953C143.23 30.7498 152.925 13.9448 169.271 9.55991L203.299 0.430664L277.624 277.466Z" fill="#1B4F71"/>
<path d="M308.143 301.85L228.943 301.469L59.8452 74.7891C49.5629 61.0053 52.6342 41.4609 66.6489 31.4951L94.7862 11.488L308.143 301.85Z" fill="#2670A1"/>
<path d="M160.185 514.328C138.58 514.328 117.622 510.097 97.8926 501.751C78.8343 493.691 61.719 482.152 47.0221 467.456C32.3226 452.753 20.7837 435.638 12.7261 416.585C5.23616 398.879 1.04854 380.126 0.279602 360.847L56.7578 356.497C63.0588 357.214 67.8015 359.165 71.2576 362.463C74.3042 365.369 76.0247 368.948 77.6602 372.667C86.2361 411.01 120.943 438.839 160.185 438.839C206.805 438.839 244.732 400.912 244.732 354.292C244.732 307.673 206.805 269.745 160.185 269.745C135.624 269.745 112.298 280.445 96.1887 299.101C96.1267 299.087 96.068 299.073 96.012 299.063C95.5561 299.635 95.0956 300.264 94.6071 300.984C91.4989 304.801 88.7057 308.915 86.3048 313.213C82.1659 317.415 76.7569 319.371 69.2819 319.371C66.4461 319.371 63.2597 319.078 59.8111 318.499L7.19585 307.167C8.77353 302.048 10.6349 296.946 12.7261 292C20.7865 272.941 32.3253 255.826 47.0221 241.129C61.7189 226.433 78.8342 214.894 97.8926 206.833C117.622 198.488 138.58 194.256 160.185 194.256C181.79 194.256 202.749 198.488 222.478 206.833C241.531 214.891 258.646 226.43 273.348 241.129C288.045 255.826 299.584 272.942 307.644 292C315.99 311.729 320.221 332.687 320.221 354.292C320.221 375.897 315.99 396.856 307.644 416.585C299.584 435.641 288.045 452.756 273.348 467.456C258.646 482.155 241.531 493.694 222.478 501.751C202.748 510.097 181.79 514.328 160.185 514.328Z" fill="#2670A1"/>
</svg>
